SplineFontDB: 3.2
FontName: Unageo-Variable
FullName: Unageo Variable
FamilyName: Unageo
Weight: Variable
Copyright: Copyright 2023 The Unageo Project Authors (https://github.com/RichardSepsi/Unageo)
UComments: "2023-12-24: Created with FontForge (http://fontforge.org)"
Version: 2.0
ItalicAngle: 0
UnderlinePosition: -100
UnderlineWidth: 50
Ascent: 800
Descent: 200
InvalidEm: 0
LayerCount: 2
Layer: 0 0 "Back" 1
Layer: 1 0 "Fore" 0
XUID: [1021 442 -170519175 32250]
FSType: 0
OS2Version: 0
OS2_WeightWidthSlopeOnly: 0
OS2_UseTypoMetrics: 1
CreationTime: 1703449529
ModificationTime: 1705142423
PfmFamily: 33
TTFWeight: 300
TTFWidth: 5
LineGap: 90
VLineGap: 0
OS2TypoAscent: 950
OS2TypoAOffset: 0
OS2TypoDescent: -250
OS2TypoDOffset: 0
OS2TypoLinegap: 90
OS2WinAscent: 1010
OS2WinAOffset: 0
OS2WinDescent: 220
OS2WinDOffset: 0
HheadAscent: 950
HheadAOffset: 0
HheadDescent: -250
HheadDOffset: 0
OS2CapHeight: 700
OS2XHeight: 500
OS2Vendor: 'PfEd'
MarkAttachClasses: 1
DEI: 91125
LangName: 1033 "" "" "" "" "" "" "" "" "Richard Sepsi" "Richard Sepsi" "" "" "" "This Font Software is licensed under the SIL Open Font License, Version 1.1. This license is available with a FAQ at: https://scripts.sil.org/OFL" "http://scripts.sil.org/OFL" "" "Unageo" "Variable"
GaspTable: 1 65535 15 1
Encoding: UnicodeBmp
UnicodeInterp: none
NameList: AGL For New Fonts
DisplaySize: -48
AntiAlias: 1
FitToEm: 0
WinInfo: 988 19 14
BeginPrivate: 7
BlueValues 23 [-12 0 500 512 700 712]
OtherBlues 11 [-200 -200]
BlueShift 1 7
StdHW 4 [60]
StdVW 4 [60]
StemSnapH 4 [60]
StemSnapV 4 [60]
EndPrivate
TeXData: 1 0 0 346030 173015 115343 524288 1048576 115343 783286 444596 497025 792723 393216 433062 380633 303038 157286 324010 404750 52429 2506097 1059062 262144
BeginChars: 65536 739

StartChar: A
Encoding: 65 65 0
GlifName: A_
Width: 607
Flags: W
HStem: 0 21G<13 88.3415 525.902 595> 205 60<216 476> 680 20G<374.371 449.286>
VStem: 530 65<0 65>
LayerCount: 2
Fore
SplineSet
216 265 m 1
 476 265 l 1
 402 619 l 1
 216 265 l 1
184 205 m 1
 78 0 l 1
 13 0 l 1
 385 700 l 1
 445 700 l 1
 595 0 l 1
 530 0 l 1
 488 205 l 1
 184 205 l 1
EndSplineSet
EndChar

StartChar: B
Encoding: 66 66 1
GlifName: B_
Width: 631
Flags: W
HStem: 0 62<173 451.463> 326 62<224 466.25> 638 62<264 498.205>
LayerCount: 2
Fore
SplineSet
215 326 m 1
 173 62 l 1
 376 62 l 2
 412 62 445 75 475 101 c 0
 505 127 523 158 529 194 c 0
 535 230 526 261 504 287 c 0
 482 313 454 326 418 326 c 2
 215 326 l 1
264 638 m 1
 224 388 l 1
 391 388 l 2
 426 388 458 400 486 424 c 0
 514 448 530 478 536 513 c 0
 542 548 534 578 514 602 c 0
 494 626 466 638 431 638 c 2
 264 638 l 1
214 700 m 1
 441 700 l 2
 492 700 533 682 564 645 c 0
 595 608 606 564 598 513 c 0
 589 454 558 407 507 369 c 1
 537 353 560 329 576 298 c 0
 592 267 597 232 591 194 c 0
 583 141 556 95 512 57 c 0
 468 19 419 0 366 0 c 2
 103 0 l 1
 214 700 l 1
EndSplineSet
EndChar

StartChar: C
Encoding: 67 67 2
GlifName: C_
Width: 683
Flags: W
HStem: -12 60<292.634 511.852> 652 60<381.268 600.099>
LayerCount: 2
Fore
SplineSet
505 712 m 0
 555 712 600 703 639 683 c 0
 678 663 711 636 736 600 c 1
 686 556 l 1
 642 620 579 652 495 652 c 0
 414 652 342 623 281 564 c 0
 220 505 181 434 168 350 c 0
 155 266 171 195 214 136 c 0
 257 77 319 48 400 48 c 0
 484 48 557 80 621 144 c 1
 657 101 l 1
 620 65 579 38 534 18 c 0
 489 -2 440 -12 390 -12 c 0
 291 -12 216 23 164 93 c 0
 112 163 92 248 108 350 c 0
 124 452 171 537 245 607 c 0
 319 677 406 712 505 712 c 0
EndSplineSet
EndChar

StartChar: D
Encoding: 68 68 3
GlifName: D_
Width: 688
Flags: W
HStem: 0 60<173 410.25> 640 60<264 493.829>
LayerCount: 2
Fore
SplineSet
387 640 m 2
 264 640 l 1
 173 60 l 1
 296 60 l 2
 376 60 448 88 514 145 c 0
 580 202 618 270 631 350 c 0
 644 430 627 498 579 555 c 0
 531 612 467 640 387 640 c 2
397 700 m 2
 494 700 571 666 628 598 c 0
 685 530 706 447 691 350 c 0
 676 253 628 171 549 103 c 0
 470 35 383 0 286 0 c 2
 103 0 l 1
 214 700 l 1
 397 700 l 2
EndSplineSet
EndChar

StartChar: E
Encoding: 69 69 4
GlifName: E_
Width: 598
Flags: W
HStem: 0 60<173 506> 329 60<225 494> 640 60<264 607>
LayerCount: 2
Fore
SplineSet
103 0 m 1
 214 700 l 1
 617 700 l 1
 607 640 l 1
 264 640 l 1
 225 389 l 1
 504 389 l 1
 494 329 l 1
 215 329 l 1
 173 60 l 1
 516 60 l 1
 506 0 l 1
 103 0 l 1
EndSplineSet
EndChar

StartChar: G
Encoding: 71 71 5
GlifName: G_
Width: 771
Flags: W
HStem: -12 60<291.634 510.686> 320 60<539 719> 652 60<380.268 598.471>
CounterMasks: 1 e0
LayerCount: 2
Fore
SplineSet
504 712 m 0
 554 712 600 703 639 683 c 0
 678 663 711 636 736 600 c 1
 685 556 l 1
 641 620 578 652 494 652 c 0
 413 652 341 623 280 564 c 0
 219 505 181 434 168 350 c 0
 155 266 170 195 213 136 c 0
 256 77 318 48 399 48 c 0
 483 48 556 80 620 144 c 0
 669 193 702 252 719 320 c 1
 530 320 l 1
 539 380 l 1
 789 380 l 1
 784 350 l 2
 768 252 726 168 656 100 c 0
 619 65 579 38 533 18 c 0
 487 -2 439 -12 389 -12 c 0
 290 -12 215 23 163 93 c 0
 111 163 92 248 108 350 c 0
 124 452 170 537 244 607 c 0
 318 677 405 712 504 712 c 0
EndSplineSet
EndChar

StartChar: H
Encoding: 72 72 6
GlifName: H_
Width: 732
Flags: W
HStem: 0 21G<103 166.142 570 633.171> 331 60<225 622> 680 20G<210.829 274 677.828 741>
VStem: 103 60<0 60> 214 60<640 700> 570 60<0 60> 681 60<640 700>
LayerCount: 2
Fore
SplineSet
103 0 m 1
 214 700 l 1
 274 700 l 1
 225 391 l 1
 632 391 l 1
 681 700 l 1
 741 700 l 1
 630 0 l 1
 570 0 l 1
 622 331 l 1
 215 331 l 1
 163 0 l 1
 103 0 l 1
EndSplineSet
EndChar

StartChar: I
Encoding: 73 73 7
GlifName: I_
Width: 265
Flags: W
HStem: 0 21G<103 166.171> 680 20G<210.829 274>
VStem: 103 60<0 60> 214 60<640 700>
LayerCount: 2
Fore
SplineSet
103 0 m 1
 214 700 l 1
 274 700 l 1
 163 0 l 1
 103 0 l 1
EndSplineSet
EndChar

StartChar: J
Encoding: 74 74 8
GlifName: J_
Width: 408
Flags: W
HStem: -11 60<78.0803 214.134> 680 20G<363.836 427>
VStem: 367 60<640 700>
LayerCount: 2
Fore
SplineSet
367 700 m 1
 427 700 l 1
 343 169 l 2
 335 119 311 77 270 42 c 0
 229 7 184 -11 134 -11 c 0
 84 -11 45 7 16 42 c 1
 64 84 l 1
 83 61 111 49 144 49 c 0
 176 49 205 61 233 85 c 0
 261 109 278 137 283 169 c 2
 367 700 l 1
EndSplineSet
EndChar

StartChar: K
Encoding: 75 75 9
GlifName: K_
Width: 593
Flags: W
HStem: 0 21G<103 166.173 494.726 586> 680 20G<210.829 274 582.419 687>
VStem: 103 60<0 60> 214 60<640 700>
LayerCount: 2
Fore
SplineSet
103 0 m 1
 214 700 l 1
 274 700 l 1
 220 359 l 1
 605 700 l 1
 687 700 l 1
 331 383 l 1
 586 0 l 1
 508 0 l 1
 283 339 l 1
 206 271 l 1
 163 0 l 1
 103 0 l 1
EndSplineSet
EndChar

StartChar: L
Encoding: 76 76 10
GlifName: L_
Width: 518
Flags: W
HStem: 0 60<173 506> 680 20G<210.829 274>
VStem: 214 60<640 700>
LayerCount: 2
Fore
SplineSet
103 0 m 1
 214 700 l 1
 274 700 l 1
 173 60 l 1
 516 60 l 1
 506 0 l 1
 103 0 l 1
EndSplineSet
EndChar

StartChar: M
Encoding: 77 77 11
GlifName: M_
Width: 792
Flags: W
HStem: 0 21G<15 82.7116 716.629 778> 680 20G<243.286 320.152 688.562 765.371>
VStem: 706 59<323.077 593> 717 61<0 376.923>
LayerCount: 2
Fore
SplineSet
250 700 m 1xe0
 316 700 l 1
 425 175 l 1
 699 700 l 1
 765 700 l 1xe0
 778 0 l 1
 717 0 l 1xd0
 706 593 l 1
 446 93 l 1
 377 93 l 1
 275 593 l 1
 76 0 l 1
 15 0 l 1
 250 700 l 1xe0
EndSplineSet
EndChar

StartChar: N
Encoding: 78 78 12
GlifName: N_
Width: 739
Flags: W
HStem: 0 21G<103 166.165 566.226 640.171> 680 20G<210.829 284.774 684.835 748>
VStem: 103 60<0 60> 688 60<640 700>
LayerCount: 2
Fore
SplineSet
214 700 m 1
 274 700 l 1
 594 106 l 1
 688 700 l 1
 748 700 l 1
 637 0 l 1
 577 0 l 1
 257 594 l 1
 163 0 l 1
 103 0 l 1
 214 700 l 1
EndSplineSet
EndChar

StartChar: O
Encoding: 79 79 13
GlifName: O_
Width: 781
Flags: W
HStem: -12 60<291.634 512.482> 652 60<380.268 599.188>
LayerCount: 2
Fore
SplineSet
494 652 m 0
 413 652 341 623 280 564 c 0
 219 505 181 434 168 350 c 0
 155 266 170 195 213 136 c 0
 256 77 318 48 399 48 c 0
 480 48 551 77 612 136 c 0
 673 195 711 266 724 350 c 0
 737 434 722 505 679 564 c 0
 636 623 575 652 494 652 c 0
504 712 m 0
 603 712 678 677 730 607 c 0
 782 537 800 452 784 350 c 0
 768 248 723 163 649 93 c 0
 575 23 488 -12 389 -12 c 0
 290 -12 215 23 163 93 c 0
 111 163 92 248 108 350 c 0
 124 452 170 537 244 607 c 0
 318 677 405 712 504 712 c 0
EndSplineSet
EndChar

StartChar: P
Encoding: 80 80 14
GlifName: P_
Width: 573
Flags: W
HStem: 0 21G<103 166.158> 266 60<215 457.242> 640 60<264 500.098>
VStem: 103 60<0 60>
LayerCount: 2
Fore
SplineSet
264 640 m 1
 215 326 l 1
 376 326 l 2
 418 326 458 342 494 373 c 0
 530 404 551 441 558 483 c 0
 565 525 555 562 529 593 c 0
 503 624 467 640 425 640 c 2
 264 640 l 1
214 700 m 1
 435 700 l 2
 495 700 544 679 579 637 c 0
 614 595 628 543 618 483 c 0
 608 423 579 372 530 330 c 0
 481 288 426 266 366 266 c 2
 205 266 l 1
 163 0 l 1
 103 0 l 1
 214 700 l 1
EndSplineSet
EndChar

StartChar: Q
Encoding: 81 81 15
GlifName: Q_
Width: 781
Flags: W
HStem: -12 60<291.634 511.271> 652 60<380.268 599.188>
LayerCount: 2
Fore
SplineSet
494 652 m 0
 413 652 341 623 280 564 c 0
 219 505 181 434 168 350 c 0
 155 266 170 195 213 136 c 0
 256 77 318 48 399 48 c 0
 467 48 527 68 582 110 c 1
 517 186 l 1
 567 229 l 1
 630 154 l 1
 681 209 712 274 724 350 c 0
 737 434 722 505 679 564 c 0
 636 623 575 652 494 652 c 0
504 712 m 0
 603 712 678 677 730 607 c 0
 782 537 800 452 784 350 c 0
 769 257 729 176 666 110 c 1
 734 30 l 1
 685 -12 l 1
 618 67 l 1
 551 14 474 -12 389 -12 c 0
 290 -12 215 23 163 93 c 0
 111 163 92 248 108 350 c 0
 124 452 170 537 244 607 c 0
 318 677 405 712 504 712 c 0
EndSplineSet
EndChar

StartChar: R
Encoding: 82 82 16
GlifName: R_
Width: 593
Flags: W
HStem: 0 21G<103 166.2 468.867 541> 300 60<220 383> 640 60<264 513.585>
VStem: 103 60<0 60> 475 66<0 66>
LayerCount: 2
Fore
SplineSet
264 640 m 1
 220 360 l 1
 398 360 l 2
 436 360 472 373 504 401 c 0
 536 429 554 462 560 500 c 0
 566 538 559 571 535 599 c 0
 511 627 480 640 442 640 c 2
 264 640 l 1
214 700 m 1
 452 700 l 2
 507 700 551 681 584 642 c 0
 617 603 629 555 620 500 c 0
 613 456 594 415 561 380 c 0
 528 345 490 321 446 309 c 1
 541 0 l 1
 475 0 l 1
 383 300 l 1
 211 300 l 1
 163 0 l 1
 103 0 l 1
 214 700 l 1
EndSplineSet
EndChar

StartChar: S
Encoding: 83 83 17
GlifName: S_
Width: 544
Flags: W
HStem: -12 60<190.955 361.703> 652 60<281.033 452.21>
VStem: 78 60<98.8 129.333> 490 60<590.55 616.133>
LayerCount: 2
Fore
SplineSet
379 712 m 0
 426 712 464 701 494 680 c 0
 524 659 543 630 550 593 c 1
 490 572 l 1
 485 597 473 617 452 631 c 0
 431 645 404 652 369 652 c 0
 327 652 292 641 262 618 c 0
 232 595 215 566 209 531 c 0
 205 503 210 478 226 459 c 0
 245 435 280 419 331 410 c 0
 393 399 443 375 479 338 c 0
 515 301 528 255 519 199 c 0
 510 140 479 90 431 49 c 0
 383 8 326 -12 264 -12 c 0
 215 -12 174 1 141 26 c 0
 108 51 86 85 78 127 c 1
 138 147 l 1
 144 117 159 93 183 75 c 0
 207 57 238 48 274 48 c 0
 320 48 360 63 396 92 c 0
 432 121 452 157 459 199 c 0
 465 239 454 272 428 298 c 0
 402 324 367 342 321 350 c 0
 263 361 218 381 186 410 c 0
 154 439 141 480 149 531 c 0
 157 582 183 625 227 660 c 0
 271 695 320 712 379 712 c 0
EndSplineSet
EndChar

StartChar: T
Encoding: 84 84 18
GlifName: T_
Width: 545
Flags: W
HStem: 0 21G<243 306.156> 640 60<124 344 404 634>
VStem: 243 60<0 60>
LayerCount: 2
Fore
SplineSet
124 700 m 1
 644 700 l 1
 634 640 l 1
 404 640 l 1
 303 0 l 1
 243 0 l 1
 344 640 l 1
 114 640 l 1
 124 700 l 1
EndSplineSet
EndChar

StartChar: U
Encoding: 85 85 19
GlifName: U_
Width: 714
Flags: W
HStem: -12 60<278.927 459.186> 680 20G<200.835 264 669.835 733>
VStem: 204 60<640 700> 673 60<640 700>
LayerCount: 2
Fore
SplineSet
204 700 m 1
 264 700 l 1
 198 283 l 2
 187 213 197 156 230 113 c 0
 263 70 307 48 365 48 c 0
 423 48 474 70 521 113 c 0
 568 156 596 213 607 283 c 2
 673 700 l 1
 733 700 l 1
 667 283 l 2
 653 195 616 123 557 69 c 0
 498 15 431 -12 355 -12 c 0
 279 -12 221 15 180 69 c 0
 139 123 124 195 138 283 c 2
 204 700 l 1
EndSplineSet
EndChar

StartChar: V
Encoding: 86 86 20
GlifName: V_
Width: 622
Flags: W
HStem: 0 21G<274.571 352.743> 680 20G<124 192.416 643.286 718>
VStem: 124 64<636 700>
LayerCount: 2
Fore
SplineSet
124 700 m 1
 188 700 l 1
 324 84 l 1
 654 700 l 1
 718 700 l 1
 342 0 l 1
 279 0 l 1
 124 700 l 1
EndSplineSet
EndChar

StartChar: W
Encoding: 87 87 21
GlifName: W_
Width: 917
Flags: W
HStem: 0 21G<218.229 293.103 632.225 707.086> 680 20G<124 190.732 528.927 604.732 941.961 1016>
VStem: 124 64<636 700>
LayerCount: 2
Fore
SplineSet
951 700 m 1
 1016 700 l 1
 698 0 l 1
 635 0 l 1
 553 591 l 1
 284 0 l 1
 221 0 l 1
 124 700 l 1
 188 700 l 1
 269 107 l 1
 538 700 l 1
 602 700 l 1
 683 107 l 1
 951 700 l 1
EndSplineSet
EndChar

StartChar: X
Encoding: 88 88 22
GlifName: X_
Width: 548
Flags: W
HStem: 0 21G<14 101.122 454.34 536> 680 20G<125 205.695 559 647>
LayerCount: 2
Fore
SplineSet
575 700 m 1
 647 700 l 1
 366 350 l 1
 536 0 l 1
 464 0 l 1
 322 294 l 1
 85 0 l 1
 14 0 l 1
 294 350 l 1
 125 700 l 1
 196 700 l 1
 339 405 l 1
 575 700 l 1
EndSplineSet
EndChar

StartChar: Y
Encoding: 89 89 23
GlifName: Y_
Width: 531
Flags: W
HStem: 0 21G<236 299.178> 680 20G<124 203.581 544.097 630>
VStem: 236 60<0 60>
LayerCount: 2
Fore
SplineSet
124 700 m 1
 195 700 l 1
 328 390 l 1
 559 700 l 1
 630 700 l 1
 347 321 l 5
 296 0 l 1
 236 0 l 1
 287 321 l 1
 124 700 l 1
EndSplineSet
EndChar

StartChar: Z
Encoding: 90 90 24
GlifName: Z_
Width: 608
Flags: W
HStem: 0 60<138 553> 640 60<167 582>
LayerCount: 2
Fore
SplineSet
53 0 m 1
 63 60 l 1
 582 640 l 1
 157 640 l 1
 167 700 l 1
 667 700 l 1
 657 640 l 1
 138 60 l 1
 563 60 l 1
 553 0 l 1
 53 0 l 1
EndSplineSet
EndChar

StartChar: F
Encoding: 70 70 25
GlifName: F_
Width: 544
Flags: W
HStem: 0 21G<103 166.145> 318 60<223 497> 640 60<264 607>
VStem: 103 60<0 60>
LayerCount: 2
Fore
SplineSet
103 0 m 1
 214 700 l 1
 617 700 l 1
 607 640 l 1
 264 640 l 1
 223 378 l 1
 507 378 l 1
 497 318 l 1
 213 318 l 1
 163 0 l 1
 103 0 l 1
EndSplineSet
EndChar

StartChar: a
Encoding: 97 97 26
GlifName: a
Width: 608
Flags: W
HStem: -12 60<215.171 390.065> 0 21G<471 534.16> 452 60<271.253 447.029> 480 20G<546.941 610>
VStem: 471 60<0 60> 550 60<440 500>
LayerCount: 2
Fore
SplineSet
550 500 m 1x1c
 610 500 l 1
 531 0 l 1
 471 0 l 1x5c
 484 85 l 1
 478 77 472 69 465 62 c 0
 418 13 361 -12 291 -12 c 0
 220 -12 165 13 127 64 c 0
 89 115 76 177 88 250 c 0
 100 323 132 385 186 436 c 0
 240 487 303 512 374 512 c 0xac
 444 512 493 487 524 438 c 0
 529 431 533 423 537 415 c 1
 550 500 l 1x1c
365 452 m 0xac
 310 452 261 433 221 394 c 0
 181 355 157 307 148 250 c 0
 139 193 148 145 176 106 c 0
 204 67 246 48 301 48 c 0
 355 48 401 67 439 106 c 0
 477 145 502 192 511 250 c 0
 520 308 510 355 484 394 c 0
 458 433 419 452 365 452 c 0xac
EndSplineSet
EndChar

StartChar: b
Encoding: 98 98 27
GlifName: b
Width: 608
Flags: W
HStem: -12 60<241.14 416.916> 0 21G<78 141.059> 452 60<298.104 472.998> 680 20G<185.829 249>
VStem: 78 60<0 60> 189 60<640 700>
LayerCount: 2
Fore
SplineSet
388 452 m 0xbc
 334 452 287 433 249 394 c 0
 211 355 187 308 178 250 c 0
 169 192 178 145 204 106 c 0
 230 67 270 48 324 48 c 0
 379 48 427 67 467 106 c 0
 507 145 532 193 541 250 c 0
 550 307 540 355 512 394 c 0
 484 433 443 452 388 452 c 0xbc
397 512 m 0
 468 512 523 487 561 436 c 0
 599 385 613 324 601 250 c 0
 589 176 556 115 502 64 c 0
 448 13 385 -12 314 -12 c 0xbc
 244 -12 195 13 164 62 c 0
 159 69 155 77 151 85 c 1
 138 0 l 1
 78 0 l 1x7c
 189 700 l 1
 249 700 l 1
 204 415 l 1
 210 423 216 431 223 438 c 0
 270 487 327 512 397 512 c 0
EndSplineSet
EndChar

StartChar: c
Encoding: 99 99 28
GlifName: c
Width: 504
Flags: W
HStem: -12 60<215.171 389.997> 452 60<271.253 447.858>
LayerCount: 2
Fore
SplineSet
374 512 m 0
 444 512 498 487 536 437 c 1
 488 393 l 1
 459 432 419 452 365 452 c 0
 310 452 261 433 221 394 c 0
 181 355 157 307 148 250 c 0
 139 193 148 145 176 106 c 0
 204 67 246 48 301 48 c 0
 355 48 402 68 443 107 c 1
 477 63 l 1
 423 13 361 -12 291 -12 c 0
 220 -12 165 13 127 64 c 0
 89 115 76 177 88 250 c 0
 100 323 132 385 186 436 c 0
 240 487 303 512 374 512 c 0
EndSplineSet
EndChar

StartChar: d
Encoding: 100 100 29
GlifName: d
Width: 608
Flags: W
HStem: -12 60<215.171 390.065> 452 60<271.253 447.029>
VStem: 471 60<0 60> 582 60<640 700>
LayerCount: 2
Fore
SplineSet
365 452 m 0
 419 452 458 433 484 394 c 0
 510 355 520 308 511 250 c 0
 502 192 477 145 439 106 c 0
 401 67 355 48 301 48 c 0
 246 48 204 67 176 106 c 0
 148 145 139 193 148 250 c 0
 157 307 181 355 221 394 c 0
 261 433 310 452 365 452 c 0
374 512 m 0
 303 512 240 487 186 436 c 0
 132 385 100 324 88 250 c 0
 76 176 89 115 127 64 c 0
 165 13 220 -12 291 -12 c 0
 361 -12 418 13 465 62 c 0
 472 69 478 77 484 85 c 1
 471 0 l 1
 531 0 l 1
 642 700 l 1
 582 700 l 1
 537 415 l 1
 533 423 529 431 524 438 c 0
 493 487 444 512 374 512 c 0
EndSplineSet
EndChar

StartChar: e
Encoding: 101 101 30
GlifName: e
Width: 554
Flags: W
HStem: -12 60<217.467 412.506> 220 60<154 500.548> 452 60<274.086 444.433>
CounterMasks: 1 e0
LayerCount: 2
Fore
SplineSet
552 220 m 5
 145 220 l 5
 143 170 156 129 184 97 c 4
 212 65 252 48 301 48 c 4
 371 48 428 68 473 107 c 5
 507 63 l 5
 449 13 377 -12 291 -12 c 4
 220 -12 165 13 127 64 c 4
 89 115 76 177 88 250 c 4
 100 323 132 385 186 436 c 4
 240 487 303 512 374 512 c 4
 444 512 494 488 526 438 c 4
 558 388 569 325 557 250 c 6
 552 220 l 5
365 452 m 4
 316 452 271 435 233 403 c 4
 195 371 168 330 154 280 c 5
 500 280 l 5
 503 331 494 372 471 404 c 4
 448 436 413 452 365 452 c 4
EndSplineSet
EndChar

StartChar: f
Encoding: 102 102 31
GlifName: f
Width: 344
Flags: W
HStem: 0 21G<128 191.175> 441 59<112 198 267 407> 652 60<323.346 440>
VStem: 128 60<0 60>
LayerCount: 2
Fore
SplineSet
398 712 m 2
 450 712 l 1
 440 652 l 1
 388 652 l 2
 361 652 337 643 315 624 c 0
 293 605 280 582 276 555 c 2
 267 500 l 1
 416 500 l 1
 407 441 l 1
 258 441 l 1
 188 0 l 1
 128 0 l 1
 198 441 l 1
 103 441 l 1
 112 500 l 1
 207 500 l 1
 216 555 l 2
 223 598 243 635 279 666 c 0
 315 697 355 712 398 712 c 2
EndSplineSet
EndChar

StartChar: g
Encoding: 103 103 32
GlifName: g
Width: 608
Flags: W
HStem: -212 55<150.973 359.297> -12 60<215.171 390.065> 452 60<271.253 447.029> 480 20G<546.941 610>
VStem: 550 60<440 500>
LayerCount: 2
Fore
SplineSet
374 512 m 0xe8
 444 512 493 487 524 438 c 0
 529 431 533 423 537 415 c 1
 550 500 l 1
 610 500 l 1xd8
 538 46 l 2
 526 -29 495 -92 442 -140 c 0
 389 -188 327 -212 256 -212 c 0
 191 -212 133 -195 81 -162 c 1
 114 -114 l 1
 153 -143 204 -157 265 -157 c 0
 324 -157 371 -138 408 -98 c 0
 445 -58 469 -11 478 46 c 0
 481 62 481 69 484 85 c 1
 478 77 472 69 465 62 c 0
 418 13 361 -12 291 -12 c 0
 220 -12 165 13 127 64 c 0
 89 115 76 177 88 250 c 0
 100 323 132 385 186 436 c 0
 240 487 303 512 374 512 c 0xe8
365 452 m 0xe8
 310 452 261 433 221 394 c 0
 181 355 157 307 148 250 c 0
 139 193 148 145 176 106 c 0
 204 67 246 48 301 48 c 0
 355 48 401 67 439 106 c 0
 477 145 502 192 511 250 c 0
 520 308 510 355 484 394 c 0
 458 433 419 452 365 452 c 0xe8
EndSplineSet
EndChar

StartChar: h
Encoding: 104 104 33
GlifName: h
Width: 559
Flags: W
HStem: 0 21G<78 141.134 437 500.134> 452 60<281.049 431.033> 680 20G<185.829 249>
VStem: 78 60<0 60> 189 60<640 700> 437 60<0 60>
LayerCount: 2
Fore
SplineSet
497 0 m 1
 437 0 l 1
 479 268 l 2
 488 325 482 369 459 402 c 0
 436 435 403 452 360 452 c 0
 317 452 278 435 245 402 c 0
 212 369 189 325 180 268 c 2
 138 0 l 5
 78 0 l 5
 189 700 l 1
 249 700 l 1
 206 432 l 1
 210 437 215 442 219 446 c 0
 261 490 311 512 369 512 c 0
 429 512 474 489 507 445 c 0
 540 401 551 341 539 268 c 2
 497 0 l 1
EndSplineSet
EndChar

StartChar: i
Encoding: 105 105 34
GlifName: i
Width: 225
Flags: W
HStem: 0 21G<82 145.16> 480 20G<157.84 221> 630 80<187.329 252.335>
VStem: 82 60<0 60> 161 60<440 500>
LayerCount: 2
Fore
SplineSet
82 0 m 1
 161 500 l 1
 221 500 l 1
 142 0 l 1
 82 0 l 1
259 670 m 0
 257 659 253 650 244 642 c 0
 235 634 224 630 213 630 c 0
 202 630 194 634 187 642 c 0
 180 650 177 659 179 670 c 0
 181 681 187 691 196 699 c 0
 205 707 214 710 225 710 c 0
 236 710 246 707 253 699 c 0
 260 691 261 681 259 670 c 0
EndSplineSet
EndChar

StartChar: j
Encoding: 106 106 35
GlifName: j
Width: 243
Flags: W
HStem: -215 60<-72 8.59965> 480 20G<176.844 240> 632 80<205.329 270.338>
VStem: 180 60<440 500>
LayerCount: 2
Fore
SplineSet
180 500 m 5
 240 500 l 5
 160 -7 l 6
 151 -64 123 -113 76 -154 c 4
 29 -195 -24 -215 -81 -215 c 5
 -72 -155 l 5
 -31 -155 6 -140 40 -111 c 4
 74 -82 94 -48 100 -7 c 6
 180 500 l 5
277 672 m 4
 275 661 271 652 262 644 c 4
 253 636 242 632 231 632 c 4
 220 632 212 636 205 644 c 4
 198 652 195 661 197 672 c 4
 199 683 205 693 214 701 c 4
 223 709 233 712 244 712 c 4
 255 712 264 709 271 701 c 4
 278 693 279 683 277 672 c 4
EndSplineSet
EndChar

StartChar: k
Encoding: 107 107 36
GlifName: k
Width: 470
Flags: W
HStem: 0 21G<78 141.2 384.575 468> 480 20G<424.573 529> 680 20G<185.829 249>
VStem: 78 60<0 60> 189 60<640 700>
LayerCount: 2
Fore
SplineSet
78 0 m 1
 189 700 l 1
 249 700 l 1
 179 261 l 1
 447 500 l 1
 529 500 l 1
 309 303 l 1
 468 0 l 1
 395 0 l 1
 260 259 l 1
 166 175 l 1
 138 0 l 1
 78 0 l 1
EndSplineSet
EndChar

StartChar: l
Encoding: 108 108 37
GlifName: l
Width: 215
Flags: W
HStem: 0 21G<78 141.171> 680 20G<185.829 249>
VStem: 78 60<0 60> 189 60<640 700>
LayerCount: 2
Fore
SplineSet
189 700 m 5
 249 700 l 1
 138 0 l 1
 78 0 l 1
 189 700 l 5
EndSplineSet
EndChar

StartChar: m
Encoding: 109 109 38
GlifName: m
Width: 878
Flags: W
HStem: 0 21G<78 141.134 417 480.134 756 819.134> 452 60<273.584 417.589 612.298 756.589> 480 20G<153.84 217>
VStem: 78 60<0 60> 157 60<440 500> 417 60<0 60> 756 60<0 60>
LayerCount: 2
Fore
SplineSet
816 0 m 1xde
 756 0 l 1
 798 268 l 2
 807 325 802 370 781 403 c 0
 760 436 729 452 688 452 c 0
 647 452 611 436 580 403 c 0
 549 370 528 325 519 268 c 2
 477 0 l 1
 417 0 l 1
 459 268 l 2
 468 325 463 370 442 403 c 0
 421 436 390 452 349 452 c 0xde
 308 452 272 436 241 403 c 0
 210 370 189 325 180 268 c 2
 138 0 l 1
 78 0 l 1
 157 500 l 1
 217 500 l 1xbe
 207 437 l 1
 209 440 214 443 216 446 c 0
 255 489 302 512 358 512 c 0
 416 512 459 489 490 445 c 0
 501 429 510 411 516 391 c 1
 526 412 539 430 554 446 c 0
 593 489 641 512 697 512 c 0
 755 512 798 489 829 445 c 0
 860 401 870 342 858 268 c 2
 816 0 l 1xde
EndSplineSet
EndChar

StartChar: n
Encoding: 110 110 39
GlifName: n
Width: 559
Flags: W
HStem: 0 21G<78 141.134 437 500.134> 452 60<281.049 431.033> 480 20G<153.84 217>
VStem: 78 60<0 60> 157 60<440 500> 437 60<0 60>
LayerCount: 2
Fore
SplineSet
497 0 m 1xdc
 437 0 l 1
 479 268 l 2
 488 325 482 369 459 402 c 0
 436 435 403 452 360 452 c 0xdc
 317 452 278 435 245 402 c 0
 212 369 189 325 180 268 c 2
 138 0 l 5
 78 0 l 5
 157 500 l 1
 217 500 l 1xbc
 206 432 l 1
 210 437 215 442 219 446 c 0
 261 490 311 512 369 512 c 0
 429 512 474 489 507 445 c 0
 540 401 551 341 539 268 c 2
 497 0 l 1xdc
EndSplineSet
EndChar

StartChar: o
Encoding: 111 111 40
GlifName: o
Width: 584
Flags: W
HStem: -12 60<215.171 393.324> 452 60<271.253 449.498>
LayerCount: 2
Fore
SplineSet
365 452 m 0
 310 452 261 433 221 394 c 0
 181 355 157 307 148 250 c 0
 139 193 148 145 176 106 c 0
 204 67 246 48 301 48 c 0
 356 48 403 67 443 106 c 0
 483 145 508 193 517 250 c 0
 526 307 516 355 488 394 c 0
 460 433 420 452 365 452 c 0
374 512 m 0
 445 512 499 487 537 436 c 0
 575 385 589 323 577 250 c 0
 565 177 532 115 478 64 c 0
 424 13 362 -12 291 -12 c 0
 220 -12 165 13 127 64 c 0
 89 115 76 177 88 250 c 0
 100 323 132 385 186 436 c 0
 240 487 303 512 374 512 c 0
EndSplineSet
EndChar

StartChar: p
Encoding: 112 112 41
GlifName: p
Width: 613
Flags: W
HStem: -12 60<245.809 421.916> 452 60<301.433 477.998>
VStem: 51 60<-200 -140> 162 60<440 500>
LayerCount: 2
Fore
SplineSet
222 500 m 1
 162 500 l 1
 51 -200 l 1
 111 -200 l 1
 156 85 l 1
 160 77 164 69 169 62 c 0
 200 13 249 -12 319 -12 c 0
 390 -12 453 13 507 64 c 0
 561 115 594 176 606 250 c 0
 618 324 604 385 566 436 c 0
 528 487 473 512 402 512 c 0
 332 512 275 487 228 438 c 0
 221 431 215 423 209 415 c 1
 222 500 l 1
329 48 m 0
 275 48 234 67 208 106 c 0
 182 145 174 192 183 250 c 0
 192 308 215 355 253 394 c 0
 291 433 339 452 393 452 c 0
 448 452 489 433 517 394 c 0
 545 355 555 307 546 250 c 0
 537 193 512 145 472 106 c 0
 432 67 384 48 329 48 c 0
EndSplineSet
EndChar

StartChar: q
Encoding: 113 113 42
GlifName: q
Width: 598
Flags: W
HStem: -200 21G<439 502.171> -12 60<215.171 390.065> 452 60<271.253 447.029> 480 20G<546.941 610>
VStem: 439 60<-200 -140> 550 60<440 500>
LayerCount: 2
Fore
SplineSet
550 500 m 1xdc
 610 500 l 1xdc
 499 -200 l 1
 439 -200 l 1
 484 85 l 1
 478 77 472 69 465 62 c 0
 418 13 361 -12 291 -12 c 0
 220 -12 165 13 127 64 c 0
 89 115 76 176 88 250 c 0
 100 324 132 385 186 436 c 0
 240 487 303 512 374 512 c 0xec
 444 512 493 487 524 438 c 0
 529 431 533 423 537 415 c 1
 550 500 l 1xdc
301 48 m 0
 355 48 401 67 439 106 c 0
 477 145 502 192 511 250 c 0
 520 308 510 355 484 394 c 0
 458 433 419 452 365 452 c 0xec
 310 452 261 433 221 394 c 0
 181 355 157 307 148 250 c 0
 139 193 148 145 176 106 c 0
 204 67 246 48 301 48 c 0
EndSplineSet
EndChar

StartChar: r
Encoding: 114 114 43
GlifName: r
Width: 327
Flags: W
HStem: 0 21G<78 141.2> 452 60<298.458 387> 480 20G<153.84 217>
VStem: 78 60<0 60> 157 60<440 500>
LayerCount: 2
Fore
SplineSet
157 500 m 1xb8
 217 500 l 1xb8
 205 424 l 1
 211 430 217 437 224 443 c 0
 245 462 267 477 290 488 c 0
 323 504 358 512 396 512 c 1
 387 452 l 1xd8
 338 452 294 435 253 400 c 0
 212 365 190 324 182 275 c 2
 138 0 l 1
 78 0 l 1
 157 500 l 1xb8
EndSplineSet
EndChar

StartChar: s
Encoding: 115 115 44
GlifName: s
Width: 435
Flags: W
HStem: -12 60<148.661 297.851> 452 60<220.488 354.493>
LayerCount: 2
Fore
SplineSet
431 422 m 1
 371 402 l 1
 368 417 359 429 344 438 c 0
 329 447 312 452 290 452 c 0
 263 452 238 445 220 430 c 0
 202 415 191 397 188 376 c 0
 184 352 197 332 226 316 c 0
 240 309 257 303 277 297 c 0
 329 282 365 262 387 236 c 0
 408 211 417 180 411 144 c 0
 404 101 381 64 342 34 c 0
 303 4 260 -12 210 -12 c 0
 171 -12 140 -3 115 16 c 0
 90 35 72 60 62 91 c 1
 122 111 l 1
 135 69 167 48 220 48 c 0
 253 48 282 57 307 76 c 0
 332 95 347 117 351 144 c 0
 355 172 343 195 313 214 c 0
 298 224 277 232 252 239 c 0
 212 250 180 268 155 290 c 0
 130 312 122 341 128 376 c 0
 134 414 153 447 185 473 c 0
 217 499 255 512 299 512 c 0
 334 512 364 504 387 488 c 0
 410 472 425 449 431 422 c 1
EndSplineSet
EndChar

StartChar: t
Encoding: 116 116 45
GlifName: t
Width: 364
Flags: W
HStem: 0 60<249.415 331> 441 59<102 182 251 402>
VStem: 216 60<596 656>
LayerCount: 2
Fore
SplineSet
216 656 m 1
 276 656 l 1
 251 500 l 1
 411 500 l 1
 402 441 l 1
 242 441 l 1
 204 199 l 2
 198 160 205 128 228 101 c 0
 251 74 282 60 321 60 c 2
 341 60 l 1
 331 0 l 1
 311 0 l 2
 256 0 212 20 179 59 c 0
 146 98 135 144 144 199 c 2
 182 441 l 1
 93 441 l 1
 102 500 l 1
 191 500 l 1
 216 656 l 1
EndSplineSet
EndChar

StartChar: u
Encoding: 117 117 46
GlifName: u
Width: 544
Flags: W
HStem: -12 60<209.309 358.781> 480 20G<138.866 202 497.866 561>
VStem: 142 60<440 500> 501 60<440 500>
LayerCount: 2
Fore
SplineSet
142 500 m 1
 202 500 l 1
 160 232 l 2
 151 175 159 131 182 98 c 0
 205 65 238 48 281 48 c 0
 324 48 362 65 395 98 c 0
 428 131 450 175 459 232 c 2
 501 500 l 1
 561 500 l 1
 519 232 l 2
 507 159 478 99 431 55 c 0
 384 11 331 -12 271 -12 c 0
 211 -12 165 11 132 55 c 0
 99 99 88 159 100 232 c 2
 142 500 l 1
EndSplineSet
EndChar

StartChar: v
Encoding: 118 118 47
GlifName: v
Width: 493
Flags: W
HStem: 0 21G<210.08 290.24> 480 20G<92 161.905 483.81 560>
VStem: 92 65<435 500>
LayerCount: 2
Fore
SplineSet
92 500 m 1
 157 500 l 1
 260 80 l 1
 495 500 l 1
 560 500 l 1
 279 0 l 1
 215 0 l 1
 92 500 l 1
EndSplineSet
EndChar

StartChar: w
Encoding: 119 119 48
GlifName: w
Width: 766
Flags: W
HStem: 0 21G<169.76 245.319 508.708 584.36> 480 20G<92 158.235 420.706 497.235 759.706 833>
VStem: 92 63<437 500>
LayerCount: 2
Fore
SplineSet
770 500 m 1
 833 500 l 1
 574 0 l 1
 512 0 l 1
 445 407 l 1
 235 0 l 1
 173 0 l 1
 92 500 l 1
 155 500 l 1
 221 92 l 1
 431 500 l 1
 494 500 l 1
 560 92 l 1
 770 500 l 1
EndSplineSet
EndChar

StartChar: x
Encoding: 120 120 49
GlifName: x
Width: 440
Flags: W
HStem: 0 21G<12 103.837 344.49 428> 480 20G<91 174.558 418.046 507>
LayerCount: 2
Fore
SplineSet
252 196 m 1
 87 0 l 1
 12 0 l 1
 224 250 l 1
 91 500 l 1
 164 500 l 1
 268 303 l 1
 435 500 l 1
 507 500 l 1
 297 250 l 1
 428 0 l 1
 355 0 l 1
 252 196 l 1
EndSplineSet
EndChar

StartChar: y
Encoding: 121 121 50
GlifName: y
Width: 511
Flags: W
HStem: -212 59<-1 112.792> 480 20G<92 162.213 501.341 578>
VStem: 92 65<435 500>
LayerCount: 2
Fore
SplineSet
92 500 m 1
 157 500 l 1
 267 78 l 1
 513 500 l 1
 578 500 l 1
 241 -80 l 2
 218 -120 187 -152 146 -176 c 0
 105 -200 63 -212 19 -212 c 2
 -11 -212 l 1
 -1 -153 l 1
 29 -153 l 2
 61 -153 92 -144 121 -127 c 0
 150 -110 172 -87 190 -57 c 2
 223 0 l 1
 92 500 l 1
EndSplineSet
EndChar

StartChar: z
Encoding: 122 122 51
GlifName: z
Width: 483
Flags: W
HStem: 0 60<139 431> 440 60<132 425>
LayerCount: 2
Fore
SplineSet
53 0 m 1
 63 60 l 1
 425 440 l 1
 123 440 l 1
 132 500 l 1
 510 500 l 1
 501 440 l 1
 139 60 l 1
 441 60 l 1
 431 0 l 1
 53 0 l 1
EndSplineSet
EndChar

StartChar: bracketleft
Encoding: 91 91 52
GlifName: bracketleft
Width: 321
Flags: W
HStem: 740 60<277.094 295>
LayerCount: 2
Fore
SplineSet
295 800 m 6
 277 800 261 794 246 781 c 4
 231 768 222 753 219 735 c 6
 97 -35 l 6
 94 -53 98 -68 109 -81 c 4
 120 -94 134 -100 152 -100 c 6
 223 -100 l 5
 233 -40 l 5
 162 -40 l 6
 159 -40 157 -38 157 -35 c 6
 279 735 l 6
 279 738 282 740 285 740 c 6
 356 740 l 5
 366 800 l 5
 295 800 l 6
EndSplineSet
EndChar

StartChar: backslash
Encoding: 92 92 53
GlifName: backslash
Width: 364
Flags: W
LayerCount: 2
Fore
SplineSet
193 747 m 5
 133 727 l 5
 275 -84 l 5
 334 -64 l 5
 193 747 l 5
EndSplineSet
EndChar

StartChar: bracketright
Encoding: 93 93 54
GlifName: bracketright
Width: 321
Flags: W
HStem: -100 60<87 164.906> 740 60<220 284.999>
LayerCount: 2
Fore
SplineSet
291 800 m 6
 309 800 323 794 334 781 c 4
 345 768 348 753 345 735 c 6
 223 -35 l 6
 220 -53 212 -68 197 -81 c 4
 182 -94 166 -100 148 -100 c 6
 77 -100 l 5
 87 -40 l 5
 158 -40 l 6
 161 -40 163 -38 163 -35 c 6
 285 735 l 6
 285 738 284 740 281 740 c 6
 210 740 l 5
 220 800 l 5
 291 800 l 6
EndSplineSet
EndChar

StartChar: asciicircum
Encoding: 94 94 55
GlifName: asciicircum
Width: 547
Flags: W
HStem: 373 327
LayerCount: 2
Fore
SplineSet
458 373 m 1
 350 700 l 1
 418 700 l 1
 524 373 l 1
 458 373 l 1
143 373 m 1
 350 700 l 1
 418 700 l 1
 207 373 l 1
 143 373 l 1
EndSplineSet
EndChar

StartChar: underscore
Encoding: 95 95 56
GlifName: underscore
Width: 485
Flags: W
HStem: -60 60<33 443>
LayerCount: 2
Fore
SplineSet
23 -60 m 1
 33 0 l 1
 453 0 l 1
 443 -60 l 1
 23 -60 l 1
EndSplineSet
EndChar

StartChar: grave
Encoding: 96 96 57
GlifName: grave
Width: 210
Flags: W
HStem: 574 127
VStem: 120 180
LayerCount: 2
Fore
SplineSet
224 574 m 1
 120 701 l 1
 209 701 l 1
 300 574 l 1
 224 574 l 1
EndSplineSet
EndChar

StartChar: zero
Encoding: 48 48 58
GlifName: zero
Width: 641
Flags: W
HStem: -12 60<247.929 415.768> 652 60<336.913 504.856>
LayerCount: 2
Fore
SplineSet
424 652 m 0
 389 652 357 643 327 625 c 0
 297 607 271 584 250 555 c 0
 229 526 213 493 199 458 c 0
 185 423 174 388 168 350 c 0
 162 312 162 277 164 242 c 0
 166 207 174 174 185 145 c 0
 196 116 216 93 240 75 c 0
 264 57 294 48 329 48 c 0
 364 48 396 57 426 75 c 0
 456 93 482 116 503 145 c 0
 524 174 541 207 555 242 c 0
 569 277 578 312 584 350 c 0
 590 388 592 423 590 458 c 0
 588 493 579 526 568 555 c 0
 557 584 537 607 513 625 c 0
 489 643 459 652 424 652 c 0
434 712 m 0
 491 712 537 694 573 658 c 0
 609 622 633 577 644 524 c 0
 655 471 654 412 644 350 c 0
 634 288 616 229 589 176 c 0
 562 123 524 78 476 42 c 0
 428 6 376 -12 319 -12 c 0
 262 -12 215 6 179 42 c 0
 143 78 121 123 110 176 c 0
 99 229 98 288 108 350 c 0
 118 412 138 471 165 524 c 0
 192 577 228 622 276 658 c 0
 324 694 377 712 434 712 c 0
EndSplineSet
EndChar

StartChar: one
Encoding: 49 49 59
GlifName: one
Width: 411
Flags: W
HStem: 0 21G<229 292.171> 680 20G<312.889 400>
VStem: 229 60<0 60>
LayerCount: 2
Fore
SplineSet
340 700 m 1
 400 700 l 1
 289 0 l 1
 229 0 l 1
 328 622 l 1
 189 519 l 1
 157 565 l 1
 340 700 l 1
EndSplineSet
EndChar

StartChar: two
Encoding: 50 50 60
GlifName: two
Width: 526
Flags: W
HStem: 0 60<123 459> 652 60<263.096 423.455>
LayerCount: 2
Fore
SplineSet
357 712 m 0
 415 712 460 692 495 651 c 0
 530 610 542 560 533 502 c 0
 525 454 493 404 438 351 c 2
 123 60 l 1
 469 60 l 1
 459 0 l 1
 33 0 l 1
 43 60 l 1
 398 388 l 2
 441 428 467 466 473 502 c 0
 480 545 471 581 447 609 c 0
 423 637 390 652 347 652 c 0
 312 652 280 643 251 623 c 0
 222 603 200 576 186 542 c 1
 131 559 l 1
 151 604 182 641 223 669 c 0
 264 697 310 712 357 712 c 0
EndSplineSet
EndChar

StartChar: three
Encoding: 51 51 61
GlifName: three
Width: 547
Flags: W
HStem: -12 60<191.334 366.663> 350 60<258 404.871> 652 60<284.463 446.004>
LayerCount: 2
Fore
SplineSet
378 712 m 0
 432 712 476 695 510 661 c 0
 544 627 555 584 547 532 c 0
 543 507 532 482 516 460 c 0
 496 433 467 407 428 383 c 1
 462 363 488 337 507 305 c 0
 526 273 532 238 526 198 c 0
 516 138 486 88 436 48 c 0
 386 8 327 -12 265 -12 c 0
 224 -12 188 -2 155 17 c 0
 122 36 99 62 85 95 c 1
 141 126 l 1
 150 102 167 83 192 69 c 0
 217 55 244 48 275 48 c 0
 321 48 363 62 400 90 c 0
 437 118 459 154 466 198 c 0
 473 242 462 278 433 307 c 0
 404 336 366 350 322 350 c 2
 248 350 l 1
 258 410 l 1
 332 410 l 2
 368 410 400 421 432 444 c 0
 464 467 481 497 487 532 c 0
 493 568 485 597 461 619 c 0
 437 641 406 652 368 652 c 0
 341 652 315 646 289 633 c 0
 263 620 243 603 230 582 c 1
 183 612 l 1
 203 642 230 667 266 685 c 0
 302 703 340 712 378 712 c 0
EndSplineSet
EndChar

StartChar: four
Encoding: 52 52 62
GlifName: four
Width: 581
Flags: W
HStem: 0 21G<355 418.187> 182 60<157 384 453 578> 681 20G<366.451 419>
VStem: 355 60<0 60> 425 60<380 440>
LayerCount: 2
Fore
SplineSet
379 701 m 1
 429 676 l 1
 157 242 l 1
 393 242 l 1
 425 440 l 1
 485 440 l 1
 453 242 l 1
 587 242 l 1
 578 182 l 1
 444 182 l 1
 415 0 l 1
 355 0 l 1
 384 182 l 1
 82 182 l 1
 91 242 l 1
 379 701 l 1
EndSplineSet
EndChar

StartChar: five
Encoding: 53 53 63
GlifName: five
Width: 539
Flags: W
HStem: -12 60<189.134 356.768> 382 60<241 401.73> 640 60<272 550>
LayerCount: 2
Fore
SplineSet
222 700 m 1
 560 700 l 1
 550 640 l 1
 272 640 l 1
 241 442 l 1
 337 442 l 2
 398 441 445 418 481 373 c 0
 517 328 531 275 521 213 c 0
 511 151 481 98 430 54 c 0
 379 10 322 -12 260 -12 c 0
 220 -12 185 -2 154 18 c 0
 123 38 99 63 82 95 c 1
 134 133 l 1
 162 76 208 48 270 48 c 0
 317 48 357 64 394 96 c 0
 431 128 454 166 461 213 c 0
 468 259 459 298 433 331 c 0
 407 364 373 381 328 382 c 2
 172 382 l 1
 222 700 l 1
EndSplineSet
EndChar

StartChar: six
Encoding: 54 54 64
GlifName: six
Width: 542
Flags: W
HStem: -12 60<206.673 375.792> 387 60<280.111 422.882> 692 20G<399.249 483>
LayerCount: 2
Fore
SplineSet
341 387 m 0
 294 387 252 371 214 338 c 0
 176 305 152 264 145 217 c 0
 138 170 147 130 175 97 c 0
 203 64 241 48 288 48 c 0
 335 48 378 64 416 97 c 0
 454 130 477 170 484 217 c 0
 491 264 483 305 455 338 c 0
 427 371 388 387 341 387 c 0
414 712 m 1
 483 712 l 1
 279 435 l 1
 303 443 328 447 351 447 c 0
 414 447 465 425 503 380 c 0
 541 335 554 280 544 217 c 0
 534 154 504 100 452 55 c 0
 400 10 341 -12 278 -12 c 0
 215 -12 165 10 127 55 c 0
 89 100 75 154 85 217 c 0
 91 258 107 296 133 331 c 2
 414 712 l 1
EndSplineSet
EndChar

StartChar: seven
Encoding: 55 55 65
GlifName: seven
Width: 535
Flags: W
HStem: 0 21G<82 165.156> 640 60<159 536>
LayerCount: 2
Fore
SplineSet
149 640 m 1
 159 700 l 1
 614 700 l 1
 604 640 l 1
 151 0 l 1
 82 0 l 1
 536 640 l 1
 149 640 l 1
EndSplineSet
EndChar

StartChar: eight
Encoding: 56 56 66
GlifName: eight
Width: 573
Flags: W
HStem: -12 60<212.606 383.076> 349 60<279.2 422.321> 652 60<309.741 463.369>
LayerCount: 2
Fore
SplineSet
342 349 m 0
 299 349 257 334 220 306 c 0
 183 278 161 241 154 198 c 0
 147 155 157 118 186 90 c 0
 215 62 252 48 295 48 c 0
 338 48 379 62 416 90 c 0
 453 118 475 155 482 198 c 0
 489 241 479 278 450 306 c 0
 421 334 385 349 342 349 c 0
390 652 m 0
 354 652 321 640 291 618 c 0
 261 596 242 567 236 532 c 0
 230 497 240 467 263 444 c 0
 286 421 317 409 352 409 c 0
 387 409 420 421 451 444 c 0
 482 467 499 497 505 532 c 0
 511 567 503 596 479 618 c 0
 455 640 426 652 390 652 c 0
400 712 m 0
 452 712 495 695 528 660 c 0
 561 625 574 583 566 532 c 0
 558 481 532 438 487 403 c 0
 477 395 466 387 455 381 c 1
 472 372 485 361 499 347 c 0
 538 307 552 258 542 198 c 0
 532 138 503 88 452 48 c 0
 401 8 345 -12 285 -12 c 0
 225 -12 177 8 138 48 c 0
 99 88 84 138 94 198 c 0
 104 258 134 307 185 347 c 0
 203 361 221 372 240 381 c 1
 231 387 223 395 215 403 c 0
 182 438 168 481 176 532 c 0
 184 583 211 625 256 660 c 0
 301 695 348 712 400 712 c 0
EndSplineSet
EndChar

StartChar: nine
Encoding: 57 57 67
GlifName: nine
Width: 542
Flags: W
HStem: 0 21G<178 261.797> 253 60<230.673 373.581> 652 60<277.855 446.882>
LayerCount: 2
Fore
SplineSet
312 313 m 0
 359 313 402 329 440 362 c 0
 478 395 501 435 508 482 c 0
 515 529 507 570 479 603 c 0
 451 636 412 652 365 652 c 0
 318 652 276 636 238 603 c 0
 200 570 176 529 169 482 c 0
 162 435 171 395 199 362 c 0
 227 329 265 313 312 313 c 0
247 0 m 1
 178 0 l 1
 375 265 l 1
 350 257 325 253 302 253 c 0
 239 253 189 275 151 320 c 0
 113 364 99 419 109 482 c 0
 119 545 150 601 202 645 c 0
 254 690 312 712 375 712 c 0
 438 712 489 690 527 645 c 0
 565 601 578 545 568 482 c 0
 561 440 545 403 520 369 c 2
 247 0 l 1
EndSplineSet
EndChar

StartChar: exclam
Encoding: 33 33 68
GlifName: exclam
Width: 297
Flags: W
HStem: -14 92<118.698 189.302> 680 20G<226.844 290>
VStem: 150 60<193 253> 230 60<640 700>
LayerCount: 2
Fore
SplineSet
230 700 m 5
 290 700 l 5
 210 193 l 5
 150 193 l 5
 230 700 l 5
161 78 m 4
 174 78 184 73 192 64 c 4
 200 55 202 45 200 32 c 4
 198 19 192 9 182 0 c 4
 172 -9 160 -14 147 -14 c 4
 134 -14 124 -9 116 0 c 4
 108 9 106 19 108 32 c 4
 110 45 116 55 126 64 c 4
 136 73 148 78 161 78 c 4
EndSplineSet
EndChar

StartChar: quotedbl
Encoding: 34 34 69
GlifName: quotedbl
Width: 319
Flags: W
HStem: 510 206<171 199 295 323>
VStem: 149 216
LayerCount: 2
Fore
SplineSet
295 716 m 1
 365 716 l 1
 323 510 l 1
 273 510 l 1
 295 716 l 1
171 716 m 1
 241 716 l 1
 199 510 l 1
 149 510 l 1
 171 716 l 1
EndSplineSet
EndChar

StartChar: numbersign
Encoding: 35 35 70
GlifName: numbersign
Width: 633
Flags: W
HStem: 0 21G<99 166.635 329 396.635> 208 61<67 168 250 399 480 600> 448 60<145 249 329 479 560 680> 680 20G<326.333 394 556.333 624>
LayerCount: 2
Fore
SplineSet
563 700 m 1
 624 700 l 1
 560 508 l 1
 700 508 l 1
 680 448 l 1
 540 448 l 1
 480 269 l 1
 620 269 l 1
 600 208 l 1
 459 208 l 1
 390 0 l 1
 329 0 l 1
 399 208 l 1
 229 208 l 1
 160 0 l 1
 99 0 l 1
 168 208 l 1
 46 208 l 1
 67 269 l 1
 189 269 l 1
 249 448 l 1
 126 448 l 1
 145 508 l 1
 269 508 l 1
 333 700 l 1
 394 700 l 1
 329 508 l 1
 499 508 l 1
 563 700 l 1
479 448 m 1
 310 448 l 1
 250 269 l 1
 419 269 l 1
 479 448 l 1
EndSplineSet
EndChar

StartChar: dollar
Encoding: 36 36 71
GlifName: dollar
Width: 544
Flags: W
VStem: 78 60<98.8 129.333> 222 60<-91 -31> 361 60<731 791> 490 60<590.55 616.133>
LayerCount: 2
Fore
SplineSet
361 791 m 1
 421 791 l 1
 408 710 l 1
 441 706 471 697 494 680 c 0
 524 659 543 630 550 593 c 1
 490 572 l 1
 485 597 473 617 452 631 c 0
 431 645 404 652 369 652 c 0
 327 652 292 641 262 618 c 0
 232 595 215 566 209 531 c 0
 204 501 210 477 228 457 c 0
 248 435 282 419 331 410 c 0
 393 399 443 375 479 338 c 0
 515 301 528 255 519 199 c 0
 510 140 479 90 431 49 c 0
 391 15 345 -4 294 -10 c 1
 282 -91 l 1
 222 -91 l 1
 234 -10 l 1
 198 -6 167 6 141 26 c 0
 108 51 86 85 78 127 c 1
 138 147 l 1
 144 117 159 93 183 75 c 0
 207 57 238 48 274 48 c 0
 320 48 360 63 396 92 c 0
 432 121 452 157 459 199 c 0
 465 239 454 272 428 298 c 0
 402 324 367 342 321 350 c 0
 263 361 218 381 186 410 c 0
 154 439 141 480 149 531 c 0
 157 582 183 625 227 660 c 0
 263 689 302 705 348 710 c 1
 361 791 l 1
EndSplineSet
EndChar

StartChar: percent
Encoding: 37 37 72
GlifName: percent
Width: 862
Flags: W
HStem: -12 60<602.043 723.724> 0 21G<197.118 240.147> 244 60<626.942 747.479> 396 60<225.429 348.495> 652 60<249.152 372.369> 680 20G<733.823 776.294>
LayerCount: 2
Fore
SplineSet
700 304 m 4xb0
 743 304 779 288 805 257 c 4
 831 226 840 189 833 146 c 4
 826 103 806 66 770 35 c 4
 734 4 693 -12 650 -12 c 4
 607 -12 573 4 547 35 c 4
 521 66 510 103 517 146 c 4
 524 189 546 226 582 257 c 4
 618 288 657 304 700 304 c 4xb0
691 244 m 4
 664 244 639 234 617 215 c 4
 595 196 581 173 577 146 c 4
 573 119 579 96 595 77 c 4
 611 58 633 48 660 48 c 4
 687 48 711 58 733 77 c 4
 755 96 769 119 773 146 c 4
 777 173 771 196 755 215 c 4
 739 234 718 244 691 244 c 4
751 700 m 5x74
 794 666 l 5
 223 0 l 5
 179 34 l 5
 751 700 l 5x74
324 712 m 4x38
 367 712 401 697 427 666 c 4
 453 635 464 597 457 554 c 4
 450 511 428 473 392 442 c 4
 356 411 317 396 274 396 c 4
 231 396 196 411 170 442 c 4
 144 473 134 511 141 554 c 4
 148 597 169 635 205 666 c 4
 241 697 281 712 324 712 c 4x38
314 652 m 4
 287 652 263 643 241 624 c 4
 219 605 205 581 201 554 c 4
 197 527 203 503 219 484 c 4
 235 465 256 456 283 456 c 4
 310 456 335 465 357 484 c 4
 379 503 393 527 397 554 c 4
 401 581 395 605 379 624 c 4
 363 643 341 652 314 652 c 4
EndSplineSet
EndChar

StartChar: ampersand
Encoding: 38 38 73
GlifName: ampersand
Width: 647
Flags: W
HStem: -12 60<194.913 389.69> 0 21G<538.389 630> 652 60<324.927 449.933>
LayerCount: 2
Fore
SplineSet
262 -12 m 0xa0
 206 -12 162 5 128 39 c 0
 94 73 81 115 89 167 c 0
 95 203 111 236 137 269 c 0
 165 304 202 337 252 368 c 0
 290 391 319 410 342 424 c 0
 372 443 390 455 393 457 c 0
 443 492 470 526 475 559 c 0
 480 588 471 610 454 627 c 0
 437 644 415 652 388 652 c 0
 362 652 339 642 316 624 c 0
 293 606 281 585 277 561 c 0
 274 539 278 516 294 494 c 6
 630 0 l 1
 552 0 l 1x60
 241 457 l 2
 219 490 211 524 217 561 c 0
 224 604 246 640 282 669 c 0
 318 698 356 712 398 712 c 0
 444 712 480 697 506 668 c 0
 532 639 542 603 535 559 c 0
 531 534 520 509 503 486 c 0
 488 464 465 443 439 422 c 0
 423 410 403 397 377 380 c 0
 350 362 319 342 280 319 c 0
 238 294 206 268 184 241 c 0
 164 217 153 192 149 167 c 0
 143 130 155 101 180 80 c 0
 205 59 235 48 272 48 c 0
 312 48 346 53 379 65 c 0
 411 77 440 95 466 118 c 0
 521 167 562 231 588 309 c 1
 648 309 l 1
 614 207 567 130 505 76 c 0
 472 47 434 25 390 10 c 0
 346 -5 303 -12 262 -12 c 0xa0
EndSplineSet
EndChar

StartChar: quotesingle
Encoding: 39 39 74
GlifName: quotesingle
Width: 195
Flags: W
HStem: 510 206<176 204>
VStem: 154 92
LayerCount: 2
Fore
SplineSet
176 716 m 1
 246 716 l 1
 204 510 l 1
 154 510 l 1
 176 716 l 1
EndSplineSet
EndChar

StartChar: parenleft
Encoding: 40 40 75
GlifName: parenleft
Width: 325
Flags: W
LayerCount: 2
Fore
SplineSet
357 799 m 1
 393 757 l 1
 336 701 289 638 252 567 c 0
 215 496 190 424 178 350 c 0
 166 276 168 204 183 134 c 0
 198 64 225 0 263 -56 c 1
 214 -99 l 1
 170 -37 140 33 123 110 c 0
 106 187 105 267 118 350 c 0
 131 433 158 512 199 589 c 0
 240 666 293 737 357 799 c 1
EndSplineSet
EndChar

StartChar: parenright
Encoding: 41 41 76
GlifName: parenright
Width: 325
Flags: W
LayerCount: 2
Fore
SplineSet
223 799 m 1
 267 737 296 666 313 589 c 0
 330 512 331 433 318 350 c 0
 305 267 278 187 237 110 c 0
 196 33 144 -37 80 -99 c 1
 80 -99 80 -99 45 -56 c 1
 101 0 148 64 185 134 c 0
 222 204 246 276 258 350 c 0
 270 424 269 496 254 567 c 0
 239 638 212 701 173 757 c 5
 173 757 173 757 223 799 c 1
EndSplineSet
EndChar

StartChar: asterisk
Encoding: 42 42 77
GlifName: asterisk
Width: 481
Flags: W
HStem: 571 57<476.941 492.105>
VStem: 324 60<656 716>
LayerCount: 2
Fore
SplineSet
162 571 m 1
 189 628 l 1
 341 577 l 1
 314 520 l 1
 162 571 l 1
230 395 m 1
 186 430 l 1
 306 565 l 1
 349 530 l 1
 230 395 l 1
432 430 m 1
 378 395 l 1
 301 530 l 1
 354 565 l 1
 432 430 l 1
491 628 m 1
 500 571 l 1
 332 520 l 1
 323 577 l 1
 491 628 l 1
324 716 m 1
 384 716 l 1
 358 548 l 1
 298 548 l 5
 324 716 l 1
EndSplineSet
EndChar

StartChar: plus
Encoding: 43 43 78
GlifName: plus
Width: 625
Flags: W
HStem: 269 60<140 326 395 581>
VStem: 295 60<73 133> 366 60<463 523>
LayerCount: 2
Fore
SplineSet
366 523 m 1
 426 523 l 1
 395 329 l 1
 590 329 l 1
 581 269 l 1
 386 269 l 1
 355 73 l 1
 295 73 l 1
 326 269 l 1
 131 269 l 1
 140 329 l 1
 335 329 l 1
 366 523 l 1
EndSplineSet
EndChar

StartChar: comma
Encoding: 44 44 79
GlifName: comma
Width: 209
Flags: W
HStem: -116 202
VStem: 117 61<25 86>
LayerCount: 2
Fore
SplineSet
117 86 m 5
 178 86 l 5
 166 9 137 -59 91 -116 c 5
 30 -116 l 5
 77 -55 105 12 117 86 c 5
EndSplineSet
EndChar

StartChar: hyphen
Encoding: 45 45 80
GlifName: hyphen
Width: 425
Flags: W
HStem: 268 60<115 405>
VStem: 105 310
LayerCount: 2
Fore
SplineSet
105 268 m 1
 115 328 l 1
 415 328 l 1
 405 268 l 1
 105 268 l 1
EndSplineSet
EndChar

StartChar: period
Encoding: 46 46 81
GlifName: period
Width: 197
Flags: W
HStem: -14 92<68.6981 138.681>
LayerCount: 2
Fore
SplineSet
150 32 m 0
 148 19 141 9 131 0 c 0
 121 -9 110 -14 97 -14 c 0
 84 -14 74 -9 66 0 c 0
 58 9 56 19 58 32 c 0
 60 45 66 55 76 64 c 0
 86 73 98 78 111 78 c 0
 124 78 133 73 141 64 c 0
 149 55 152 45 150 32 c 0
EndSplineSet
EndChar

StartChar: slash
Encoding: 47 47 82
GlifName: slash
Width: 361
Flags: W
LayerCount: 2
Fore
SplineSet
406 747 m 5
 459 727 l 5
 62 -84 l 5
 8 -64 l 5
 406 747 l 5
EndSplineSet
EndChar

StartChar: colon
Encoding: 58 58 83
GlifName: colon
Width: 239
Flags: W
HStem: -2 92<92.1514 162.681> 410 92<155.698 226.061>
LayerCount: 2
Fore
SplineSet
184 410 m 256
 171 410 161 414 153 423 c 0
 145 432 143 443 145 456 c 256
 147 469 153 479 163 488 c 0
 173 497 186 502 199 502 c 256
 212 502 220 497 228 488 c 0
 236 479 239 469 237 456 c 256
 235 443 228 432 218 423 c 0
 208 414 197 410 184 410 c 256
121 -2 m 256
 108 -2 98 3 90 12 c 0
 82 21 80 31 82 44 c 256
 84 57 90 68 100 77 c 0
 110 86 122 90 135 90 c 256
 148 90 157 86 165 77 c 0
 173 68 176 57 174 44 c 256
 172 31 165 21 155 12 c 0
 145 3 134 -2 121 -2 c 256
EndSplineSet
EndChar

StartChar: semicolon
Encoding: 59 59 84
GlifName: semicolon
Width: 243
Flags: W
HStem: 410 92<161.698 232.061>
VStem: 117 61<25 86>
LayerCount: 2
Fore
SplineSet
117 86 m 5
 178 86 l 5
 166 9 137 -59 91 -116 c 5
 30 -116 l 5
 77 -55 105 12 117 86 c 5
190 410 m 0
 177 410 167 414 159 423 c 0
 151 432 149 443 151 456 c 0
 153 469 159 479 169 488 c 0
 179 497 192 502 205 502 c 0
 218 502 226 497 234 488 c 0
 242 479 245 469 243 456 c 0
 241 443 234 432 224 423 c 0
 214 414 203 410 190 410 c 0
EndSplineSet
EndChar

StartChar: less
Encoding: 60 60 85
GlifName: less
Width: 625
Flags: W
LayerCount: 2
Fore
SplineSet
550 489 m 1
 540 423 l 1
 258 298 l 1
 500 173 l 1
 490 106 l 1
 184 265 l 1
 194 331 l 1
 550 489 l 1
EndSplineSet
EndChar

StartChar: equal
Encoding: 61 61 86
GlifName: equal
Width: 625
Flags: W
HStem: 167 61<149 539> 368 60<181 571>
LayerCount: 2
Fore
SplineSet
171 368 m 1
 181 428 l 1
 581 428 l 1
 571 368 l 1
 171 368 l 1
139 167 m 1
 149 228 l 1
 549 228 l 1
 539 167 l 1
 139 167 l 1
EndSplineSet
EndChar

StartChar: greater
Encoding: 62 62 87
GlifName: greater
Width: 625
Flags: W
LayerCount: 2
Fore
SplineSet
230 489 m 1
 220 423 l 1
 462 298 l 1
 180 173 l 1
 170 106 l 5
 526 265 l 5
 536 331 l 1
 230 489 l 1
EndSplineSet
EndChar

StartChar: question
Encoding: 63 63 88
GlifName: question
Width: 504
Flags: W
HStem: -14 92<192.319 261.681> 652 60<265.568 417.877>
VStem: 181 92<0.422615 63.5774> 219 60<183 243>
LayerCount: 2
Fore
SplineSet
273 32 m 4xe0
 271 19 264 9 254 0 c 4
 244 -9 233 -14 220 -14 c 4
 207 -14 198 -9 190 0 c 4
 182 9 179 19 181 32 c 4
 183 45 190 55 200 64 c 4
 210 73 221 78 234 78 c 4
 247 78 256 73 264 64 c 4
 272 55 275 45 273 32 c 4xe0
355 712 m 4
 413 712 459 691 494 650 c 4
 529 609 541 560 532 502 c 4
 526 462 508 426 481 392 c 4
 454 358 421 332 381 314 c 4
 355 302 332 285 313 261 c 4
 294 237 283 211 279 183 c 5
 219 183 l 5xd0
 225 223 242 259 268 293 c 4
 294 327 326 352 365 369 c 4
 393 381 416 400 436 424 c 4
 456 448 468 474 472 502 c 4
 478 543 469 577 444 607 c 4
 419 637 386 652 345 652 c 4
 311 652 278 641 248 620 c 4
 218 599 195 572 182 539 c 5
 125 549 l 5
 143 596 173 636 216 666 c 4
 259 696 306 712 355 712 c 4
EndSplineSet
EndChar

StartChar: at
Encoding: 64 64 89
GlifName: at
Width: 993
Flags: W
HStem: -213 62<364.07 625.285> -83 62<763.547 828.831> 13 63<447.571 618.263> 426 63<495.89 665.961> 653 62<487 749.403>
LayerCount: 2
Fore
SplineSet
630 715 m 0
 692 715 749 703 802 680 c 0
 855 657 901 622 937 579 c 0
 973 536 1000 486 1014 429 c 0
 1028 372 1031 313 1021 251 c 0
 1012 193 994 138 966 87 c 4
 941 40 908 -4 866 -46 c 0
 841 -71 813 -83 782 -83 c 0
 754 -83 731 -73 714 -53 c 0
 697 -33 691 -9 695 19 c 2
 706 90 l 1
 651 39 588 13 519 13 c 0
 453 13 401 37 362 83 c 0
 323 129 309 185 319 251 c 0
 329 317 362 373 415 419 c 0
 468 465 528 489 594 489 c 0
 660 489 713 465 752 419 c 0
 791 373 805 317 795 251 c 2
 758 19 l 2
 756 8 759 -1 766 -9 c 0
 773 -17 781 -21 792 -21 c 0
 804 -21 815 -15 824 -6 c 0
 899 69 945 154 960 251 c 0
 968 304 966 356 953 405 c 0
 940 454 919 498 887 536 c 0
 855 574 816 602 770 623 c 0
 724 644 673 653 620 653 c 0
 547 653 478 636 410 600 c 0
 342 564 287 515 241 453 c 0
 195 391 166 324 154 251 c 0
 146 198 147 146 160 97 c 0
 173 48 195 4 227 -34 c 0
 259 -72 298 -100 344 -121 c 0
 390 -142 440 -151 493 -151 c 0
 541 -151 590 -143 639 -125 c 1
 652 -182 l 1
 595 -203 539 -213 483 -213 c 0
 421 -213 364 -201 311 -178 c 0
 258 -155 213 -120 177 -77 c 0
 141 -34 114 16 100 73 c 0
 86 130 83 189 93 251 c 0
 103 313 124 372 156 429 c 0
 188 486 231 536 281 579 c 0
 331 622 386 657 447 680 c 0
 508 703 568 715 630 715 c 0
584 426 m 0
 536 426 492 409 453 375 c 0
 414 341 390 299 382 251 c 0
 374 203 385 161 414 127 c 0
 443 93 481 76 529 76 c 0
 577 76 622 93 661 127 c 0
 700 161 724 203 732 251 c 0
 740 299 729 341 700 375 c 0
 671 409 632 426 584 426 c 0
EndSplineSet
EndChar

StartChar: braceleft
Encoding: 123 123 90
GlifName: braceleft
Width: 387
Flags: W
HStem: -100 60<270.949 309> 320 60<123 173.854> 740 60<387.146 442>
CounterMasks: 1 e0
LayerCount: 2
Fore
SplineSet
309 -100 m 1
 257 -100 221 -77 201 -32 c 0
 181 16 177 89 193 188 c 0
 200 232 197 266 183 288 c 0
 169 309 147 320 114 320 c 1
 123 380 l 1
 160 380 189 393 210 420 c 0
 227 442 238 472 244 512 c 0
 260 612 286 686 323 734 c 0
 357 778 400 800 452 800 c 1
 442 740 l 1
 411 739 385 723 363 692 c 0
 336 654 317 595 304 513 c 0
 295 459 278 416 252 386 c 0
 240 371 225 359 208 350 c 1
 216 345 224 338 230 330 c 0
 255 299 263 252 253 187 c 0
 239 98 241 35 259 -2 c 0
 271 -26 292 -39 319 -40 c 1
 309 -100 l 1
EndSplineSet
EndChar

StartChar: bar
Encoding: 124 124 91
GlifName: bar
Width: 263
Flags: W
VStem: 67 60<-220 -160> 227 60<730 790>
LayerCount: 2
Fore
SplineSet
227 790 m 1
 287 790 l 1
 127 -220 l 1
 67 -220 l 1
 227 790 l 1
EndSplineSet
EndChar

StartChar: braceright
Encoding: 125 125 92
GlifName: braceright
Width: 387
Flags: W
HStem: -100 60<57 110.489> 320 60<324.551 376> 740 60<190 227.877>
CounterMasks: 1 e0
LayerCount: 2
Fore
SplineSet
47 -100 m 1
 99 -100 143 -77 177 -32 c 0
 213 16 239 89 255 188 c 0
 262 232 277 266 297 288 c 0
 317 309 343 320 376 320 c 5
 385 380 l 5
 348 380 325 393 312 420 c 0
 301 442 300 472 306 512 c 0
 322 612 318 686 297 734 c 0
 277 778 242 800 190 800 c 1
 180 740 l 1
 211 739 232 723 244 692 c 0
 259 654 259 595 246 513 c 0
 237 459 241 416 257 386 c 0
 265 371 275 359 290 350 c 1
 280 345 270 338 262 330 c 0
 227 299 205 252 195 187 c 0
 181 98 158 35 128 -2 c 0
 108 -26 84 -39 57 -40 c 1
 47 -100 l 1
EndSplineSet
EndChar

StartChar: asciitilde
Encoding: 126 126 93
GlifName: asciitilde
Width: 534
Flags: W
HStem: 237 60<359.266 444.99> 336 60<189.488 276.518>
VStem: 105 60<265 315.239> 470 60<317.422 368>
LayerCount: 2
Fore
SplineSet
243 396 m 0
 280 396 313 377 341 340 c 0
 349 331 355 323 361 317 c 0
 374 303 388 297 401 297 c 0
 419 297 433 302 442 311 c 0
 454 322 464 341 470 368 c 1
 530 368 l 1
 517 320 496 284 470 263 c 0
 448 246 423 237 392 237 c 0
 356 237 323 255 296 291 c 0
 283 309 271 321 259 328 c 0
 250 333 241 336 233 336 c 0
 215 336 203 331 192 321 c 0
 180 310 171 291 165 265 c 1
 105 265 l 1
 117 313 136 348 162 369 c 0
 184 387 211 396 243 396 c 0
EndSplineSet
EndChar

StartChar: exclamdown
Encoding: 161 161 94
GlifName: exclamdown
Width: 297
Flags: W
HStem: 420 92<187.151 258.302>
VStem: 87 60<-202 -142> 167 60<245 305>
LayerCount: 2
Fore
SplineSet
216 420 m 0
 229 420 241 425 251 434 c 0
 261 443 267 453 269 466 c 0
 271 479 269 490 261 499 c 0
 253 508 243 512 230 512 c 0
 217 512 205 508 195 499 c 0
 185 490 179 479 177 466 c 0
 175 453 177 443 185 434 c 0
 193 425 203 420 216 420 c 0
87 -202 m 1
 147 -202 l 1
 227 305 l 1
 167 305 l 1
 87 -202 l 1
EndSplineSet
EndChar

StartChar: cent
Encoding: 162 162 95
GlifName: cent
Width: 499
Flags: W
HStem: 0 21G<248 310.182> 92 61<225.273 263 331 414.577> 551 61<404 464.046> 680 20G<355.739 418>
VStem: 248 59<0 59> 359 59<641 700>
LayerCount: 2
Fore
SplineSet
404 612 m 1
 467 609 516 583 552 537 c 1
 504 493 l 1
 479 528 441 548 394 551 c 1
 331 149 l 1
 378 152 422 172 459 207 c 1
 493 163 l 1
 443 117 384 91 321 88 c 1
 307 0 l 1
 248 0 l 1
 263 92 l 1
 213 101 173 124 143 164 c 0
 105 215 91 276 103 350 c 0
 115 424 148 485 202 536 c 0
 244 576 292 599 344 608 c 1
 359 700 l 1
 418 700 l 1
 404 612 l 1
334 546 m 1
 298 538 265 521 237 494 c 0
 197 455 172 407 163 350 c 0
 154 293 164 246 192 207 c 0
 212 180 238 161 272 153 c 1
 334 546 l 1
EndSplineSet
EndChar

StartChar: sterling
Encoding: 163 163 96
GlifName: sterling
Width: 575
Flags: W
HStem: 0 63<63 121.219 181 522> 287 63<108 178 252 440> 648 64<354.42 497.805>
VStem: 541 64<517 581>
LayerCount: 2
Fore
SplineSet
532 63 m 1
 522 0 l 1
 53 0 l 1
 63 63 l 1
 85 63 104 70 123 86 c 0
 142 102 153 121 156 143 c 2
 178 287 l 1
 98 287 l 1
 108 350 l 1
 188 350 l 1
 215 517 l 2
 224 571 250 617 294 655 c 0
 338 693 387 712 441 712 c 0
 495 712 538 693 570 655 c 0
 602 617 614 571 605 517 c 1
 541 517 l 1
 547 553 538 583 516 609 c 0
 494 635 467 648 431 648 c 0
 395 648 361 635 331 609 c 0
 301 583 285 553 279 517 c 2
 252 350 l 1
 450 350 l 1
 440 287 l 1
 242 287 l 1
 220 143 l 2
 216 115 202 88 181 63 c 1
 532 63 l 1
EndSplineSet
EndChar

StartChar: currency
Encoding: 164 164 97
GlifName: currency
Width: 544
Flags: W
HStem: 192 60<254.871 377.812> 448 60<278.215 401.155>
VStem: 169 60<281.894 399.357> 426 60<298.979 418.106>
LayerCount: 2
Fore
SplineSet
408 419 m 0
 392 438 371 448 344 448 c 0
 317 448 291 438 269 419 c 0
 247 400 233 377 229 350 c 0
 225 323 232 300 248 281 c 0
 264 262 286 252 313 252 c 0
 340 252 365 262 387 281 c 0
 409 300 422 323 426 350 c 0
 430 377 424 400 408 419 c 0
506 540 m 1
 541 497 l 1
 472 438 l 1
 486 412 491 383 486 350 c 0
 481 317 466 287 444 261 c 1
 494 203 l 1
 446 161 l 1
 396 219 l 1
 367 201 336 192 303 192 c 0
 270 192 242 201 219 219 c 1
 152 161 l 1
 115 203 l 1
 182 261 l 1
 168 287 164 317 169 350 c 0
 174 383 188 412 210 438 c 1
 162 497 l 1
 212 540 l 1
 260 481 l 1
 289 499 320 508 353 508 c 0
 386 508 414 499 437 481 c 1
 506 540 l 1
EndSplineSet
EndChar

StartChar: yen
Encoding: 165 165 98
GlifName: yen
Width: 521
Flags: W
HStem: 0 21G<231 294.172> 145 60<123 254 323 454> 282 60<145 260 370 476> 692 20G<126 201.205 540.455 622>
VStem: 231 60<0 60>
LayerCount: 2
Fore
SplineSet
136 282 m 1
 145 342 l 1
 260 342 l 1
 126 712 l 1
 194 712 l 1
 319 365 l 1
 554 712 l 1
 622 712 l 1
 370 342 l 1
 485 342 l 1
 476 282 l 1
 336 282 l 1
 323 205 l 1
 463 205 l 1
 454 145 l 1
 314 145 l 1
 291 0 l 1
 231 0 l 1
 254 145 l 1
 114 145 l 1
 123 205 l 1
 263 205 l 1
 276 282 l 1
 136 282 l 1
EndSplineSet
EndChar

StartChar: brokenbar
Encoding: 166 166 99
GlifName: brokenbar
Width: 265
Flags: W
VStem: 68 60<-220 -160> 138 60<160 220> 158 60<350 410> 228 60<730 790>
LayerCount: 2
Fore
SplineSet
68 -220 m 1xd0
 138 220 l 1
 198 220 l 1
 128 -220 l 1
 68 -220 l 1xd0
158 350 m 1xb0
 228 790 l 1
 288 790 l 1
 218 350 l 1
 158 350 l 1xb0
EndSplineSet
EndChar

StartChar: section
Encoding: 167 167 100
GlifName: section
Width: 531
Flags: W
HStem: -90 57<196.904 330.344> 158 57<236.029 354.014> 407 57<275.986 393.971> 655 57<298.766 432.268>
VStem: 114 57<-7.43572 62> 461 56<560 626.107>
LayerCount: 2
Fore
SplineSet
379 712 m 0
 423 712 460 697 487 667 c 0
 514 637 524 602 517 560 c 1
 461 560 l 1
 465 586 457 608 439 627 c 0
 421 646 399 655 370 655 c 0
 341 655 314 646 290 627 c 0
 266 608 254 586 250 560 c 0
 246 534 251 511 269 492 c 0
 287 473 310 464 339 464 c 0
 383 464 420 449 447 419 c 0
 474 389 485 353 478 311 c 0
 471 269 450 233 413 203 c 0
 406 197 398 192 390 187 c 1
 396 182 403 176 408 170 c 0
 435 140 445 104 438 62 c 0
 431 20 411 -15 374 -45 c 0
 337 -75 296 -90 252 -90 c 0
 208 -90 171 -75 144 -45 c 0
 117 -15 107 20 114 62 c 1
 171 62 l 1
 167 36 172 14 190 -5 c 0
 208 -24 232 -33 261 -33 c 0
 290 -33 315 -24 339 -5 c 0
 363 14 378 36 382 62 c 0
 386 88 379 111 361 130 c 0
 343 149 320 158 291 158 c 0
 247 158 210 173 183 203 c 0
 156 233 145 269 152 311 c 0
 159 353 180 389 217 419 c 0
 224 425 232 431 240 436 c 1
 234 441 228 446 223 452 c 0
 196 482 186 518 193 560 c 0
 200 602 220 637 257 667 c 0
 294 697 335 712 379 712 c 0
330 407 m 0
 301 407 275 398 251 379 c 0
 227 360 213 338 209 311 c 0
 205 284 211 262 229 243 c 0
 247 224 271 215 300 215 c 0
 329 215 355 224 379 243 c 0
 403 262 417 284 421 311 c 0
 425 338 419 360 401 379 c 0
 383 398 359 407 330 407 c 0
EndSplineSet
EndChar

StartChar: dieresis
Encoding: 168 168 101
GlifName: dieresis
Width: 427
Flags: W
HStem: 630 80<167.329 232.335 409.329 473.67>
VStem: 401 80<642.376 698.624>
LayerCount: 2
Fore
SplineSet
205 710 m 4
 216 710 226 707 233 699 c 4
 240 691 241 681 239 670 c 4
 237 659 233 650 224 642 c 4
 215 634 204 630 193 630 c 4
 182 630 174 634 167 642 c 4
 160 650 157 659 159 670 c 4
 161 681 167 691 176 699 c 4
 185 707 194 710 205 710 c 4
447 710 m 4
 458 710 467 707 474 699 c 4
 481 691 483 681 481 670 c 4
 479 659 474 650 465 642 c 4
 456 634 446 630 435 630 c 4
 424 630 416 634 409 642 c 4
 402 650 399 659 401 670 c 4
 403 681 409 691 418 699 c 4
 427 707 436 710 447 710 c 4
EndSplineSet
EndChar

StartChar: copyright
Encoding: 169 169 102
GlifName: copyright
Width: 828
Flags: W
HStem: -11 60<311.632 538.477> 152 60<386.864 525.085> 488 60<423.049 562.372> 652 60<401.922 627.274>
LayerCount: 2
Fore
SplineSet
528 712 m 0
 593 712 650 696 701 664 c 0
 752 632 789 588 812 532 c 0
 835 476 842 416 832 351 c 0
 822 286 796 225 755 169 c 0
 714 113 663 70 602 38 c 0
 541 6 478 -11 413 -11 c 0
 348 -11 290 6 239 38 c 0
 188 70 151 113 128 169 c 0
 105 225 99 286 109 351 c 0
 119 416 144 476 185 532 c 0
 226 588 277 632 338 664 c 0
 399 696 463 712 528 712 c 0
518 652 m 0
 435 652 358 622 290 563 c 0
 222 504 182 434 169 351 c 0
 156 268 173 196 223 137 c 0
 273 78 340 49 423 49 c 0
 506 49 582 78 650 137 c 0
 718 196 759 268 772 351 c 0
 785 434 767 504 717 563 c 0
 667 622 601 652 518 652 c 0
506 548 m 0
 559 548 600 529 629 491 c 1
 579 448 l 1
 560 475 533 488 496 488 c 0
 459 488 427 474 400 448 c 0
 373 422 355 389 349 350 c 0
 343 311 350 278 369 252 c 0
 388 226 416 212 453 212 c 0
 490 212 521 225 548 252 c 1
 584 208 l 1
 543 170 496 152 443 152 c 0
 389 152 348 171 319 209 c 0
 290 247 280 294 289 350 c 0
 298 406 323 453 364 491 c 0
 405 529 452 548 506 548 c 0
EndSplineSet
EndChar

StartChar: ordfeminine
Encoding: 170 170 103
GlifName: ordfeminine
Width: 377
Flags: W
HStem: 393 55<200.346 318.015> 651 56<225.019 344.38> 680 20G<388.585 444>
VStem: 122 322
LayerCount: 2
Fore
SplineSet
392 700 m 1xb0
 444 700 l 1xb0
 396 400 l 1
 344 400 l 1
 351 439 l 1
 323 408 287 393 244 393 c 0
 202 393 168 408 145 438 c 0
 122 469 115 506 122 550 c 0
 129 594 148 632 181 662 c 0
 214 692 251 707 294 707 c 0xd0
 336 707 367 691 385 659 c 5
 392 700 l 1xb0
288 651 m 0xd0
 260 651 237 642 216 622 c 0
 195 602 183 579 178 550 c 0
 173 521 178 498 193 478 c 0
 208 458 228 448 256 448 c 0
 283 448 308 458 328 478 c 0
 348 498 359 521 364 550 c 0
 369 579 365 602 351 622 c 0
 337 642 315 651 288 651 c 0xd0
EndSplineSet
EndChar

StartChar: guillemotleft
Encoding: 171 171 104
GlifName: guillemotleft
Width: 555
Flags: W
LayerCount: 2
Fore
SplineSet
357 515 m 5
 393 473 l 5
 190 298 l 5
 338 124 l 5
 288 81 l 5
 105 298 l 5
 357 515 l 5
534 515 m 5
 570 473 l 5
 367 298 l 5
 515 124 l 5
 465 81 l 5
 282 298 l 5
 534 515 l 5
EndSplineSet
EndChar

StartChar: logicalnot
Encoding: 172 172 105
GlifName: logicalnot
Width: 625
Flags: W
HStem: 296 60<189 480>
VStem: 465 60<201 261>
LayerCount: 2
Fore
SplineSet
180 296 m 1
 189 356 l 1
 549 356 l 5
 525 201 l 5
 465 201 l 1
 480 296 l 1
 180 296 l 1
EndSplineSet
EndChar

StartChar: uni00AD
Encoding: 173 173 106
GlifName: uni00A_D_
Width: 425
Flags: W
HStem: 268 60<115 405>
VStem: 105 310
LayerCount: 2
Fore
SplineSet
105 268 m 1
 115 328 l 1
 415 328 l 1
 405 268 l 1
 105 268 l 1
EndSplineSet
EndChar

StartChar: registered
Encoding: 174 174 107
GlifName: registered
Width: 631
Flags: W
HStem: 176 60<263.945 449.816> 531 59<372 437.763> 652 60<322.753 508.706>
VStem: 275 60<297 357> 407 64<297 361> 443 60<479.237 521.764>
LayerCount: 2
Fore
SplineSet
429 712 m 0xf0
 503 712 561 685 605 633 c 0
 649 581 666 518 654 444 c 0
 642 370 605 306 545 254 c 0
 485 202 418 176 344 176 c 0
 270 176 211 202 167 254 c 0
 123 306 106 370 118 444 c 0
 130 518 167 581 227 633 c 0
 287 685 355 712 429 712 c 0xf0
419 652 m 0
 362 652 310 632 263 591 c 0
 216 550 187 501 178 444 c 0
 169 387 181 338 216 297 c 0
 251 256 296 236 353 236 c 0
 410 236 463 256 510 297 c 0
 557 338 585 387 594 444 c 0
 603 501 592 550 557 591 c 0
 522 632 476 652 419 652 c 0
321 590 m 1
 429 590 l 2
 452 590 472 581 487 563 c 0
 502 545 507 524 503 501 c 0xf4
 500 480 491 462 479 447 c 0
 467 432 453 421 439 415 c 1
 471 297 l 1
 407 297 l 1xf8
 376 411 l 1
 353 411 l 1
 335 297 l 1
 275 297 l 1
 321 590 l 1
372 531 m 1
 363 471 l 1
 407 471 l 2xf8
 416 471 424 474 431 479 c 0
 438 484 442 492 443 501 c 0
 444 510 443 517 438 522 c 0
 433 527 425 531 416 531 c 2
 372 531 l 1
EndSplineSet
EndChar

StartChar: macron
Encoding: 175 175 108
GlifName: macron
Width: 305
Flags: W
HStem: 580 60<104 395>
VStem: 95 309
LayerCount: 2
Fore
SplineSet
95 580 m 1
 104 640 l 1
 404 640 l 1
 395 580 l 1
 95 580 l 1
EndSplineSet
EndChar

StartChar: degree
Encoding: 176 176 109
GlifName: degree
Width: 370
Flags: W
HStem: 453 60<218.904 322.497> 658 59<235.037 337.71>
VStem: 146 265
LayerCount: 2
Fore
SplineSet
300 717 m 0
 337 717 365 705 387 679 c 0
 409 653 417 622 411 585 c 0
 405 548 387 517 357 491 c 0
 327 465 295 453 258 453 c 0
 221 453 192 465 170 491 c 0
 148 517 140 548 146 585 c 0
 152 622 170 653 200 679 c 0
 230 705 263 717 300 717 c 0
290 658 m 0
 270 658 251 650 235 636 c 0
 219 622 209 605 206 585 c 0
 203 565 207 548 219 534 c 0
 231 520 247 513 267 513 c 0
 287 513 306 520 322 534 c 0
 338 548 348 565 351 585 c 0
 354 605 350 622 338 636 c 0
 326 650 310 658 290 658 c 0
EndSplineSet
EndChar

StartChar: plusminus
Encoding: 177 177 110
GlifName: plusminus
Width: 625
Flags: W
HStem: 0 60<98 538> 312 61<177 332 402 557>
VStem: 305 60<139 199> 370 60<487 547>
LayerCount: 2
Fore
SplineSet
88 0 m 1
 98 60 l 1
 548 60 l 1
 538 0 l 1
 88 0 l 1
167 312 m 1
 177 373 l 1
 342 373 l 1
 370 547 l 1
 430 547 l 1
 402 373 l 1
 567 373 l 1
 557 312 l 1
 392 312 l 1
 365 139 l 1
 305 139 l 1
 332 312 l 1
 167 312 l 1
EndSplineSet
EndChar

StartChar: uni00B2
Encoding: 178 178 111
GlifName: uni00B_2
Width: 364
Flags: W
HStem: 379 60<191 363> 747 60<232.478 334.765>
VStem: 97 311
LayerCount: 2
Fore
SplineSet
296 807 m 0
 333 807 363 794 385 769 c 0
 407 744 414 712 408 676 c 0
 403 644 383 612 349 581 c 2
 191 439 l 1
 373 439 l 1
 363 379 l 1
 97 379 l 1
 107 439 l 1
 312 622 l 2
 335 643 346 660 349 676 c 0
 352 698 346 715 334 728 c 0
 322 741 307 747 288 747 c 0
 270 747 255 741 240 731 c 0
 225 721 216 708 209 692 c 1
 153 705 l 1
 163 734 181 758 208 778 c 0
 235 798 265 807 296 807 c 0
EndSplineSet
EndChar

StartChar: uni00B3
Encoding: 179 179 112
GlifName: uni00B_3
Width: 359
Flags: W
HStem: 373 60<197.065 312.787> 570 60<247 323.388> 711 21G<177 234> 747 60<241.968 346.866>
VStem: 339 60<458.566 551.387>
LayerCount: 2
Fore
SplineSet
309 807 m 0
 344 807 371 795 393 773 c 0
 415 751 422 723 417 690 c 0
 415 675 407 660 397 645 c 0
 387 630 372 617 353 603 c 1
 369 591 381 577 389 561 c 0
 399 542 402 522 399 501 c 0
 393 465 375 435 344 410 c 0
 313 385 279 373 241 373 c 0
 213 373 189 380 168 395 c 0
 147 410 132 429 127 452 c 1
 187 472 l 1
 191 460 199 450 211 443 c 0
 223 436 237 433 252 433 c 0
 273 433 293 439 310 452 c 0
 327 465 336 481 339 501 c 0
 342 521 338 539 324 552 c 0
 311 564 295 570 273 570 c 2
 237 570 l 1
 247 630 l 1
 283 630 l 2
 300 630 315 636 331 647 c 0
 346 658 355 673 358 690 c 0
 361 708 356 721 345 731 c 0
 334 741 319 747 300 747 c 0
 284 747 271 744 258 737 c 0
 246 731 237 722 231 711 c 1
 177 730 l 1
 188 752 207 772 231 786 c 0
 255 800 283 807 309 807 c 0
EndSplineSet
EndChar

StartChar: acute
Encoding: 180 180 113
GlifName: acute
Width: 210
Flags: W
HStem: 574 126
VStem: 95 218
LayerCount: 2
Fore
SplineSet
95 574 m 1
 224 700 l 1
 313 700 l 1
 171 574 l 1
 95 574 l 1
EndSplineSet
EndChar

StartChar: mu
Encoding: 181 181 114
GlifName: mu
Width: 559
Flags: W
HStem: -200 21G<31 94.1939> -12 60<209.685 358.536> 0 21G<422 485.16> 480 20G<138.829 202 497.866 561>
VStem: 31 60<-200 -140> 142 60<440 500> 422 60<0 60> 501 60<440 500>
LayerCount: 2
Fore
SplineSet
561 500 m 1xdf
 482 0 l 1
 422 0 l 1xbf
 432 63 l 1
 387 13 333 -12 271 -12 c 0
 209 -12 162 13 133 63 c 1
 91 -200 l 1
 31 -200 l 1
 142 500 l 5
 202 500 l 5
 160 232 l 2
 151 175 159 131 182 98 c 0
 205 65 238 48 281 48 c 0
 324 48 362 65 395 98 c 0
 428 131 450 175 459 232 c 2
 501 500 l 1
 561 500 l 1xdf
EndSplineSet
EndChar

StartChar: paragraph
Encoding: 182 182 115
GlifName: paragraph
Width: 536
Flags: W
HStem: 640 60<421 475>
VStem: 247 60<-84 -24> 361 60<-84 -24>
LayerCount: 2
Fore
SplineSet
361 700 m 2
 371 700 l 1
 545 700 l 1
 421 -84 l 1
 361 -84 l 1
 475 640 l 1
 421 640 l 1
 307 -84 l 1
 247 -84 l 1
 302 266 l 1
 292 266 l 2
 232 266 183 288 148 330 c 0
 113 372 100 423 110 483 c 0
 120 543 148 595 197 637 c 0
 246 679 301 700 361 700 c 2
EndSplineSet
EndChar

StartChar: periodcentered
Encoding: 183 183 116
GlifName: periodcentered
Width: 257
Flags: W
HStem: 275 92<144.151 215.302>
VStem: 134 92
LayerCount: 2
Fore
SplineSet
226 321 m 0
 224 308 218 298 208 289 c 0
 198 280 186 275 173 275 c 0
 160 275 150 280 142 289 c 0
 134 298 132 308 134 321 c 0
 136 334 142 345 152 354 c 0
 162 363 174 367 187 367 c 0
 200 367 210 363 218 354 c 0
 226 345 228 334 226 321 c 0
EndSplineSet
EndChar

StartChar: cedilla
Encoding: 184 184 117
GlifName: cedilla
Width: 211
Flags: W
HStem: -210 57<5.07165 125.676>
VStem: -22 243
LayerCount: 2
Fore
SplineSet
192 33 m 1
 218 5 227 -29 221 -70 c 0
 215 -109 195 -142 164 -169 c 0
 133 -196 98 -210 59 -210 c 0
 27 -210 0 -201 -22 -181 c 1
 7 -152 22 -137 22 -137 c 5
 34 -147 50 -153 68 -153 c 0
 90 -153 111 -144 130 -128 c 0
 149 -112 161 -92 164 -70 c 0
 167 -54 165 -39 159 -26 c 0
 153 -13 144 -3 131 4 c 1
 192 33 l 1
EndSplineSet
EndChar

StartChar: uni00B9
Encoding: 185 185 118
GlifName: uni00B_9
Width: 287
Flags: W
VStem: 195 60<380 440>
LayerCount: 2
Fore
SplineSet
262 800 m 1
 322 800 l 1
 255 380 l 1
 195 380 l 1
 249 722 l 1
 172 665 l 1
 142 711 l 1
 262 800 l 1
EndSplineSet
EndChar

StartChar: ordmasculine
Encoding: 186 186 119
GlifName: ordmasculine
Width: 370
Flags: W
HStem: 393 60<200.429 322.137> 647 60<225.382 344.675>
VStem: 121 303
LayerCount: 2
Fore
SplineSet
298 707 m 0
 342 707 376 692 399 662 c 0
 422 632 431 594 424 550 c 0
 417 506 396 468 363 438 c 0
 330 408 292 393 248 393 c 0
 204 393 169 408 146 438 c 0
 123 468 114 506 121 550 c 0
 128 594 149 632 182 662 c 0
 215 692 254 707 298 707 c 0
288 647 m 0
 261 647 238 638 218 619 c 0
 198 600 185 577 181 550 c 0
 177 523 182 499 196 480 c 0
 210 461 231 453 258 453 c 0
 285 453 308 461 328 480 c 0
 348 499 360 523 364 550 c 0
 368 577 364 600 350 619 c 0
 336 638 315 647 288 647 c 0
EndSplineSet
EndChar

StartChar: guillemotright
Encoding: 187 187 120
GlifName: guillemotright
Width: 555
Flags: W
LayerCount: 2
Fore
SplineSet
183 515 m 5
 133 473 l 5
 280 298 l 5
 78 124 l 5
 114 81 l 5
 365 298 l 5
 183 515 l 5
359 515 m 5
 310 473 l 5
 457 298 l 5
 255 124 l 5
 290 81 l 5
 542 298 l 5
 359 515 l 5
EndSplineSet
EndChar

StartChar: onequarter
Encoding: 188 188 121
GlifName: onequarter
Width: 829
Flags: W
HStem: 0 21G<164.118 207.147 676 739.077> 91 60<581 690 760 819> 680 20G<219.034 306 700.823 743.294>
VStem: 179 60<280 340> 676 60<0 60> 719 60<210 270>
LayerCount: 2
Fore
SplineSet
684 420 m 1xf8
 733 394 l 1
 581 151 l 1
 700 151 l 1
 719 270 l 1
 779 270 l 1xf4
 760 151 l 1
 829 151 l 1
 819 91 l 1
 750 91 l 1
 736 0 l 1
 676 0 l 1
 690 91 l 1
 505 91 l 1
 515 151 l 1
 684 420 l 1xf8
718 700 m 5
 761 666 l 5
 190 0 l 5
 146 34 l 5
 718 700 l 5
246 700 m 1
 306 700 l 1
 239 280 l 1
 179 280 l 1
 234 622 l 1
 156 565 l 1
 126 611 l 1
 246 700 l 1
EndSplineSet
EndChar

StartChar: onehalf
Encoding: 189 189 122
GlifName: onehalf
Width: 862
Flags: W
HStem: 0 60<629 801> 367 60<669.455 772.765> 680 20G<219.034 306 700.823 743.294>
VStem: 179 60<280 340>
LayerCount: 2
Fore
SplineSet
734 427 m 0
 771 427 801 414 823 389 c 0
 845 364 852 332 846 296 c 0
 841 264 821 232 787 201 c 2
 629 60 l 1
 811 60 l 1
 801 0 l 1
 535 0 l 1
 545 60 l 1
 749 242 l 2
 772 263 783 280 786 296 c 0
 789 318 784 335 772 348 c 0
 760 361 745 367 726 367 c 0
 708 367 693 362 678 352 c 0
 663 342 653 328 646 312 c 1
 590 325 l 1
 600 354 619 377 646 397 c 0
 673 417 703 427 734 427 c 0
718 700 m 5
 761 666 l 5
 190 0 l 5
 146 34 l 5
 718 700 l 5
246 700 m 1
 306 700 l 1
 239 280 l 1
 179 280 l 1
 234 622 l 1
 156 565 l 1
 126 611 l 1
 246 700 l 1
EndSplineSet
EndChar

StartChar: threequarters
Encoding: 190 190 123
GlifName: threequarters
Width: 901
Flags: W
HStem: 0 21G<236.118 279.147 748 811.077> 91 60<653 762 832 891> 273 60<181.065 296.793> 470 60<231 308.388> 647 60<225.853 331.058> 680 20G<772.823 815.294>
VStem: 324 60<360.029 451.388> 748 60<0 60> 791 60<210 270>
LayerCount: 2
Fore
SplineSet
756 420 m 1xf3
 805 394 l 1
 653 151 l 1
 772 151 l 1
 791 270 l 1
 851 270 l 1xf280
 832 151 l 1
 901 151 l 1
 891 91 l 1
 822 91 l 1
 808 0 l 1
 748 0 l 1
 762 91 l 1
 577 91 l 1
 587 151 l 1
 756 420 l 1xf3
790 700 m 5xf6
 833 666 l 5
 262 0 l 5
 218 34 l 5
 790 700 l 5xf6
293 707 m 0xfa
 328 707 356 695 378 673 c 0
 400 651 406 623 401 590 c 0
 399 575 391 560 381 545 c 0
 371 530 356 516 337 502 c 1
 353 490 365 476 373 460 c 0
 383 441 387 422 384 401 c 0
 378 365 359 335 328 310 c 0
 297 285 263 273 225 273 c 0
 197 273 173 280 152 295 c 0
 131 310 116 329 111 352 c 1
 171 372 l 1
 175 360 183 350 195 343 c 0
 207 336 221 333 236 333 c 0
 257 333 277 339 294 352 c 0
 311 365 321 382 324 402 c 0
 327 422 323 439 309 452 c 0
 296 464 279 470 257 470 c 2
 221 470 l 1
 231 530 l 1
 267 530 l 2
 284 530 300 536 316 547 c 0
 331 558 339 573 342 590 c 0
 345 608 340 621 329 631 c 0
 318 641 303 647 284 647 c 0
 268 647 255 644 242 637 c 0
 230 631 221 622 215 611 c 1
 161 630 l 1
 172 652 192 672 216 686 c 0
 240 700 267 707 293 707 c 0xfa
EndSplineSet
EndChar

StartChar: questiondown
Encoding: 191 191 124
GlifName: questiondown
Width: 456
Flags: W
HStem: -213 60<136.676 287.637> 421 92<291.151 361.681>
VStem: 275 60<256 316>
LayerCount: 2
Fore
SplineSet
281 467 m 0
 283 480 289 491 299 500 c 0
 309 509 321 513 334 513 c 0
 347 513 356 509 364 500 c 0
 372 491 375 480 373 467 c 0
 371 454 364 444 354 435 c 0
 344 426 333 421 320 421 c 0
 307 421 297 426 289 435 c 0
 281 444 279 454 281 467 c 0
199 -213 m 0
 141 -213 96 -192 61 -151 c 0
 26 -110 14 -61 23 -3 c 0
 29 37 46 73 73 107 c 0
 100 141 133 166 173 184 c 0
 199 196 222 214 241 238 c 0
 260 262 271 288 275 316 c 1
 335 316 l 1
 329 276 312 240 286 206 c 0
 260 172 229 147 190 130 c 0
 162 118 139 99 119 75 c 0
 99 51 87 25 83 -3 c 0
 77 -44 86 -78 111 -108 c 0
 136 -138 168 -153 209 -153 c 0
 243 -153 275 -142 305 -121 c 0
 335 -100 359 -73 372 -40 c 1
 429 -50 l 1
 411 -97 380 -137 337 -167 c 0
 294 -197 248 -213 199 -213 c 0
EndSplineSet
EndChar

StartChar: Agrave
Encoding: 192 192 125
GlifName: A_grave
Width: 607
Flags: W
HStem: 0 21G<13 88.3415 525.902 595> 205 60<216 476> 680 20G<374.371 449.286>
VStem: 530 65<0 65>
LayerCount: 2
Fore
SplineSet
385 744 m 1
 281 871 l 1
 370 871 l 1
 461 744 l 1
 385 744 l 1
216 265 m 1
 476 265 l 1
 402 619 l 1
 216 265 l 1
184 205 m 1
 78 0 l 1
 13 0 l 1
 385 700 l 1
 445 700 l 1
 595 0 l 1
 530 0 l 1
 488 205 l 1
 184 205 l 1
EndSplineSet
EndChar

StartChar: Aacute
Encoding: 193 193 126
GlifName: A_acute
Width: 607
Flags: W
HStem: 0 21G<13 88.3415 525.902 595> 205 60<216 476> 680 20G<374.371 449.286>
VStem: 530 65<0 65>
LayerCount: 2
Fore
SplineSet
216 265 m 1
 476 265 l 1
 402 619 l 1
 216 265 l 1
184 205 m 1
 78 0 l 1
 13 0 l 1
 385 700 l 1
 445 700 l 1
 595 0 l 1
 530 0 l 1
 488 205 l 1
 184 205 l 1
384 744 m 1
 513 870 l 1
 602 870 l 1
 460 744 l 1
 384 744 l 1
EndSplineSet
EndChar

StartChar: Acircumflex
Encoding: 194 194 127
GlifName: A_circumflex
Width: 607
Flags: W
HStem: 0 21G<13 88.3415 525.902 595> 205 60<216 476> 680 20G<374.371 449.286>
VStem: 530 65<0 65>
LayerCount: 2
Fore
SplineSet
256 744 m 1
 396 870 l 1
 478 870 l 1
 578 744 l 1
 496 744 l 1
 430 824 l 5
 338 744 l 1
 256 744 l 1
216 265 m 1
 476 265 l 1
 402 619 l 1
 216 265 l 1
184 205 m 1
 78 0 l 1
 13 0 l 1
 385 700 l 1
 445 700 l 1
 595 0 l 1
 530 0 l 1
 488 205 l 1
 184 205 l 1
EndSplineSet
EndChar

StartChar: Atilde
Encoding: 195 195 128
GlifName: A_tilde
Width: 607
Flags: W
HStem: 0 21G<13 88.3415 525.902 595> 205 60<216 476> 680 20G<374.371 449.286> 742 56<453.718 521.791> 814 56<333.158 399.081>
VStem: 529 59<804.423 836> 530 65<0 65>
LayerCount: 2
Fore
SplineSet
477 742 m 0xfc
 448 742 425 754 409 778 c 0
 402 787 397 796 391 803 c 0
 385 810 379 814 371 814 c 0
 350 814 335 802 325 777 c 1
 266 777 l 1
 273 803 287 824 309 842 c 0
 331 860 355 870 380 870 c 0
 405 870 426 858 443 834 c 0
 450 825 456 816 462 809 c 0
 468 802 476 798 485 798 c 0
 506 798 521 811 529 836 c 1
 588 836 l 1
 580 809 566 787 545 769 c 0
 524 751 502 742 477 742 c 0xfc
216 265 m 1
 476 265 l 1
 402 619 l 1
 216 265 l 1
184 205 m 1
 78 0 l 1
 13 0 l 1
 385 700 l 1
 445 700 l 1
 595 0 l 1
 530 0 l 1xfa
 488 205 l 1
 184 205 l 1
EndSplineSet
EndChar

StartChar: Adieresis
Encoding: 196 196 129
GlifName: A_dieresis
Width: 607
Flags: W
HStem: 0 21G<13 88.3415 525.902 595> 205 60<216 476> 680 20G<374.371 449.286> 800 80<275.329 340.335 516.33 581.67>
VStem: 530 65<0 65>
LayerCount: 2
Fore
SplineSet
313 880 m 4
 324 880 334 877 341 869 c 4
 348 861 349 851 347 840 c 4
 345 829 341 820 332 812 c 4
 323 804 312 800 301 800 c 4
 290 800 282 804 275 812 c 4
 268 820 265 829 267 840 c 4
 269 851 275 861 284 869 c 4
 293 877 302 880 313 880 c 4
555 880 m 4
 566 880 575 877 582 869 c 4
 589 861 591 851 589 840 c 4
 587 829 582 820 573 812 c 4
 564 804 554 800 543 800 c 4
 532 800 523 804 516 812 c 4
 509 820 507 829 509 840 c 4
 511 851 516 861 525 869 c 4
 534 877 544 880 555 880 c 4
216 265 m 1
 476 265 l 1
 402 619 l 1
 216 265 l 1
184 205 m 1
 78 0 l 1
 13 0 l 1
 385 700 l 1
 445 700 l 1
 595 0 l 1
 530 0 l 1
 488 205 l 1
 184 205 l 1
EndSplineSet
EndChar

StartChar: Aring
Encoding: 197 197 130
GlifName: A_ring
Width: 607
Flags: W
HStem: 0 21G<13 88.3415 525.902 595> 205 60<216 476> 680 20G<374.371 449.286> 733 46<397.597 465.73> 859 45<400.818 468.536>
VStem: 348 46<791.376 852.185> 473 46<786.75 846.624> 530 65<0 65>
LayerCount: 2
Fore
SplineSet
446 904 m 0
 469 904 489 896 503 879 c 0
 517 862 523 842 519 819 c 0
 515 796 504 776 484 759 c 0
 464 742 442 733 419 733 c 0
 396 733 377 742 363 759 c 0
 349 776 344 796 348 819 c 0
 352 842 362 862 382 879 c 0
 402 896 423 904 446 904 c 0
439 859 m 0
 428 859 418 855 409 847 c 0
 400 839 396 830 394 819 c 0
 392 808 393 799 400 791 c 0
 407 783 415 779 426 779 c 0
 437 779 448 783 457 791 c 0
 466 799 471 808 473 819 c 0
 475 830 473 839 466 847 c 0
 459 855 450 859 439 859 c 0
216 265 m 1
 476 265 l 1
 402 619 l 1
 216 265 l 1
184 205 m 1
 78 0 l 1
 13 0 l 1
 385 700 l 1
 445 700 l 1
 595 0 l 1
 530 0 l 1
 488 205 l 1
 184 205 l 1
EndSplineSet
EndChar

StartChar: AE
Encoding: 198 198 131
GlifName: A_E_
Width: 1000
Flags: W
HStem: 0 60<573 906> 205 60<313 535> 331 60<625 894> 640 60<664 1007>
LayerCount: 2
Fore
SplineSet
614 700 m 1
 1017 700 l 1
 1007 640 l 1
 664 640 l 1
 625 391 l 1
 904 391 l 1
 894 331 l 1
 615 331 l 1
 573 60 l 1
 916 60 l 1
 906 0 l 1
 503 0 l 1
 535 205 l 1
 261 205 l 1
 85 0 l 1
 11 0 l 1
 614 700 l 1
597 596 m 1
 313 265 l 1
 545 265 l 1
 597 596 l 1
EndSplineSet
EndChar

StartChar: Ccedilla
Encoding: 199 199 132
GlifName: C_cedilla
Width: 683
Flags: W
HStem: -210 57<265.072 385.676> -12 60<292.634 442.85> 652 60<381.268 600.099>
LayerCount: 2
Fore
SplineSet
452 33 m 1
 478 5 487 -29 481 -70 c 0
 475 -109 455 -142 424 -169 c 0
 393 -196 358 -210 319 -210 c 0
 287 -210 260 -201 238 -181 c 1
 267 -152 282 -137 282 -137 c 5
 294 -147 310 -153 328 -153 c 0
 350 -153 371 -144 390 -128 c 0
 409 -112 421 -92 424 -70 c 0
 427 -54 424 -39 418 -26 c 0
 412 -13 404 -3 391 4 c 1
 452 33 l 1
505 712 m 0
 555 712 600 703 639 683 c 0
 678 663 711 636 736 600 c 1
 686 556 l 1
 642 620 579 652 495 652 c 0
 414 652 342 623 281 564 c 0
 220 505 181 434 168 350 c 0
 155 266 171 195 214 136 c 0
 257 77 319 48 400 48 c 0
 484 48 557 80 621 144 c 1
 657 101 l 1
 620 65 579 38 534 18 c 0
 489 -2 440 -12 390 -12 c 0
 291 -12 216 23 164 93 c 0
 112 163 92 248 108 350 c 0
 124 452 171 537 245 607 c 0
 319 677 406 712 505 712 c 0
EndSplineSet
EndChar

StartChar: Egrave
Encoding: 200 200 133
GlifName: E_grave
Width: 598
Flags: W
HStem: 0 60<173 506> 329 60<225 494> 640 60<264 607>
LayerCount: 2
Fore
SplineSet
393 744 m 1
 289 871 l 1
 378 871 l 1
 469 744 l 1
 393 744 l 1
103 0 m 1
 214 700 l 1
 617 700 l 1
 607 640 l 1
 264 640 l 1
 225 389 l 1
 504 389 l 1
 494 329 l 1
 215 329 l 1
 173 60 l 1
 516 60 l 1
 506 0 l 1
 103 0 l 1
EndSplineSet
EndChar

StartChar: Eacute
Encoding: 201 201 134
GlifName: E_acute
Width: 598
Flags: W
HStem: 0 60<173 506> 329 60<225 494> 640 60<264 607>
LayerCount: 2
Fore
SplineSet
103 0 m 1
 214 700 l 1
 617 700 l 1
 607 640 l 1
 264 640 l 1
 225 389 l 1
 504 389 l 1
 494 329 l 1
 215 329 l 1
 173 60 l 1
 516 60 l 1
 506 0 l 1
 103 0 l 1
378 744 m 1
 507 870 l 1
 596 870 l 1
 454 744 l 1
 378 744 l 1
EndSplineSet
EndChar

StartChar: Ecircumflex
Encoding: 202 202 135
GlifName: E_circumflex
Width: 598
Flags: W
HStem: 0 60<173 506> 329 60<225 494> 640 60<264 607>
LayerCount: 2
Fore
SplineSet
267 744 m 1
 407 870 l 1
 489 870 l 1
 589 744 l 1
 507 744 l 1
 441 824 l 5
 349 744 l 1
 267 744 l 1
103 0 m 1
 214 700 l 1
 617 700 l 1
 607 640 l 1
 264 640 l 1
 225 389 l 1
 504 389 l 1
 494 329 l 1
 215 329 l 1
 173 60 l 1
 516 60 l 1
 506 0 l 1
 103 0 l 1
EndSplineSet
EndChar

StartChar: Edieresis
Encoding: 203 203 136
GlifName: E_dieresis
Width: 598
Flags: W
HStem: 0 60<173 506> 329 60<225 494> 640 60<264 607> 800 80<291.329 355.67 532.33 598.335>
VStem: 283 80<812.376 868.624>
LayerCount: 2
Fore
SplineSet
329 880 m 4
 340 880 349 877 356 869 c 4
 363 861 365 851 363 840 c 4
 361 829 356 820 347 812 c 4
 338 804 328 800 317 800 c 4
 306 800 298 804 291 812 c 4
 284 820 281 829 283 840 c 4
 285 851 291 861 300 869 c 4
 309 877 318 880 329 880 c 4
571 880 m 4
 582 880 592 877 599 869 c 4
 606 861 607 851 605 840 c 4
 603 829 599 820 590 812 c 4
 581 804 570 800 559 800 c 4
 548 800 539 804 532 812 c 4
 525 820 523 829 525 840 c 4
 527 851 532 861 541 869 c 4
 550 877 560 880 571 880 c 4
103 0 m 1
 214 700 l 1
 617 700 l 1
 607 640 l 1
 264 640 l 1
 225 389 l 1
 504 389 l 1
 494 329 l 1
 215 329 l 1
 173 60 l 1
 516 60 l 1
 506 0 l 1
 103 0 l 1
EndSplineSet
EndChar

StartChar: Igrave
Encoding: 204 204 137
GlifName: I_grave
Width: 265
Flags: W
HStem: 0 21G<103 166.171> 680 20G<210.829 274>
VStem: 103 60<0 60> 214 60<640 700>
LayerCount: 2
Fore
SplineSet
218 744 m 1
 114 871 l 1
 203 871 l 1
 294 744 l 1
 218 744 l 1
103 0 m 1
 214 700 l 1
 274 700 l 1
 163 0 l 1
 103 0 l 1
EndSplineSet
EndChar

StartChar: Iacute
Encoding: 205 205 138
GlifName: I_acute
Width: 265
Flags: W
HStem: 0 21G<103 166.171> 680 20G<210.829 274>
VStem: 103 60<0 60> 214 60<640 700>
LayerCount: 2
Fore
SplineSet
103 0 m 1
 214 700 l 1
 274 700 l 1
 163 0 l 1
 103 0 l 1
211 740 m 1
 340 866 l 1
 429 866 l 1
 287 740 l 1
 211 740 l 1
EndSplineSet
EndChar

StartChar: Icircumflex
Encoding: 206 206 139
GlifName: I_circumflex
Width: 265
Flags: W
HStem: 0 21G<103 166.171> 680 20G<210.829 274>
VStem: 103 60<0 60> 214 60<640 700>
LayerCount: 2
Fore
SplineSet
89 744 m 1
 229 870 l 1
 311 870 l 1
 411 744 l 1
 329 744 l 1
 263 824 l 5
 171 744 l 1
 89 744 l 1
103 0 m 1
 214 700 l 1
 274 700 l 1
 163 0 l 1
 103 0 l 1
EndSplineSet
EndChar

StartChar: Idieresis
Encoding: 207 207 140
GlifName: I_dieresis
Width: 265
Flags: W
HStem: 0 21G<103 166.171> 680 20G<210.829 274> 800 80<161.33 226.67 301.33 367.335>
VStem: 103 60<0 60> 214 60<640 700>
LayerCount: 2
Fore
SplineSet
103 0 m 1
 214 700 l 1
 274 700 l 1
 163 0 l 1
 103 0 l 1
200 880 m 0
 211 880 220 877 227 869 c 0
 234 861 236 851 234 840 c 0
 232 829 227 820 218 812 c 0
 209 804 199 800 188 800 c 0
 177 800 168 804 161 812 c 0
 154 820 152 829 154 840 c 0
 156 851 161 861 170 869 c 0
 179 877 189 880 200 880 c 0
340 880 m 0
 351 880 361 877 368 869 c 0
 375 861 376 851 374 840 c 0
 372 829 368 820 359 812 c 0
 350 804 339 800 328 800 c 0
 317 800 308 804 301 812 c 0
 294 820 292 829 294 840 c 0
 296 851 301 861 310 869 c 0
 319 877 329 880 340 880 c 0
EndSplineSet
EndChar

StartChar: Eth
Encoding: 208 208 141
GlifName: E_th
Width: 688
Flags: W
HStem: 0 60<173 410.25> 319 60<113 352> 640 60<264 493.829>
LayerCount: 2
Fore
SplineSet
387 640 m 2
 264 640 l 1
 173 60 l 1
 296 60 l 2
 376 60 448 88 514 145 c 0
 580 202 618 270 631 350 c 0
 644 430 627 498 579 555 c 0
 531 612 467 640 387 640 c 2
397 700 m 2
 494 700 571 666 628 598 c 0
 685 530 706 447 691 350 c 0
 676 253 628 171 549 103 c 0
 470 35 383 0 286 0 c 2
 103 0 l 1
 214 700 l 1
 397 700 l 2
104 319 m 1
 113 379 l 1
 361 379 l 1
 352 319 l 1
 104 319 l 1
EndSplineSet
EndChar

StartChar: Ntilde
Encoding: 209 209 142
GlifName: N_tilde
Width: 739
Flags: W
HStem: 0 21G<103 166.165 566.226 640.171> 680 20G<210.829 284.774 684.835 748> 742 56<519.718 587.791> 814 56<399.158 465.081>
VStem: 103 60<0 60> 595 59<804.423 836> 688 60<640 700>
LayerCount: 2
Fore
SplineSet
543 742 m 0
 514 742 491 754 475 778 c 0
 468 787 463 796 457 803 c 0
 451 810 445 814 437 814 c 0
 416 814 401 802 391 777 c 1
 332 777 l 1
 339 803 353 824 375 842 c 0
 397 860 421 870 446 870 c 0
 471 870 492 858 509 834 c 0
 516 825 522 816 528 809 c 0
 534 802 542 798 551 798 c 0
 572 798 587 811 595 836 c 1
 654 836 l 1
 646 809 632 787 611 769 c 0
 590 751 568 742 543 742 c 0
214 700 m 1
 274 700 l 1
 594 106 l 1
 688 700 l 1
 748 700 l 1
 637 0 l 1
 577 0 l 1
 257 594 l 1
 163 0 l 1
 103 0 l 1
 214 700 l 1
EndSplineSet
EndChar

StartChar: Ograve
Encoding: 210 210 143
GlifName: O_grave
Width: 781
Flags: W
HStem: -12 60<291.634 512.482> 652 60<380.268 599.188>
LayerCount: 2
Fore
SplineSet
478 744 m 1
 374 871 l 1
 463 871 l 1
 554 744 l 1
 478 744 l 1
494 652 m 0
 413 652 341 623 280 564 c 0
 219 505 181 434 168 350 c 0
 155 266 170 195 213 136 c 0
 256 77 318 48 399 48 c 0
 480 48 551 77 612 136 c 0
 673 195 711 266 724 350 c 0
 737 434 722 505 679 564 c 0
 636 623 575 652 494 652 c 0
504 712 m 0
 603 712 678 677 730 607 c 0
 782 537 800 452 784 350 c 0
 768 248 723 163 649 93 c 0
 575 23 488 -12 389 -12 c 0
 290 -12 215 23 163 93 c 0
 111 163 92 248 108 350 c 0
 124 452 170 537 244 607 c 0
 318 677 405 712 504 712 c 0
EndSplineSet
EndChar

StartChar: Oacute
Encoding: 211 211 144
GlifName: O_acute
Width: 781
Flags: W
HStem: -12 60<291.634 512.482> 652 60<380.268 599.188>
LayerCount: 2
Fore
SplineSet
494 652 m 0
 413 652 341 623 280 564 c 0
 219 505 181 434 168 350 c 0
 155 266 170 195 213 136 c 0
 256 77 318 48 399 48 c 0
 480 48 551 77 612 136 c 0
 673 195 711 266 724 350 c 0
 737 434 722 505 679 564 c 0
 636 623 575 652 494 652 c 0
504 712 m 0
 603 712 678 677 730 607 c 0
 782 537 800 452 784 350 c 0
 768 248 723 163 649 93 c 0
 575 23 488 -12 389 -12 c 0
 290 -12 215 23 163 93 c 0
 111 163 92 248 108 350 c 0
 124 452 170 537 244 607 c 0
 318 677 405 712 504 712 c 0
472 740 m 1
 601 866 l 1
 690 866 l 1
 548 740 l 1
 472 740 l 1
EndSplineSet
EndChar

StartChar: Ocircumflex
Encoding: 212 212 145
GlifName: O_circumflex
Width: 781
Flags: W
HStem: -12 60<291.634 512.482> 652 60<380.268 599.188>
LayerCount: 2
Fore
SplineSet
349 744 m 1
 489 870 l 1
 571 870 l 1
 671 744 l 1
 589 744 l 1
 523 824 l 5
 431 744 l 1
 349 744 l 1
494 652 m 0
 413 652 341 623 280 564 c 0
 219 505 181 434 168 350 c 0
 155 266 170 195 213 136 c 0
 256 77 318 48 399 48 c 0
 480 48 551 77 612 136 c 0
 673 195 711 266 724 350 c 0
 737 434 722 505 679 564 c 0
 636 623 575 652 494 652 c 0
504 712 m 0
 603 712 678 677 730 607 c 0
 782 537 800 452 784 350 c 0
 768 248 723 163 649 93 c 0
 575 23 488 -12 389 -12 c 0
 290 -12 215 23 163 93 c 0
 111 163 92 248 108 350 c 0
 124 452 170 537 244 607 c 0
 318 677 405 712 504 712 c 0
EndSplineSet
EndChar

StartChar: Otilde
Encoding: 213 213 146
GlifName: O_tilde
Width: 781
Flags: W
HStem: -12 60<291.634 512.482> 652 60<380.268 599.188> 742 56<549.622 617.617> 814 56<429.158 494.317>
VStem: 625 59<804.423 836>
LayerCount: 2
Fore
SplineSet
573 742 m 0
 544 742 520 754 504 778 c 0
 497 787 493 796 487 803 c 0
 481 810 475 814 467 814 c 0
 446 814 431 802 421 777 c 1
 362 777 l 1
 369 803 383 824 405 842 c 0
 427 860 451 870 476 870 c 0
 501 870 522 858 539 834 c 0
 546 825 552 816 558 809 c 0
 564 802 572 798 581 798 c 0
 602 798 617 811 625 836 c 1
 684 836 l 1
 676 809 663 787 642 769 c 0
 621 751 598 742 573 742 c 0
494 652 m 0
 413 652 341 623 280 564 c 0
 219 505 181 434 168 350 c 0
 155 266 170 195 213 136 c 0
 256 77 318 48 399 48 c 0
 480 48 551 77 612 136 c 0
 673 195 711 266 724 350 c 0
 737 434 722 505 679 564 c 0
 636 623 575 652 494 652 c 0
504 712 m 0
 603 712 678 677 730 607 c 0
 782 537 800 452 784 350 c 0
 768 248 723 163 649 93 c 0
 575 23 488 -12 389 -12 c 0
 290 -12 215 23 163 93 c 0
 111 163 92 248 108 350 c 0
 124 452 170 537 244 607 c 0
 318 677 405 712 504 712 c 0
EndSplineSet
EndChar

StartChar: Odieresis
Encoding: 214 214 147
GlifName: O_dieresis
Width: 781
Flags: W
HStem: -12 60<291.634 512.482> 652 60<380.268 599.188> 800 80<373.329 437.67 614.33 680.335>
VStem: 365 80<812.376 868.624>
LayerCount: 2
Fore
SplineSet
411 880 m 4
 422 880 431 877 438 869 c 4
 445 861 447 851 445 840 c 4
 443 829 438 820 429 812 c 4
 420 804 410 800 399 800 c 4
 388 800 380 804 373 812 c 4
 366 820 363 829 365 840 c 4
 367 851 373 861 382 869 c 4
 391 877 400 880 411 880 c 4
653 880 m 4
 664 880 674 877 681 869 c 4
 688 861 689 851 687 840 c 4
 685 829 681 820 672 812 c 4
 663 804 652 800 641 800 c 4
 630 800 621 804 614 812 c 4
 607 820 605 829 607 840 c 4
 609 851 614 861 623 869 c 4
 632 877 642 880 653 880 c 4
494 652 m 0
 413 652 341 623 280 564 c 0
 219 505 181 434 168 350 c 0
 155 266 170 195 213 136 c 0
 256 77 318 48 399 48 c 0
 480 48 551 77 612 136 c 0
 673 195 711 266 724 350 c 0
 737 434 722 505 679 564 c 0
 636 623 575 652 494 652 c 0
504 712 m 0
 603 712 678 677 730 607 c 0
 782 537 800 452 784 350 c 0
 768 248 723 163 649 93 c 0
 575 23 488 -12 389 -12 c 0
 290 -12 215 23 163 93 c 0
 111 163 92 248 108 350 c 0
 124 452 170 537 244 607 c 0
 318 677 405 712 504 712 c 0
EndSplineSet
EndChar

StartChar: multiply
Encoding: 215 215 148
GlifName: multiply
Width: 625
Flags: W
LayerCount: 2
Fore
SplineSet
183 106 m 1
 147 148 l 1
 319 296 l 1
 194 444 l 1
 243 487 l 1
 368 339 l 1
 539 487 l 1
 575 444 l 1
 404 296 l 1
 528 148 l 1
 479 106 l 1
 354 254 l 1
 183 106 l 1
EndSplineSet
EndChar

StartChar: Oslash
Encoding: 216 216 149
GlifName: O_slash
Width: 781
Flags: W
HStem: -12 60<294.634 515.482> 652 60<383.268 602.188>
LayerCount: 2
Fore
SplineSet
497 652 m 0
 416 652 344 623 283 564 c 0
 222 505 184 434 171 350 c 0
 158 266 173 195 216 136 c 0
 259 77 321 48 402 48 c 0
 483 48 554 77 615 136 c 0
 676 195 714 266 727 350 c 0
 740 434 725 505 682 564 c 0
 639 623 578 652 497 652 c 0
507 712 m 0
 606 712 681 677 733 607 c 0
 785 537 803 452 787 350 c 0
 771 248 726 163 652 93 c 0
 578 23 491 -12 392 -12 c 0
 293 -12 218 23 166 93 c 0
 114 163 95 248 111 350 c 0
 127 452 173 537 247 607 c 0
 321 677 408 712 507 712 c 0
128 -11 m 5
 89 28 l 1
 770 711 l 1
 810 672 l 1
 128 -11 l 5
EndSplineSet
EndChar

StartChar: Ugrave
Encoding: 217 217 150
GlifName: U_grave
Width: 714
Flags: W
HStem: -12 60<278.927 459.186> 680 20G<200.835 264 669.835 733>
VStem: 204 60<640 700> 673 60<640 700>
LayerCount: 2
Fore
SplineSet
439 744 m 1
 335 871 l 1
 424 871 l 1
 515 744 l 1
 439 744 l 1
204 700 m 1
 264 700 l 1
 198 283 l 2
 187 213 197 156 230 113 c 0
 263 70 307 48 365 48 c 0
 423 48 474 70 521 113 c 0
 568 156 596 213 607 283 c 2
 673 700 l 1
 733 700 l 1
 667 283 l 2
 653 195 616 123 557 69 c 0
 498 15 431 -12 355 -12 c 0
 279 -12 221 15 180 69 c 0
 139 123 124 195 138 283 c 2
 204 700 l 1
EndSplineSet
EndChar

StartChar: Uacute
Encoding: 218 218 151
GlifName: U_acute
Width: 714
Flags: W
HStem: -12 60<278.927 459.186> 680 20G<200.835 264 669.835 733>
VStem: 204 60<640 700> 673 60<640 700>
LayerCount: 2
Fore
SplineSet
432 744 m 1
 561 870 l 1
 650 870 l 1
 508 744 l 1
 432 744 l 1
204 700 m 1
 264 700 l 1
 198 283 l 2
 187 213 197 156 230 113 c 0
 263 70 307 48 365 48 c 0
 423 48 474 70 521 113 c 0
 568 156 596 213 607 283 c 2
 673 700 l 1
 733 700 l 1
 667 283 l 2
 653 195 616 123 557 69 c 0
 498 15 431 -12 355 -12 c 0
 279 -12 221 15 180 69 c 0
 139 123 124 195 138 283 c 2
 204 700 l 1
EndSplineSet
EndChar

StartChar: Ucircumflex
Encoding: 219 219 152
GlifName: U_circumflex
Width: 714
Flags: W
HStem: -12 60<278.927 459.186> 680 20G<200.835 264 669.835 733>
VStem: 204 60<640 700> 673 60<640 700>
LayerCount: 2
Fore
SplineSet
315 744 m 1
 455 870 l 1
 537 870 l 1
 637 744 l 1
 555 744 l 1
 489 824 l 5
 397 744 l 1
 315 744 l 1
204 700 m 1
 264 700 l 1
 198 283 l 2
 187 213 197 156 230 113 c 0
 263 70 307 48 365 48 c 0
 423 48 474 70 521 113 c 0
 568 156 596 213 607 283 c 2
 673 700 l 1
 733 700 l 1
 667 283 l 2
 653 195 616 123 557 69 c 0
 498 15 431 -12 355 -12 c 0
 279 -12 221 15 180 69 c 0
 139 123 124 195 138 283 c 2
 204 700 l 1
EndSplineSet
EndChar

StartChar: Udieresis
Encoding: 220 220 153
GlifName: U_dieresis
Width: 714
Flags: W
HStem: -12 60<278.927 459.186> 680 20G<200.835 264 669.835 733> 800 80<328.33 393.67 570.33 636.335>
VStem: 204 60<640 700> 673 60<640 700>
LayerCount: 2
Fore
SplineSet
367 880 m 4
 378 880 387 877 394 869 c 4
 401 861 403 851 401 840 c 4
 399 829 394 820 385 812 c 4
 376 804 366 800 355 800 c 4
 344 800 335 804 328 812 c 4
 321 820 319 829 321 840 c 4
 323 851 328 861 337 869 c 4
 346 877 356 880 367 880 c 4
609 880 m 4
 620 880 630 877 637 869 c 4
 644 861 645 851 643 840 c 4
 641 829 637 820 628 812 c 4
 619 804 608 800 597 800 c 4
 586 800 577 804 570 812 c 4
 563 820 561 829 563 840 c 4
 565 851 570 861 579 869 c 4
 588 877 598 880 609 880 c 4
204 700 m 1
 264 700 l 1
 198 283 l 2
 187 213 197 156 230 113 c 0
 263 70 307 48 365 48 c 0
 423 48 474 70 521 113 c 0
 568 156 596 213 607 283 c 2
 673 700 l 1
 733 700 l 1
 667 283 l 2
 653 195 616 123 557 69 c 0
 498 15 431 -12 355 -12 c 0
 279 -12 221 15 180 69 c 0
 139 123 124 195 138 283 c 2
 204 700 l 1
EndSplineSet
EndChar

StartChar: Yacute
Encoding: 221 221 154
GlifName: Y_acute
Width: 531
Flags: W
HStem: 0 21G<236 299.178> 680 20G<124 203.581 544.097 630>
VStem: 236 60<0 60>
LayerCount: 2
Fore
SplineSet
330 744 m 1
 459 870 l 1
 549 870 l 1
 407 744 l 1
 330 744 l 1
124 700 m 1
 195 700 l 1
 328 390 l 1
 559 700 l 1
 630 700 l 1
 347 321 l 5
 296 0 l 1
 236 0 l 1
 287 321 l 1
 124 700 l 1
EndSplineSet
EndChar

StartChar: Thorn
Encoding: 222 222 155
GlifName: T_horn
Width: 575
Flags: W
HStem: 1 21G<103 166.217> 144 60<195 442.109> 518 60<255 485.019> 681 20G<210.829 274>
VStem: 103 60<1 61> 214 60<641 701>
LayerCount: 2
Fore
SplineSet
214 701 m 1
 274 701 l 1
 255 578 l 1
 418 578 l 2
 478 578 527 557 562 515 c 0
 597 473 610 421 600 361 c 0
 590 301 562 250 513 208 c 0
 464 166 409 144 349 144 c 2
 186 144 l 1
 163 1 l 1
 103 1 l 1
 214 701 l 1
245 518 m 1
 195 204 l 1
 358 204 l 2
 401 204 441 219 477 250 c 0
 513 281 533 318 540 361 c 0
 547 404 538 441 512 472 c 0
 486 503 451 518 408 518 c 2
 245 518 l 1
EndSplineSet
EndChar

StartChar: germandbls
Encoding: 223 223 156
GlifName: germandbls
Width: 556
Flags: W
HStem: 0 60<252 386.889> 327 60<308 422.966> 652 60<301.741 459.137>
VStem: 78 60<0 60>
LayerCount: 2
Fore
SplineSet
394 712 m 0
 450 712 494 693 528 655 c 0
 562 617 574 572 566 519 c 0
 561 486 548 456 529 428 c 0
 510 400 486 378 457 360 c 1
 486 343 508 319 522 290 c 0
 536 261 541 228 535 193 c 0
 527 140 498 95 450 57 c 0
 402 19 350 0 291 0 c 2
 242 0 l 1
 252 60 l 1
 301 60 l 2
 343 60 381 73 415 99 c 0
 449 125 469 156 475 193 c 0
 481 230 471 262 445 288 c 0
 419 314 385 327 343 327 c 2
 299 327 l 1
 308 387 l 1
 352 387 l 2
 389 387 422 399 452 425 c 0
 482 451 500 482 506 519 c 0
 512 556 503 587 479 613 c 0
 455 639 424 652 384 652 c 0
 344 652 309 639 277 613 c 0
 245 587 226 556 220 519 c 2
 138 0 l 1
 78 0 l 1
 160 519 l 2
 168 572 195 617 241 655 c 0
 287 693 338 712 394 712 c 0
EndSplineSet
EndChar

StartChar: agrave
Encoding: 224 224 157
GlifName: agrave
Width: 608
Flags: W
HStem: -12 60<215.171 390.065> 0 21G<471 534.16> 452 60<271.253 447.029> 480 20G<546.941 610> 681 20G<270 373.331>
VStem: 471 60<0 60> 550 60<440 500>
LayerCount: 2
Fore
SplineSet
374 574 m 1x0e
 270 701 l 1
 359 701 l 1
 450 574 l 1
 374 574 l 1x0e
550 500 m 1x1e
 610 500 l 1
 531 0 l 1
 471 0 l 1x5e
 484 85 l 1
 478 77 472 69 465 62 c 0
 418 13 361 -12 291 -12 c 0
 220 -12 165 13 127 64 c 0
 89 115 76 177 88 250 c 0
 100 323 132 385 186 436 c 0
 240 487 303 512 374 512 c 0xae
 444 512 493 487 524 438 c 0
 529 431 533 423 537 415 c 1
 550 500 l 1x1e
365 452 m 0xae
 310 452 261 433 221 394 c 0
 181 355 157 307 148 250 c 0
 139 193 148 145 176 106 c 0
 204 67 246 48 301 48 c 0
 355 48 401 67 439 106 c 0
 477 145 502 192 511 250 c 0
 520 308 510 355 484 394 c 0
 458 433 419 452 365 452 c 0xae
EndSplineSet
EndChar

StartChar: aacute
Encoding: 225 225 158
GlifName: aacute
Width: 608
Flags: W
HStem: -12 60<215.171 390.065> 0 21G<471 534.16> 452 60<271.253 447.029> 480 20G<546.941 610> 680 20G<473.524 583>
VStem: 471 60<0 60> 550 60<440 500>
LayerCount: 2
Fore
SplineSet
365 574 m 1x0e
 494 700 l 1
 583 700 l 1
 441 574 l 1
 365 574 l 1x0e
550 500 m 1x1e
 610 500 l 1
 531 0 l 1
 471 0 l 1x5e
 484 85 l 1
 478 77 472 69 465 62 c 0
 418 13 361 -12 291 -12 c 0
 220 -12 165 13 127 64 c 0
 89 115 76 177 88 250 c 0
 100 323 132 385 186 436 c 0
 240 487 303 512 374 512 c 0xae
 444 512 493 487 524 438 c 0
 529 431 533 423 537 415 c 1
 550 500 l 1x1e
365 452 m 0xae
 310 452 261 433 221 394 c 0
 181 355 157 307 148 250 c 0
 139 193 148 145 176 106 c 0
 204 67 246 48 301 48 c 0
 355 48 401 67 439 106 c 0
 477 145 502 192 511 250 c 0
 520 308 510 355 484 394 c 0
 458 433 419 452 365 452 c 0xae
EndSplineSet
EndChar

StartChar: acircumflex
Encoding: 226 226 159
GlifName: acircumflex
Width: 608
Flags: W
HStem: -12 60<215.171 390.065> 0 21G<471 534.16> 452 60<271.253 447.029> 480 20G<546.941 610> 680 20G<352.778 472.873>
VStem: 471 60<0 60> 550 60<440 500>
LayerCount: 2
Fore
SplineSet
235 574 m 1x0e
 375 700 l 1
 457 700 l 1
 557 574 l 1
 475 574 l 1
 409 654 l 5
 317 574 l 1
 235 574 l 1x0e
550 500 m 1x1e
 610 500 l 1
 531 0 l 1
 471 0 l 1x5e
 484 85 l 1
 478 77 472 69 465 62 c 0
 418 13 361 -12 291 -12 c 0
 220 -12 165 13 127 64 c 0
 89 115 76 177 88 250 c 0
 100 323 132 385 186 436 c 0
 240 487 303 512 374 512 c 0xae
 444 512 493 487 524 438 c 0
 529 431 533 423 537 415 c 1
 550 500 l 1x1e
365 452 m 0xae
 310 452 261 433 221 394 c 0
 181 355 157 307 148 250 c 0
 139 193 148 145 176 106 c 0
 204 67 246 48 301 48 c 0
 355 48 401 67 439 106 c 0
 477 145 502 192 511 250 c 0
 520 308 510 355 484 394 c 0
 458 433 419 452 365 452 c 0xae
EndSplineSet
EndChar

StartChar: atilde
Encoding: 227 227 160
GlifName: atilde
Width: 608
Flags: W
HStem: -12 60<215.171 390.065> 0 21G<471 534.16> 452 60<271.253 447.029> 480 20G<546.941 610> 572 56<427.718 495.791> 644 56<307.158 373.081>
VStem: 471 60<0 60> 503 59<634.423 666> 550 60<440 500>
LayerCount: 2
Fore
SplineSet
451 572 m 0x0d
 422 572 399 584 383 608 c 0
 376 617 371 626 365 633 c 0
 359 640 353 644 345 644 c 0
 324 644 309 632 299 607 c 1
 240 607 l 1
 247 633 261 654 283 672 c 0
 305 690 329 700 354 700 c 0
 379 700 400 688 417 664 c 0
 424 655 430 646 436 639 c 0
 442 632 450 628 459 628 c 0
 480 628 495 641 503 666 c 1
 562 666 l 1
 554 639 540 617 519 599 c 0
 498 581 476 572 451 572 c 0x0d
550 500 m 1x1e80
 610 500 l 1
 531 0 l 1
 471 0 l 1x5e80
 484 85 l 1
 478 77 472 69 465 62 c 0
 418 13 361 -12 291 -12 c 0
 220 -12 165 13 127 64 c 0
 89 115 76 177 88 250 c 0
 100 323 132 385 186 436 c 0
 240 487 303 512 374 512 c 0xae80
 444 512 493 487 524 438 c 0
 529 431 533 423 537 415 c 1
 550 500 l 1x1e80
365 452 m 0xac
 310 452 261 433 221 394 c 0
 181 355 157 307 148 250 c 0
 139 193 148 145 176 106 c 0
 204 67 246 48 301 48 c 0
 355 48 401 67 439 106 c 0
 477 145 502 192 511 250 c 0
 520 308 510 355 484 394 c 0
 458 433 419 452 365 452 c 0xac
EndSplineSet
EndChar

StartChar: adieresis
Encoding: 228 228 161
GlifName: adieresis
Width: 608
Flags: W
HStem: -12 60<215.171 390.065> 0 21G<471 534.16> 452 60<271.253 447.029> 480 20G<546.941 610> 630 80<258.33 323.67 501.329 566.335>
VStem: 471 60<0 60> 550 60<440 500>
LayerCount: 2
Fore
SplineSet
297 710 m 4x0e
 308 710 317 707 324 699 c 4
 331 691 333 681 331 670 c 4
 329 659 324 650 315 642 c 4
 306 634 296 630 285 630 c 4
 274 630 265 634 258 642 c 4
 251 650 249 659 251 670 c 4
 253 681 258 691 267 699 c 4
 276 707 286 710 297 710 c 4x0e
539 710 m 4
 550 710 560 707 567 699 c 4
 574 691 575 681 573 670 c 4
 571 659 567 650 558 642 c 4
 549 634 538 630 527 630 c 4
 516 630 508 634 501 642 c 4
 494 650 491 659 493 670 c 4
 495 681 501 691 510 699 c 4
 519 707 528 710 539 710 c 4
550 500 m 1x1e
 610 500 l 1
 531 0 l 1
 471 0 l 1x5e
 484 85 l 1
 478 77 472 69 465 62 c 0
 418 13 361 -12 291 -12 c 0
 220 -12 165 13 127 64 c 0
 89 115 76 177 88 250 c 0
 100 323 132 385 186 436 c 0
 240 487 303 512 374 512 c 0xae
 444 512 493 487 524 438 c 0
 529 431 533 423 537 415 c 1
 550 500 l 1x1e
365 452 m 0xae
 310 452 261 433 221 394 c 0
 181 355 157 307 148 250 c 0
 139 193 148 145 176 106 c 0
 204 67 246 48 301 48 c 0
 355 48 401 67 439 106 c 0
 477 145 502 192 511 250 c 0
 520 308 510 355 484 394 c 0
 458 433 419 452 365 452 c 0xae
EndSplineSet
EndChar

StartChar: aring
Encoding: 229 229 162
GlifName: aring
Width: 608
Flags: W
HStem: -12 60<215.171 390.065> 0 21G<471 534.16> 452 60<271.253 447.029> 480 20G<546.941 610> 563 46<372.464 440.351> 689 45<375.934 443.403>
VStem: 323 46<621.376 681.966> 448 46<617.213 676.624> 471 60<0 60> 550 60<440 500>
LayerCount: 2
Fore
SplineSet
422 734 m 0x0f40
 445 734 464 726 478 709 c 0
 492 692 498 672 494 649 c 0
 490 626 479 605 459 588 c 0
 439 571 418 563 395 563 c 0
 372 563 352 571 338 588 c 0
 324 605 319 626 323 649 c 0
 327 672 337 692 357 709 c 0
 377 726 399 734 422 734 c 0x0f40
415 689 m 0
 404 689 393 685 384 677 c 0
 375 669 371 660 369 649 c 0
 367 638 368 629 375 621 c 0
 382 613 391 609 402 609 c 0
 413 609 423 613 432 621 c 0
 441 629 446 638 448 649 c 0
 450 660 448 669 441 677 c 0
 434 685 426 689 415 689 c 0
550 500 m 1x1ec0
 610 500 l 1
 531 0 l 1
 471 0 l 1x5ec0
 484 85 l 1
 478 77 472 69 465 62 c 0
 418 13 361 -12 291 -12 c 0
 220 -12 165 13 127 64 c 0
 89 115 76 177 88 250 c 0
 100 323 132 385 186 436 c 0
 240 487 303 512 374 512 c 0xaec0
 444 512 493 487 524 438 c 0
 529 431 533 423 537 415 c 1
 550 500 l 1x1ec0
365 452 m 0xae40
 310 452 261 433 221 394 c 0
 181 355 157 307 148 250 c 0
 139 193 148 145 176 106 c 0
 204 67 246 48 301 48 c 0
 355 48 401 67 439 106 c 0
 477 145 502 192 511 250 c 0
 520 308 510 355 484 394 c 0
 458 433 419 452 365 452 c 0xae40
EndSplineSet
EndChar

StartChar: ae
Encoding: 230 230 163
GlifName: ae
Width: 1052
Flags: W
HStem: -12 60<215.171 390.065 712.467 907.506> 0 21G<471 534.16> 220 60<649 995.548> 452 60<271.253 447.029 769.086 939.433> 480 20G<546.941 610>
VStem: 471 60<0 60> 550 60<440 500>
LayerCount: 2
Fore
SplineSet
1047 220 m 5xb6
 640 220 l 5
 638 170 651 129 679 97 c 4
 707 65 747 48 796 48 c 4
 866 48 923 68 968 107 c 5
 1002 63 l 5
 944 13 872 -12 786 -12 c 4
 715 -12 660 13 622 64 c 4
 584 115 571 177 583 250 c 4
 595 323 627 385 681 436 c 4
 735 487 798 512 869 512 c 4
 939 512 989 488 1021 438 c 4
 1053 388 1064 325 1052 250 c 6
 1047 220 l 5xb6
860 452 m 4
 811 452 766 435 728 403 c 4
 690 371 663 330 649 280 c 5
 995 280 l 5
 998 331 989 372 966 404 c 4
 943 436 908 452 860 452 c 4
550 500 m 1x2e
 610 500 l 1
 531 0 l 1
 471 0 l 1x6e
 484 85 l 1
 478 77 472 69 465 62 c 0
 418 13 361 -12 291 -12 c 0
 220 -12 165 13 127 64 c 0
 89 115 76 177 88 250 c 0
 100 323 132 385 186 436 c 0
 240 487 303 512 374 512 c 0xb6
 444 512 493 487 524 438 c 0
 529 431 533 423 537 415 c 1
 550 500 l 1x2e
365 452 m 0xb6
 310 452 261 433 221 394 c 0
 181 355 157 307 148 250 c 0
 139 193 148 145 176 106 c 0
 204 67 246 48 301 48 c 0
 355 48 401 67 439 106 c 0
 477 145 502 192 511 250 c 0
 520 308 510 355 484 394 c 0
 458 433 419 452 365 452 c 0xb6
EndSplineSet
EndChar

StartChar: ccedilla
Encoding: 231 231 164
GlifName: ccedilla
Width: 504
Flags: W
HStem: -210 57<164.072 284.676> -12 60<215.171 389.997> 452 60<271.253 447.858>
LayerCount: 2
Fore
SplineSet
351 33 m 1
 377 5 386 -29 380 -70 c 0
 374 -109 354 -142 323 -169 c 0
 292 -196 257 -210 218 -210 c 0
 186 -210 159 -201 137 -181 c 1
 166 -152 181 -137 181 -137 c 5
 193 -147 209 -153 227 -153 c 0
 249 -153 270 -144 289 -128 c 0
 308 -112 320 -92 323 -70 c 0
 326 -54 323 -39 317 -26 c 0
 311 -13 303 -3 290 4 c 1
 351 33 l 1
374 512 m 0
 444 512 498 487 536 437 c 1
 488 393 l 1
 459 432 419 452 365 452 c 0
 310 452 261 433 221 394 c 0
 181 355 157 307 148 250 c 0
 139 193 148 145 176 106 c 0
 204 67 246 48 301 48 c 0
 355 48 402 68 443 107 c 1
 477 63 l 1
 423 13 361 -12 291 -12 c 0
 220 -12 165 13 127 64 c 0
 89 115 76 177 88 250 c 0
 100 323 132 385 186 436 c 0
 240 487 303 512 374 512 c 0
EndSplineSet
EndChar

StartChar: egrave
Encoding: 232 232 165
GlifName: egrave
Width: 554
Flags: W
HStem: -12 60<217.467 412.506> 220 60<154 500.548> 452 60<274.086 444.433> 681 20G<253 356.331>
LayerCount: 2
Fore
SplineSet
552 220 m 5
 145 220 l 5
 143 170 156 129 184 97 c 4
 212 65 252 48 301 48 c 4
 371 48 428 68 473 107 c 5
 507 63 l 5
 449 13 377 -12 291 -12 c 4
 220 -12 165 13 127 64 c 4
 89 115 76 177 88 250 c 4
 100 323 132 385 186 436 c 4
 240 487 303 512 374 512 c 4
 444 512 494 488 526 438 c 4
 558 388 569 325 557 250 c 6
 552 220 l 5
365 452 m 4
 316 452 271 435 233 403 c 4
 195 371 168 330 154 280 c 5
 500 280 l 5
 503 331 494 372 471 404 c 4
 448 436 413 452 365 452 c 4
357 574 m 1
 253 701 l 1
 342 701 l 1
 433 574 l 1
 357 574 l 1
EndSplineSet
EndChar

StartChar: eacute
Encoding: 233 233 166
GlifName: eacute
Width: 554
Flags: W
HStem: -12 60<217.467 412.506> 220 60<154 500.548> 452 60<274.086 444.433> 680 20G<446.524 556>
LayerCount: 2
Fore
SplineSet
552 220 m 5
 145 220 l 5
 143 170 156 129 184 97 c 4
 212 65 252 48 301 48 c 4
 371 48 428 68 473 107 c 5
 507 63 l 5
 449 13 377 -12 291 -12 c 4
 220 -12 165 13 127 64 c 4
 89 115 76 177 88 250 c 4
 100 323 132 385 186 436 c 4
 240 487 303 512 374 512 c 4
 444 512 494 488 526 438 c 4
 558 388 569 325 557 250 c 6
 552 220 l 5
365 452 m 4
 316 452 271 435 233 403 c 4
 195 371 168 330 154 280 c 5
 500 280 l 5
 503 331 494 372 471 404 c 4
 448 436 413 452 365 452 c 4
338 574 m 1
 467 700 l 1
 556 700 l 1
 414 574 l 1
 338 574 l 1
EndSplineSet
EndChar

StartChar: ecircumflex
Encoding: 234 234 167
GlifName: ecircumflex
Width: 554
Flags: W
HStem: -12 60<217.467 412.506> 220 60<154 500.548> 452 60<274.086 444.433> 680 20G<335.778 455.873>
LayerCount: 2
Fore
SplineSet
552 220 m 5
 145 220 l 5
 143 170 156 129 184 97 c 4
 212 65 252 48 301 48 c 4
 371 48 428 68 473 107 c 5
 507 63 l 5
 449 13 377 -12 291 -12 c 4
 220 -12 165 13 127 64 c 4
 89 115 76 177 88 250 c 4
 100 323 132 385 186 436 c 4
 240 487 303 512 374 512 c 4
 444 512 494 488 526 438 c 4
 558 388 569 325 557 250 c 6
 552 220 l 5
365 452 m 4
 316 452 271 435 233 403 c 4
 195 371 168 330 154 280 c 5
 500 280 l 5
 503 331 494 372 471 404 c 4
 448 436 413 452 365 452 c 4
218 574 m 1
 358 700 l 1
 440 700 l 1
 540 574 l 1
 458 574 l 1
 392 654 l 1
 300 574 l 1
 218 574 l 1
EndSplineSet
EndChar

StartChar: edieresis
Encoding: 235 235 168
GlifName: edieresis
Width: 554
Flags: W
HStem: -12 60<217.467 412.506> 220 60<154 500.548> 452 60<274.086 444.433> 630 80<242.329 306.67 483.33 549.335>
VStem: 234 80<642.376 698.624>
LayerCount: 2
Fore
SplineSet
552 220 m 5
 145 220 l 5
 143 170 156 129 184 97 c 4
 212 65 252 48 301 48 c 4
 371 48 428 68 473 107 c 5
 507 63 l 5
 449 13 377 -12 291 -12 c 4
 220 -12 165 13 127 64 c 4
 89 115 76 177 88 250 c 4
 100 323 132 385 186 436 c 4
 240 487 303 512 374 512 c 4
 444 512 494 488 526 438 c 4
 558 388 569 325 557 250 c 6
 552 220 l 5
365 452 m 4
 316 452 271 435 233 403 c 4
 195 371 168 330 154 280 c 5
 500 280 l 5
 503 331 494 372 471 404 c 4
 448 436 413 452 365 452 c 4
280 710 m 0
 291 710 300 707 307 699 c 0
 314 691 316 681 314 670 c 0
 312 659 307 650 298 642 c 0
 289 634 279 630 268 630 c 0
 257 630 249 634 242 642 c 0
 235 650 232 659 234 670 c 0
 236 681 242 691 251 699 c 0
 260 707 269 710 280 710 c 0
522 710 m 0
 533 710 543 707 550 699 c 0
 557 691 558 681 556 670 c 0
 554 659 550 650 541 642 c 0
 532 634 521 630 510 630 c 0
 499 630 490 634 483 642 c 0
 476 650 474 659 476 670 c 0
 478 681 483 691 492 699 c 0
 501 707 511 710 522 710 c 0
EndSplineSet
EndChar

StartChar: igrave
Encoding: 236 236 169
GlifName: igrave
Width: 225
Flags: W
HStem: 0 21G<82 145.16> 480 20G<157.84 221> 681 20G<60 163.331>
VStem: 82 60<0 60> 161 60<440 500>
LayerCount: 2
Fore
SplineSet
164 574 m 1
 60 701 l 1
 149 701 l 1
 240 574 l 1
 164 574 l 1
82 0 m 1
 161 500 l 1
 221 500 l 1
 142 0 l 1
 82 0 l 1
EndSplineSet
EndChar

StartChar: iacute
Encoding: 237 237 170
GlifName: iacute
Width: 225
Flags: W
HStem: 0 21G<82 145.16> 480 20G<157.84 221> 680 20G<270.524 380>
VStem: 82 60<0 60> 161 60<440 500>
LayerCount: 2
Fore
SplineSet
162 574 m 1
 291 700 l 1
 380 700 l 1
 238 574 l 1
 162 574 l 1
82 0 m 1
 161 500 l 1
 221 500 l 1
 142 0 l 1
 82 0 l 1
EndSplineSet
EndChar

StartChar: icircumflex
Encoding: 238 238 171
GlifName: icircumflex
Width: 225
Flags: W
HStem: 0 21G<82 145.16> 480 20G<157.84 221> 680 20G<159.778 279.873>
VStem: 82 60<0 60> 161 60<440 500>
LayerCount: 2
Fore
SplineSet
42 574 m 1
 182 700 l 1
 264 700 l 1
 364 574 l 1
 282 574 l 1
 216 654 l 5
 124 574 l 1
 42 574 l 1
82 0 m 1
 161 500 l 1
 221 500 l 1
 142 0 l 1
 82 0 l 1
EndSplineSet
EndChar

StartChar: idieresis
Encoding: 239 239 172
GlifName: idieresis
Width: 225
Flags: W
HStem: 0 21G<82 145.16> 480 20G<157.84 221> 630 80<117.329 181.67 256.33 321.67>
VStem: 82 60<0 60> 109 80<642.376 698.624> 161 60<440 500>
LayerCount: 2
Fore
SplineSet
82 0 m 1xf4
 161 500 l 1
 221 500 l 1
 142 0 l 1
 82 0 l 1xf4
155 710 m 0
 166 710 175 707 182 699 c 0
 189 691 191 681 189 670 c 0
 187 659 182 650 173 642 c 0
 164 634 154 630 143 630 c 0
 132 630 124 634 117 642 c 0
 110 650 107 659 109 670 c 0xe8
 111 681 117 691 126 699 c 0
 135 707 144 710 155 710 c 0
295 710 m 0
 306 710 315 707 322 699 c 0
 329 691 331 681 329 670 c 0
 327 659 322 650 313 642 c 0
 304 634 294 630 283 630 c 0
 272 630 263 634 256 642 c 0
 249 650 247 659 249 670 c 0
 251 681 256 691 265 699 c 0
 274 707 284 710 295 710 c 0
EndSplineSet
EndChar

StartChar: eth
Encoding: 240 240 173
GlifName: eth
Width: 594
Flags: W
HStem: -12 60<216.502 393.118> 452 60<274.051 450.667> 654 58<289 372.804> 683 20G<496.305 539.02>
LayerCount: 2
Fore
SplineSet
375 512 m 0xc0
 446 512 501 487 539 436 c 0
 577 385 591 324 579 250 c 0
 567 176 534 115 480 64 c 0
 426 13 363 -12 292 -12 c 0
 221 -12 166 13 128 64 c 0
 90 115 77 176 89 250 c 0
 101 324 133 385 187 436 c 0
 241 487 304 512 375 512 c 0xc0
366 452 m 0
 311 452 263 433 223 394 c 0
 183 355 158 307 149 250 c 0
 140 193 150 145 178 106 c 0
 206 67 247 48 302 48 c 0
 357 48 404 67 444 106 c 0
 484 145 510 193 519 250 c 0
 528 307 517 355 489 394 c 0
 461 433 421 452 366 452 c 0
265 654 m 1xe0
 289 712 l 1
 306 712 330 709 359 702 c 0
 383 696 405 688 426 678 c 0
 447 668 471 651 495 628 c 0
 519 605 538 577 553 546 c 0
 568 515 579 473 585 422 c 0
 591 371 589 313 579 250 c 1
 519 250 l 1
 533 339 531 412 513 469 c 4
 496 524 471 565 439 590 c 0
 405 617 374 635 345 642 c 0
 313 650 287 654 265 654 c 1xe0
341 585 m 1
 528 703 l 1xd0
 555 654 l 1
 367 536 l 1
 341 585 l 1
EndSplineSet
EndChar

StartChar: ntilde
Encoding: 241 241 174
GlifName: ntilde
Width: 559
Flags: W
HStem: 0 21G<78 141.134 437 500.134> 452 60<281.049 431.033> 480 20G<153.84 217> 572 56<409.718 477.791> 644 56<289.158 355.081>
VStem: 78 60<0 60> 157 60<440 500> 437 60<0 60> 485 59<634.423 666>
LayerCount: 2
Fore
SplineSet
433 572 m 0x9e80
 404 572 381 584 365 608 c 0
 358 617 353 626 347 633 c 0
 341 640 335 644 327 644 c 0
 306 644 291 632 281 607 c 1
 222 607 l 1
 229 633 243 654 265 672 c 0
 287 690 311 700 336 700 c 0
 361 700 382 688 399 664 c 0
 406 655 412 646 418 639 c 0
 424 632 432 628 441 628 c 0
 462 628 477 641 485 666 c 1
 544 666 l 1
 536 639 522 617 501 599 c 0
 480 581 458 572 433 572 c 0x9e80
497 0 m 1xdf
 437 0 l 1
 479 268 l 2
 488 325 482 369 459 402 c 0
 436 435 403 452 360 452 c 0xdf
 317 452 278 435 245 402 c 0
 212 369 189 325 180 268 c 2
 138 0 l 5
 78 0 l 5
 157 500 l 1
 217 500 l 1xbf
 206 432 l 1
 210 437 215 442 219 446 c 0
 261 490 311 512 369 512 c 0
 429 512 474 489 507 445 c 0
 540 401 551 341 539 268 c 2
 497 0 l 1xdf
EndSplineSet
EndChar

StartChar: ograve
Encoding: 242 242 175
GlifName: ograve
Width: 584
Flags: W
HStem: -12 60<215.171 393.324> 452 60<271.253 449.498> 681 20G<251 354.331>
LayerCount: 2
Fore
SplineSet
355 574 m 1
 251 701 l 1
 340 701 l 1
 431 574 l 1
 355 574 l 1
365 452 m 0
 310 452 261 433 221 394 c 0
 181 355 157 307 148 250 c 0
 139 193 148 145 176 106 c 0
 204 67 246 48 301 48 c 0
 356 48 403 67 443 106 c 0
 483 145 508 193 517 250 c 0
 526 307 516 355 488 394 c 0
 460 433 420 452 365 452 c 0
374 512 m 0
 445 512 499 487 537 436 c 0
 575 385 589 323 577 250 c 0
 565 177 532 115 478 64 c 0
 424 13 362 -12 291 -12 c 0
 220 -12 165 13 127 64 c 0
 89 115 76 177 88 250 c 0
 100 323 132 385 186 436 c 0
 240 487 303 512 374 512 c 0
EndSplineSet
EndChar

StartChar: oacute
Encoding: 243 243 176
GlifName: oacute
Width: 584
Flags: W
HStem: -12 60<215.171 393.324> 452 60<271.253 449.498> 680 20G<453.524 563>
LayerCount: 2
Fore
SplineSet
345 574 m 1
 474 700 l 1
 563 700 l 1
 421 574 l 1
 345 574 l 1
365 452 m 0
 310 452 261 433 221 394 c 0
 181 355 157 307 148 250 c 0
 139 193 148 145 176 106 c 0
 204 67 246 48 301 48 c 0
 356 48 403 67 443 106 c 0
 483 145 508 193 517 250 c 0
 526 307 516 355 488 394 c 0
 460 433 420 452 365 452 c 0
374 512 m 0
 445 512 499 487 537 436 c 0
 575 385 589 323 577 250 c 0
 565 177 532 115 478 64 c 0
 424 13 362 -12 291 -12 c 0
 220 -12 165 13 127 64 c 0
 89 115 76 177 88 250 c 0
 100 323 132 385 186 436 c 0
 240 487 303 512 374 512 c 0
EndSplineSet
EndChar

StartChar: ocircumflex
Encoding: 244 244 177
GlifName: ocircumflex
Width: 584
Flags: W
HStem: -12 60<215.171 393.324> 452 60<271.253 449.498> 680 20G<351.778 471.873>
LayerCount: 2
Fore
SplineSet
234 574 m 1
 374 700 l 1
 456 700 l 1
 556 574 l 1
 474 574 l 1
 408 654 l 5
 316 574 l 1
 234 574 l 1
365 452 m 0
 310 452 261 433 221 394 c 0
 181 355 157 307 148 250 c 0
 139 193 148 145 176 106 c 0
 204 67 246 48 301 48 c 0
 356 48 403 67 443 106 c 0
 483 145 508 193 517 250 c 0
 526 307 516 355 488 394 c 0
 460 433 420 452 365 452 c 0
374 512 m 0
 445 512 499 487 537 436 c 0
 575 385 589 323 577 250 c 0
 565 177 532 115 478 64 c 0
 424 13 362 -12 291 -12 c 0
 220 -12 165 13 127 64 c 0
 89 115 76 177 88 250 c 0
 100 323 132 385 186 436 c 0
 240 487 303 512 374 512 c 0
EndSplineSet
EndChar

StartChar: otilde
Encoding: 245 245 178
GlifName: otilde
Width: 584
Flags: W
HStem: -12 60<215.171 393.324> 452 60<271.253 449.498> 572 56<427.718 495.791> 644 56<307.158 373.081>
VStem: 503 59<634.423 666>
LayerCount: 2
Fore
SplineSet
451 572 m 0
 422 572 399 584 383 608 c 0
 376 617 371 626 365 633 c 0
 359 640 353 644 345 644 c 0
 324 644 309 632 299 607 c 1
 240 607 l 1
 247 633 261 654 283 672 c 0
 305 690 329 700 354 700 c 0
 379 700 400 688 417 664 c 0
 424 655 430 646 436 639 c 0
 442 632 450 628 459 628 c 0
 480 628 495 641 503 666 c 1
 562 666 l 1
 554 639 540 617 519 599 c 0
 498 581 476 572 451 572 c 0
365 452 m 0
 310 452 261 433 221 394 c 0
 181 355 157 307 148 250 c 0
 139 193 148 145 176 106 c 0
 204 67 246 48 301 48 c 0
 356 48 403 67 443 106 c 0
 483 145 508 193 517 250 c 0
 526 307 516 355 488 394 c 0
 460 433 420 452 365 452 c 0
374 512 m 0
 445 512 499 487 537 436 c 0
 575 385 589 323 577 250 c 0
 565 177 532 115 478 64 c 0
 424 13 362 -12 291 -12 c 0
 220 -12 165 13 127 64 c 0
 89 115 76 177 88 250 c 0
 100 323 132 385 186 436 c 0
 240 487 303 512 374 512 c 0
EndSplineSet
EndChar

StartChar: odieresis
Encoding: 246 246 179
GlifName: odieresis
Width: 584
Flags: W
HStem: -12 60<215.171 393.324> 452 60<271.253 449.498> 630 80<252.33 318.335 495.329 559.67>
VStem: 487 80<642.376 698.624>
LayerCount: 2
Fore
SplineSet
291 710 m 4
 302 710 312 707 319 699 c 4
 326 691 327 681 325 670 c 4
 323 659 319 650 310 642 c 4
 301 634 290 630 279 630 c 4
 268 630 259 634 252 642 c 4
 245 650 243 659 245 670 c 4
 247 681 252 691 261 699 c 4
 270 707 280 710 291 710 c 4
533 710 m 4
 544 710 553 707 560 699 c 4
 567 691 569 681 567 670 c 4
 565 659 560 650 551 642 c 4
 542 634 532 630 521 630 c 4
 510 630 502 634 495 642 c 4
 488 650 485 659 487 670 c 4
 489 681 495 691 504 699 c 4
 513 707 522 710 533 710 c 4
365 452 m 0
 310 452 261 433 221 394 c 0
 181 355 157 307 148 250 c 0
 139 193 148 145 176 106 c 0
 204 67 246 48 301 48 c 0
 356 48 403 67 443 106 c 0
 483 145 508 193 517 250 c 0
 526 307 516 355 488 394 c 0
 460 433 420 452 365 452 c 0
374 512 m 0
 445 512 499 487 537 436 c 0
 575 385 589 323 577 250 c 0
 565 177 532 115 478 64 c 0
 424 13 362 -12 291 -12 c 0
 220 -12 165 13 127 64 c 0
 89 115 76 177 88 250 c 0
 100 323 132 385 186 436 c 0
 240 487 303 512 374 512 c 0
EndSplineSet
EndChar

StartChar: divide
Encoding: 247 247 180
GlifName: divide
Width: 625
Flags: W
HStem: 109 80<304.329 368.671> 267 61<175 545> 406 80<351.329 415.671>
CounterMasks: 1 e0
LayerCount: 2
Fore
SplineSet
390 486 m 0
 401 486 409 483 416 475 c 0
 423 467 426 457 424 446 c 0
 422 435 416 425 407 417 c 0
 398 409 388 406 377 406 c 0
 366 406 358 409 351 417 c 0
 344 425 342 435 344 446 c 0
 346 457 351 467 360 475 c 0
 369 483 379 486 390 486 c 0
175 328 m 1
 555 328 l 1
 545 267 l 1
 165 267 l 1
 175 328 l 1
343 189 m 0
 354 189 362 186 369 178 c 0
 376 170 379 160 377 149 c 0
 375 138 369 129 360 121 c 0
 351 113 341 109 330 109 c 0
 319 109 311 113 304 121 c 0
 297 129 295 138 297 149 c 0
 299 160 304 170 313 178 c 0
 322 186 332 189 343 189 c 0
EndSplineSet
EndChar

StartChar: oslash
Encoding: 248 248 181
GlifName: oslash
Width: 584
Flags: W
HStem: -12 60<215.171 393.324> 452 60<271.253 449.498>
LayerCount: 2
Fore
SplineSet
365 452 m 0
 310 452 261 433 221 394 c 0
 181 355 157 307 148 250 c 0
 139 193 148 145 176 106 c 0
 204 67 246 48 301 48 c 0
 356 48 403 67 443 106 c 0
 483 145 508 193 517 250 c 0
 526 307 516 355 488 394 c 0
 460 433 420 452 365 452 c 0
374 512 m 0
 445 512 499 487 537 436 c 0
 575 385 589 323 577 250 c 0
 565 177 532 115 478 64 c 0
 424 13 362 -12 291 -12 c 0
 220 -12 165 13 127 64 c 0
 89 115 76 177 88 250 c 0
 100 323 132 385 186 436 c 0
 240 487 303 512 374 512 c 0
554 512 m 1
 594 474 l 1
 110 -12 l 1
 70 27 l 1
 554 512 l 1
EndSplineSet
EndChar

StartChar: ugrave
Encoding: 249 249 182
GlifName: ugrave
Width: 544
Flags: W
HStem: -12 60<209.309 358.781> 480 20G<138.866 202 497.866 561> 681 20G<235 338.331>
VStem: 142 60<440 500> 501 60<440 500>
LayerCount: 2
Fore
SplineSet
339 574 m 1
 235 701 l 1
 324 701 l 1
 415 574 l 1
 339 574 l 1
142 500 m 1
 202 500 l 1
 160 232 l 2
 151 175 159 131 182 98 c 0
 205 65 238 48 281 48 c 0
 324 48 362 65 395 98 c 0
 428 131 450 175 459 232 c 2
 501 500 l 1
 561 500 l 1
 519 232 l 2
 507 159 478 99 431 55 c 0
 384 11 331 -12 271 -12 c 0
 211 -12 165 11 132 55 c 0
 99 99 88 159 100 232 c 2
 142 500 l 1
EndSplineSet
EndChar

StartChar: uacute
Encoding: 250 250 183
GlifName: uacute
Width: 544
Flags: W
HStem: -12 60<209.309 358.781> 480 20G<138.866 202 497.866 561> 680 20G<441.524 551>
VStem: 142 60<440 500> 501 60<440 500>
LayerCount: 2
Fore
SplineSet
333 574 m 1
 462 700 l 1
 551 700 l 1
 409 574 l 1
 333 574 l 1
142 500 m 1
 202 500 l 1
 160 232 l 2
 151 175 159 131 182 98 c 0
 205 65 238 48 281 48 c 0
 324 48 362 65 395 98 c 0
 428 131 450 175 459 232 c 2
 501 500 l 1
 561 500 l 1
 519 232 l 2
 507 159 478 99 431 55 c 0
 384 11 331 -12 271 -12 c 0
 211 -12 165 11 132 55 c 0
 99 99 88 159 100 232 c 2
 142 500 l 1
EndSplineSet
EndChar

StartChar: ucircumflex
Encoding: 251 251 184
GlifName: ucircumflex
Width: 544
Flags: W
HStem: -12 60<209.309 358.781> 480 20G<138.866 202 497.866 561> 680 20G<320.778 440.873>
VStem: 142 60<440 500> 501 60<440 500>
LayerCount: 2
Fore
SplineSet
203 574 m 1
 343 700 l 1
 425 700 l 1
 525 574 l 1
 443 574 l 1
 377 654 l 5
 285 574 l 1
 203 574 l 1
142 500 m 1
 202 500 l 1
 160 232 l 2
 151 175 159 131 182 98 c 0
 205 65 238 48 281 48 c 0
 324 48 362 65 395 98 c 0
 428 131 450 175 459 232 c 2
 501 500 l 1
 561 500 l 1
 519 232 l 2
 507 159 478 99 431 55 c 0
 384 11 331 -12 271 -12 c 0
 211 -12 165 11 132 55 c 0
 99 99 88 159 100 232 c 2
 142 500 l 1
EndSplineSet
EndChar

StartChar: udieresis
Encoding: 252 252 185
GlifName: udieresis
Width: 544
Flags: W
HStem: -12 60<209.309 358.781> 480 20G<138.866 202 497.866 561> 630 80<229.329 294.335 471.329 535.67>
VStem: 142 60<440 500> 463 80<642.376 698.624> 501 60<440 500>
LayerCount: 2
Fore
SplineSet
267 710 m 4xf0
 278 710 288 707 295 699 c 4
 302 691 303 681 301 670 c 4
 299 659 295 650 286 642 c 4
 277 634 266 630 255 630 c 4
 244 630 236 634 229 642 c 4
 222 650 219 659 221 670 c 4
 223 681 229 691 238 699 c 4
 247 707 256 710 267 710 c 4xf0
509 710 m 4
 520 710 529 707 536 699 c 4
 543 691 545 681 543 670 c 4
 541 659 536 650 527 642 c 4
 518 634 508 630 497 630 c 4
 486 630 478 634 471 642 c 4
 464 650 461 659 463 670 c 4xf8
 465 681 471 691 480 699 c 4
 489 707 498 710 509 710 c 4
142 500 m 1
 202 500 l 1
 160 232 l 2
 151 175 159 131 182 98 c 0
 205 65 238 48 281 48 c 0
 324 48 362 65 395 98 c 0
 428 131 450 175 459 232 c 2
 501 500 l 1
 561 500 l 1xf4
 519 232 l 2
 507 159 478 99 431 55 c 0
 384 11 331 -12 271 -12 c 0
 211 -12 165 11 132 55 c 0
 99 99 88 159 100 232 c 2
 142 500 l 1
EndSplineSet
EndChar

StartChar: yacute
Encoding: 253 253 186
GlifName: yacute
Width: 511
Flags: W
HStem: -212 59<-1 112.792> 480 20G<92 162.213 501.341 578> 680 20G<398.524 508>
VStem: 92 65<435 500>
LayerCount: 2
Fore
SplineSet
290 574 m 1
 419 700 l 1
 508 700 l 1
 366 574 l 1
 290 574 l 1
92 500 m 1
 157 500 l 1
 267 78 l 1
 513 500 l 1
 578 500 l 1
 241 -80 l 2
 218 -120 187 -152 146 -176 c 0
 105 -200 63 -212 19 -212 c 2
 -11 -212 l 1
 -1 -153 l 1
 29 -153 l 2
 61 -153 92 -144 121 -127 c 0
 150 -110 172 -87 190 -57 c 2
 223 0 l 1
 92 500 l 1
EndSplineSet
EndChar

StartChar: thorn
Encoding: 254 254 187
GlifName: thorn
Width: 614
Flags: W
HStem: -200 21G<45 107.158> -12 60<239.64 414.118> 452 60<296.512 471.667> 680 20G<184.822 247>
VStem: 45 59<-200 -141> 188 59<641 700>
LayerCount: 2
Fore
SplineSet
104 -200 m 1
 45 -200 l 1
 188 700 l 1
 247 700 l 1
 202 415 l 1
 208 423 214 431 221 438 c 0
 268 487 326 512 396 512 c 0
 467 512 522 487 560 436 c 0
 598 385 612 324 600 250 c 0
 588 176 555 115 501 64 c 0
 447 13 384 -12 313 -12 c 0
 243 -12 193 13 162 62 c 0
 157 69 153 77 149 85 c 1
 104 -200 l 1
387 452 m 0
 333 452 285 433 247 394 c 0
 209 355 185 308 176 250 c 0
 167 192 176 145 202 106 c 0
 228 67 269 48 323 48 c 0
 378 48 425 67 465 106 c 0
 505 145 531 193 540 250 c 0
 549 307 538 355 510 394 c 0
 482 433 442 452 387 452 c 0
EndSplineSet
EndChar

StartChar: ydieresis
Encoding: 255 255 188
GlifName: ydieresis
Width: 511
Flags: W
HStem: -212 59<-1 112.792> 480 20G<92 162.213 501.341 578> 630 80<207.329 272.335 448.33 513.67>
VStem: 92 65<435 500>
LayerCount: 2
Fore
SplineSet
245 710 m 4
 256 710 266 707 273 699 c 4
 280 691 281 681 279 670 c 4
 277 659 273 650 264 642 c 4
 255 634 244 630 233 630 c 4
 222 630 214 634 207 642 c 4
 200 650 197 659 199 670 c 4
 201 681 207 691 216 699 c 4
 225 707 234 710 245 710 c 4
487 710 m 4
 498 710 507 707 514 699 c 4
 521 691 523 681 521 670 c 4
 519 659 514 650 505 642 c 4
 496 634 486 630 475 630 c 4
 464 630 455 634 448 642 c 4
 441 650 439 659 441 670 c 4
 443 681 448 691 457 699 c 4
 466 707 476 710 487 710 c 4
92 500 m 1
 157 500 l 1
 267 78 l 1
 513 500 l 1
 578 500 l 1
 241 -80 l 2
 218 -120 187 -152 146 -176 c 0
 105 -200 63 -212 19 -212 c 2
 -11 -212 l 1
 -1 -153 l 1
 29 -153 l 2
 61 -153 92 -144 121 -127 c 0
 150 -110 172 -87 190 -57 c 2
 223 0 l 1
 92 500 l 1
EndSplineSet
EndChar

StartChar: Amacron
Encoding: 256 256 189
GlifName: A_macron
Width: 607
Flags: W
HStem: 0 21G<13 88.3415 525.902 595> 205 60<216 476> 680 20G<374.371 449.286> 750 60<284 575>
VStem: 530 65<0 65>
LayerCount: 2
Fore
SplineSet
275 750 m 1
 284 810 l 1
 584 810 l 1
 575 750 l 1
 275 750 l 1
216 265 m 1
 476 265 l 1
 402 619 l 1
 216 265 l 1
184 205 m 1
 78 0 l 1
 13 0 l 1
 385 700 l 1
 445 700 l 1
 595 0 l 1
 530 0 l 1
 488 205 l 1
 184 205 l 1
EndSplineSet
EndChar

StartChar: amacron
Encoding: 257 257 190
GlifName: amacron
Width: 608
Flags: W
HStem: -12 60<215.171 390.065> 0 21G<471 534.16> 452 60<271.253 447.029> 480 20G<546.941 610> 580 60<250 541>
VStem: 471 60<0 60> 550 60<440 500>
LayerCount: 2
Fore
SplineSet
241 580 m 1x0e
 250 640 l 1
 550 640 l 1
 541 580 l 1
 241 580 l 1x0e
550 500 m 1x1e
 610 500 l 1
 531 0 l 1
 471 0 l 1x5e
 484 85 l 1
 478 77 472 69 465 62 c 0
 418 13 361 -12 291 -12 c 0
 220 -12 165 13 127 64 c 0
 89 115 76 177 88 250 c 0
 100 323 132 385 186 436 c 0
 240 487 303 512 374 512 c 0xae
 444 512 493 487 524 438 c 0
 529 431 533 423 537 415 c 1
 550 500 l 1x1e
365 452 m 0xae
 310 452 261 433 221 394 c 0
 181 355 157 307 148 250 c 0
 139 193 148 145 176 106 c 0
 204 67 246 48 301 48 c 0
 355 48 401 67 439 106 c 0
 477 145 502 192 511 250 c 0
 520 308 510 355 484 394 c 0
 458 433 419 452 365 452 c 0xae
EndSplineSet
EndChar

StartChar: Abreve
Encoding: 258 258 191
GlifName: A_breve
Width: 607
Flags: W
HStem: 0 21G<13 88.3415 525.902 595> 205 60<216 476> 680 20G<374.371 449.286> 739 60<372.875 498.923>
VStem: 296 60<819.612 870> 530 65<0 65>
LayerCount: 2
Fore
SplineSet
296 870 m 1
 356 870 l 1
 353 849 358 832 373 819 c 0
 388 806 407 799 432 799 c 0
 457 799 478 806 497 819 c 0
 516 832 527 849 530 870 c 1
 590 870 l 1
 584 834 565 803 533 777 c 0
 501 751 464 739 422 739 c 0
 380 739 347 751 323 777 c 0
 299 803 290 834 296 870 c 1
216 265 m 1
 476 265 l 1
 402 619 l 1
 216 265 l 1
184 205 m 1
 78 0 l 1
 13 0 l 1
 385 700 l 1
 445 700 l 1
 595 0 l 1
 530 0 l 1
 488 205 l 1
 184 205 l 1
EndSplineSet
EndChar

StartChar: abreve
Encoding: 259 259 192
GlifName: abreve
Width: 608
Flags: W
HStem: -12 60<215.171 390.065> 0 21G<471 534.16> 452 60<271.253 447.029> 480 20G<546.941 610> 569 60<342.875 469.378> 680 20G<263 326 498.5 560>
VStem: 266 60<649.612 700> 471 60<0 60> 550 60<440 500>
LayerCount: 2
Fore
SplineSet
266 700 m 1x0f80
 326 700 l 1
 323 679 328 662 343 649 c 0
 358 636 377 629 402 629 c 0
 427 629 448 636 467 649 c 0
 486 662 497 679 500 700 c 1
 560 700 l 1
 554 664 534 633 502 607 c 0
 470 581 434 569 392 569 c 0
 350 569 317 581 293 607 c 0
 269 633 260 664 266 700 c 1x0f80
550 500 m 1x1f80
 610 500 l 1
 531 0 l 1
 471 0 l 1x5f80
 484 85 l 1
 478 77 472 69 465 62 c 0
 418 13 361 -12 291 -12 c 0
 220 -12 165 13 127 64 c 0
 89 115 76 177 88 250 c 0
 100 323 132 385 186 436 c 0
 240 487 303 512 374 512 c 0xaf80
 444 512 493 487 524 438 c 0
 529 431 533 423 537 415 c 1
 550 500 l 1x1f80
365 452 m 0xaf80
 310 452 261 433 221 394 c 0
 181 355 157 307 148 250 c 0
 139 193 148 145 176 106 c 0
 204 67 246 48 301 48 c 0
 355 48 401 67 439 106 c 0
 477 145 502 192 511 250 c 0
 520 308 510 355 484 394 c 0
 458 433 419 452 365 452 c 0xaf80
EndSplineSet
EndChar

StartChar: Aogonek
Encoding: 260 260 193
GlifName: A_ogonek
Width: 607
Flags: W
HStem: -212 55<472.484 551.721> 0 21G<13 88.3415 525.902 595> 205 60<216 476> 680 20G<374.371 449.286>
VStem: 411 55<-143.577 -79.5469>
LayerCount: 2
Fore
SplineSet
583 -170 m 5
 579 -175 575 -179 570 -183 c 0
 548 -202 522 -212 495 -212 c 0
 467 -212 446 -203 429 -183 c 0
 413 -164 407 -140 411 -114 c 0
 416 -85 431 -59 459 -35 c 0
 478 -19 504 -3 534 12 c 1
 592 12 l 1
 485 -81 l 2
 475 -90 468 -100 466 -112 c 0
 464 -124 467 -135 475 -144 c 0
 483 -153 492 -157 504 -157 c 0
 516 -157 527 -153 537 -144 c 0
 539 -142 542 -140 543 -138 c 9
 583 -170 l 5
216 265 m 1
 476 265 l 1
 402 619 l 1
 216 265 l 1
184 205 m 1
 78 0 l 1
 13 0 l 1
 385 700 l 1
 445 700 l 1
 595 0 l 1
 530 0 l 1
 488 205 l 1
 184 205 l 1
EndSplineSet
EndChar

StartChar: aogonek
Encoding: 261 261 194
GlifName: aogonek
Width: 608
Flags: W
HStem: -212 55<412.484 491.721> -12 60<215.171 390.065> 0 12<471.199 474> 452 60<271.253 447.029> 480 20G<546.941 610>
VStem: 351 55<-143.577 -79.5469> 550 60<440 500>
LayerCount: 2
Fore
SplineSet
523 -170 m 5xa6
 519 -175 515 -179 510 -183 c 0
 488 -202 462 -212 435 -212 c 0
 407 -212 386 -203 369 -183 c 0
 353 -164 347 -140 351 -114 c 0
 356 -85 371 -59 399 -35 c 0
 418 -19 444 -3 474 12 c 1
 532 12 l 1
 425 -81 l 2
 415 -90 408 -100 406 -112 c 0
 404 -124 407 -135 415 -144 c 0
 423 -153 432 -157 444 -157 c 0
 456 -157 468 -153 478 -144 c 0
 480 -142 482 -140 483 -138 c 9
 523 -170 l 5xa6
550 500 m 1x8e
 610 500 l 1
 531 0 l 1
 471 0 l 1xae
 484 85 l 1
 478 77 472 69 465 62 c 0
 418 13 361 -12 291 -12 c 0
 220 -12 165 13 127 64 c 0
 89 115 76 177 88 250 c 0
 100 323 132 385 186 436 c 0
 240 487 303 512 374 512 c 0xd6
 444 512 493 487 524 438 c 0
 529 431 533 423 537 415 c 1
 550 500 l 1x8e
365 452 m 0xd6
 310 452 261 433 221 394 c 0
 181 355 157 307 148 250 c 0
 139 193 148 145 176 106 c 0
 204 67 246 48 301 48 c 0
 355 48 401 67 439 106 c 0
 477 145 502 192 511 250 c 0
 520 308 510 355 484 394 c 0
 458 433 419 452 365 452 c 0xd6
EndSplineSet
EndChar

StartChar: Cacute
Encoding: 262 262 195
GlifName: C_acute
Width: 683
Flags: W
HStem: -12 60<292.634 511.852> 652 60<381.268 600.099>
LayerCount: 2
Fore
SplineSet
458 744 m 1
 587 870 l 1
 676 870 l 1
 534 744 l 1
 458 744 l 1
505 712 m 0
 555 712 600 703 639 683 c 0
 678 663 711 636 736 600 c 1
 686 556 l 1
 642 620 579 652 495 652 c 0
 414 652 342 623 281 564 c 0
 220 505 181 434 168 350 c 0
 155 266 171 195 214 136 c 0
 257 77 319 48 400 48 c 0
 484 48 557 80 621 144 c 1
 657 101 l 1
 620 65 579 38 534 18 c 0
 489 -2 440 -12 390 -12 c 0
 291 -12 216 23 164 93 c 0
 112 163 92 248 108 350 c 0
 124 452 171 537 245 607 c 0
 319 677 406 712 505 712 c 0
EndSplineSet
EndChar

StartChar: cacute
Encoding: 263 263 196
GlifName: cacute
Width: 504
Flags: W
HStem: -12 60<215.171 389.997> 452 60<271.253 447.858> 680 20G<449.524 559>
LayerCount: 2
Fore
SplineSet
341 574 m 1
 470 700 l 1
 559 700 l 1
 417 574 l 1
 341 574 l 1
374 512 m 0
 444 512 498 487 536 437 c 1
 488 393 l 1
 459 432 419 452 365 452 c 0
 310 452 261 433 221 394 c 0
 181 355 157 307 148 250 c 0
 139 193 148 145 176 106 c 0
 204 67 246 48 301 48 c 0
 355 48 402 68 443 107 c 1
 477 63 l 1
 423 13 361 -12 291 -12 c 0
 220 -12 165 13 127 64 c 0
 89 115 76 177 88 250 c 0
 100 323 132 385 186 436 c 0
 240 487 303 512 374 512 c 0
EndSplineSet
EndChar

StartChar: Ccircumflex
Encoding: 264 264 197
GlifName: C_circumflex
Width: 683
Flags: W
HStem: -12 60<292.634 511.852> 652 60<381.268 600.099>
LayerCount: 2
Fore
SplineSet
348 744 m 1
 488 870 l 1
 570 870 l 1
 670 744 l 1
 588 744 l 1
 522 824 l 5
 430 744 l 1
 348 744 l 1
505 712 m 0
 555 712 600 703 639 683 c 0
 678 663 711 636 736 600 c 1
 686 556 l 1
 642 620 579 652 495 652 c 0
 414 652 342 623 281 564 c 0
 220 505 181 434 168 350 c 0
 155 266 171 195 214 136 c 0
 257 77 319 48 400 48 c 0
 484 48 557 80 621 144 c 1
 657 101 l 1
 620 65 579 38 534 18 c 0
 489 -2 440 -12 390 -12 c 0
 291 -12 216 23 164 93 c 0
 112 163 92 248 108 350 c 0
 124 452 171 537 245 607 c 0
 319 677 406 712 505 712 c 0
EndSplineSet
EndChar

StartChar: ccircumflex
Encoding: 265 265 198
GlifName: ccircumflex
Width: 504
Flags: W
HStem: -12 60<215.171 389.997> 452 60<271.253 447.858> 680 20G<338.778 458.873>
LayerCount: 2
Fore
SplineSet
221 574 m 1
 361 700 l 1
 443 700 l 1
 543 574 l 1
 461 574 l 1
 395 654 l 5
 303 574 l 1
 221 574 l 1
374 512 m 0
 444 512 498 487 536 437 c 1
 488 393 l 1
 459 432 419 452 365 452 c 0
 310 452 261 433 221 394 c 0
 181 355 157 307 148 250 c 0
 139 193 148 145 176 106 c 0
 204 67 246 48 301 48 c 0
 355 48 402 68 443 107 c 1
 477 63 l 1
 423 13 361 -12 291 -12 c 0
 220 -12 165 13 127 64 c 0
 89 115 76 177 88 250 c 0
 100 323 132 385 186 436 c 0
 240 487 303 512 374 512 c 0
EndSplineSet
EndChar

StartChar: Cdotaccent
Encoding: 266 266 199
GlifName: C_dotaccent
Width: 683
Flags: W
HStem: -12 60<292.634 511.852> 652 60<381.268 600.099> 800 80<492.33 557.67>
LayerCount: 2
Fore
SplineSet
565 840 m 0
 563 829 558 820 549 812 c 0
 540 804 530 800 519 800 c 0
 508 800 499 804 492 812 c 0
 485 820 483 829 485 840 c 0
 487 851 492 861 501 869 c 0
 510 877 520 880 531 880 c 0
 542 880 551 877 558 869 c 0
 565 861 567 851 565 840 c 0
505 712 m 0
 555 712 600 703 639 683 c 0
 678 663 711 636 736 600 c 1
 686 556 l 1
 642 620 579 652 495 652 c 0
 414 652 342 623 281 564 c 0
 220 505 181 434 168 350 c 0
 155 266 171 195 214 136 c 0
 257 77 319 48 400 48 c 0
 484 48 557 80 621 144 c 1
 657 101 l 1
 620 65 579 38 534 18 c 0
 489 -2 440 -12 390 -12 c 0
 291 -12 216 23 164 93 c 0
 112 163 92 248 108 350 c 0
 124 452 171 537 245 607 c 0
 319 677 406 712 505 712 c 0
EndSplineSet
EndChar

StartChar: cdotaccent
Encoding: 267 267 200
GlifName: cdotaccent
Width: 504
Flags: W
HStem: -12 60<215.171 389.997> 452 60<271.253 447.858> 630 80<365.33 430.67>
LayerCount: 2
Fore
SplineSet
438 670 m 0
 436 659 431 650 422 642 c 0
 413 634 403 630 392 630 c 0
 381 630 372 634 365 642 c 0
 358 650 356 659 358 670 c 0
 360 681 365 691 374 699 c 0
 383 707 393 710 404 710 c 0
 415 710 424 707 431 699 c 0
 438 691 440 681 438 670 c 0
374 512 m 0
 444 512 498 487 536 437 c 1
 488 393 l 1
 459 432 419 452 365 452 c 0
 310 452 261 433 221 394 c 0
 181 355 157 307 148 250 c 0
 139 193 148 145 176 106 c 0
 204 67 246 48 301 48 c 0
 355 48 402 68 443 107 c 1
 477 63 l 1
 423 13 361 -12 291 -12 c 0
 220 -12 165 13 127 64 c 0
 89 115 76 177 88 250 c 0
 100 323 132 385 186 436 c 0
 240 487 303 512 374 512 c 0
EndSplineSet
EndChar

StartChar: Ccaron
Encoding: 268 268 201
GlifName: C_caron
Width: 683
Flags: W
HStem: -12 60<292.634 511.852> 652 60<381.268 600.099>
LayerCount: 2
Fore
SplineSet
368 870 m 5
 450 870 l 5
 516 792 l 5
 608 870 l 5
 690 870 l 5
 552 744 l 5
 466 744 l 5
 368 870 l 5
505 712 m 0
 555 712 600 703 639 683 c 0
 678 663 711 636 736 600 c 1
 686 556 l 1
 642 620 579 652 495 652 c 0
 414 652 342 623 281 564 c 0
 220 505 181 434 168 350 c 0
 155 266 171 195 214 136 c 0
 257 77 319 48 400 48 c 0
 484 48 557 80 621 144 c 1
 657 101 l 1
 620 65 579 38 534 18 c 0
 489 -2 440 -12 390 -12 c 0
 291 -12 216 23 164 93 c 0
 112 163 92 248 108 350 c 0
 124 452 171 537 245 607 c 0
 319 677 406 712 505 712 c 0
EndSplineSet
EndChar

StartChar: ccaron
Encoding: 269 269 202
GlifName: ccaron
Width: 504
Flags: W
HStem: -12 60<215.171 389.997> 452 60<271.253 447.858> 680 20G<241 339.436 457.667 563>
LayerCount: 2
Fore
SplineSet
241 700 m 5
 322 700 l 5
 390 622 l 5
 481 700 l 5
 563 700 l 5
 425 574 l 5
 339 574 l 5
 241 700 l 5
374 512 m 0
 444 512 498 487 536 437 c 1
 488 393 l 1
 459 432 419 452 365 452 c 0
 310 452 261 433 221 394 c 0
 181 355 157 307 148 250 c 0
 139 193 148 145 176 106 c 0
 204 67 246 48 301 48 c 0
 355 48 402 68 443 107 c 1
 477 63 l 1
 423 13 361 -12 291 -12 c 0
 220 -12 165 13 127 64 c 0
 89 115 76 177 88 250 c 0
 100 323 132 385 186 436 c 0
 240 487 303 512 374 512 c 0
EndSplineSet
EndChar

StartChar: Dcaron
Encoding: 270 270 203
GlifName: D_caron
Width: 688
Flags: W
HStem: 0 60<173 410.25> 640 60<264 493.829>
LayerCount: 2
Fore
SplineSet
287 870 m 5
 369 870 l 5
 435 792 l 5
 527 870 l 5
 609 870 l 5
 471 744 l 5
 385 744 l 5
 287 870 l 5
387 640 m 2
 264 640 l 1
 173 60 l 1
 296 60 l 2
 376 60 448 88 514 145 c 0
 580 202 618 270 631 350 c 0
 644 430 627 498 579 555 c 0
 531 612 467 640 387 640 c 2
397 700 m 2
 494 700 571 666 628 598 c 0
 685 530 706 447 691 350 c 0
 676 253 628 171 549 103 c 0
 470 35 383 0 286 0 c 2
 103 0 l 1
 214 700 l 1
 397 700 l 2
EndSplineSet
EndChar

StartChar: dcaron
Encoding: 271 271 204
GlifName: dcaron
Width: 608
Flags: W
HStem: -12 60<215.171 390.065> 452 60<271.253 447.029> 679 20G<687.465 767>
VStem: 471 60<0 60> 582 60<640 700>
LayerCount: 2
Fore
SplineSet
615 527 m 1
 697 699 l 1
 767 699 l 1
 671 527 l 1
 615 527 l 1
365 452 m 0
 419 452 458 433 484 394 c 0
 510 355 520 308 511 250 c 0
 502 192 477 145 439 106 c 0
 401 67 355 48 301 48 c 0
 246 48 204 67 176 106 c 0
 148 145 139 193 148 250 c 0
 157 307 181 355 221 394 c 0
 261 433 310 452 365 452 c 0
374 512 m 0
 303 512 240 487 186 436 c 0
 132 385 100 324 88 250 c 0
 76 176 89 115 127 64 c 0
 165 13 220 -12 291 -12 c 0
 361 -12 418 13 465 62 c 0
 472 69 478 77 484 85 c 1
 471 0 l 1
 531 0 l 1
 642 700 l 1
 582 700 l 1
 537 415 l 1
 533 423 529 431 524 438 c 0
 493 487 444 512 374 512 c 0
EndSplineSet
EndChar

StartChar: Dcroat
Encoding: 272 272 205
GlifName: D_croat
Width: 688
Flags: W
HStem: 0 60<173 410.25> 319 60<113 352> 640 60<264 493.829>
LayerCount: 2
Fore
SplineSet
387 640 m 2
 264 640 l 1
 173 60 l 1
 296 60 l 2
 376 60 448 88 514 145 c 0
 580 202 618 270 631 350 c 0
 644 430 627 498 579 555 c 0
 531 612 467 640 387 640 c 2
397 700 m 2
 494 700 571 666 628 598 c 0
 685 530 706 447 691 350 c 0
 676 253 628 171 549 103 c 0
 470 35 383 0 286 0 c 2
 103 0 l 1
 214 700 l 1
 397 700 l 2
104 319 m 1
 113 379 l 1
 361 379 l 1
 352 319 l 1
 104 319 l 1
EndSplineSet
EndChar

StartChar: dcroat
Encoding: 273 273 206
GlifName: dcroat
Width: 608
Flags: W
HStem: -12 60<215.171 390.065> 452 60<271.253 447.029>
VStem: 471 60<0 60> 582 60<640 700>
LayerCount: 2
Fore
SplineSet
365 452 m 0
 419 452 458 433 484 394 c 0
 510 355 520 308 511 250 c 0
 502 192 477 145 439 106 c 0
 401 67 355 48 301 48 c 0
 246 48 204 67 176 106 c 0
 148 145 139 193 148 250 c 0
 157 307 181 355 221 394 c 0
 261 433 310 452 365 452 c 0
374 512 m 0
 303 512 240 487 186 436 c 0
 132 385 100 324 88 250 c 0
 76 176 89 115 127 64 c 0
 165 13 220 -12 291 -12 c 0
 361 -12 418 13 465 62 c 0
 472 69 478 77 484 85 c 1
 471 0 l 1
 531 0 l 1
 642 700 l 1
 582 700 l 1
 537 415 l 1
 533 423 529 431 524 438 c 0
 493 487 444 512 374 512 c 0
693 566 m 1
 702 626 l 1
 432 626 l 1
 423 566 l 1
 693 566 l 1
EndSplineSet
EndChar

StartChar: Emacron
Encoding: 274 274 207
GlifName: E_macron
Width: 598
Flags: W
HStem: 0 60<173 506> 329 60<225 494> 640 60<264 607> 750 60<289 580>
LayerCount: 2
Fore
SplineSet
280 750 m 1
 289 810 l 1
 589 810 l 1
 580 750 l 1
 280 750 l 1
103 0 m 1
 214 700 l 1
 617 700 l 1
 607 640 l 1
 264 640 l 1
 225 389 l 1
 504 389 l 1
 494 329 l 1
 215 329 l 1
 173 60 l 1
 516 60 l 1
 506 0 l 1
 103 0 l 1
EndSplineSet
EndChar

StartChar: emacron
Encoding: 275 275 208
GlifName: emacron
Width: 554
Flags: W
HStem: -12 60<217.467 412.506> 220 60<154 500.548> 452 60<274.086 444.433> 580 60<240 531>
LayerCount: 2
Fore
SplineSet
552 220 m 5
 145 220 l 5
 143 170 156 129 184 97 c 4
 212 65 252 48 301 48 c 4
 371 48 428 68 473 107 c 5
 507 63 l 5
 449 13 377 -12 291 -12 c 4
 220 -12 165 13 127 64 c 4
 89 115 76 177 88 250 c 4
 100 323 132 385 186 436 c 4
 240 487 303 512 374 512 c 4
 444 512 494 488 526 438 c 4
 558 388 569 325 557 250 c 6
 552 220 l 5
365 452 m 4
 316 452 271 435 233 403 c 4
 195 371 168 330 154 280 c 5
 500 280 l 5
 503 331 494 372 471 404 c 4
 448 436 413 452 365 452 c 4
231 580 m 1
 240 640 l 1
 540 640 l 1
 531 580 l 1
 231 580 l 1
EndSplineSet
EndChar

StartChar: Ebreve
Encoding: 276 276 209
GlifName: E_breve
Width: 598
Flags: W
HStem: 0 60<173 506> 329 60<225 494> 640 60<264 607> 739 60<379.293 505.923>
VStem: 303 60<819.612 870>
LayerCount: 2
Fore
SplineSet
103 0 m 1
 214 700 l 1
 617 700 l 1
 607 640 l 1
 264 640 l 1
 225 389 l 1
 504 389 l 1
 494 329 l 1
 215 329 l 1
 173 60 l 1
 516 60 l 1
 506 0 l 1
 103 0 l 1
303 870 m 1
 363 870 l 1
 360 849 365 832 380 819 c 0
 395 806 414 799 439 799 c 0
 464 799 485 806 504 819 c 0
 523 832 534 849 537 870 c 1
 597 870 l 1
 591 834 572 803 540 777 c 0
 508 751 471 739 429 739 c 0
 387 739 355 751 331 777 c 0
 307 803 297 834 303 870 c 1
EndSplineSet
EndChar

StartChar: ebreve
Encoding: 277 277 210
GlifName: ebreve
Width: 554
Flags: W
HStem: -12 60<217.467 412.506> 220 60<154 500.548> 452 60<274.086 444.433> 569 60<330.293 456.923> 680 20G<251 314 486.5 548>
VStem: 254 60<649.612 700>
LayerCount: 2
Fore
SplineSet
552 220 m 5
 145 220 l 5
 143 170 156 129 184 97 c 4
 212 65 252 48 301 48 c 4
 371 48 428 68 473 107 c 5
 507 63 l 5
 449 13 377 -12 291 -12 c 4
 220 -12 165 13 127 64 c 4
 89 115 76 177 88 250 c 4
 100 323 132 385 186 436 c 4
 240 487 303 512 374 512 c 4
 444 512 494 488 526 438 c 4
 558 388 569 325 557 250 c 6
 552 220 l 5
365 452 m 4
 316 452 271 435 233 403 c 4
 195 371 168 330 154 280 c 5
 500 280 l 5
 503 331 494 372 471 404 c 4
 448 436 413 452 365 452 c 4
254 700 m 1
 314 700 l 1
 311 679 316 662 331 649 c 0
 346 636 365 629 390 629 c 0
 415 629 436 636 455 649 c 0
 474 662 485 679 488 700 c 1
 548 700 l 1
 542 664 523 633 491 607 c 0
 459 581 422 569 380 569 c 0
 338 569 306 581 282 607 c 0
 258 633 248 664 254 700 c 1
EndSplineSet
EndChar

StartChar: Edotaccent
Encoding: 278 278 211
GlifName: E_dotaccent
Width: 598
Flags: W
HStem: 0 60<173 506> 329 60<225 494> 640 60<264 607> 800 80<411.33 476.67>
LayerCount: 2
Fore
SplineSet
484 840 m 0
 482 829 477 820 468 812 c 0
 459 804 449 800 438 800 c 0
 427 800 418 804 411 812 c 0
 404 820 402 829 404 840 c 0
 406 851 411 861 420 869 c 0
 429 877 439 880 450 880 c 0
 461 880 470 877 477 869 c 0
 484 861 486 851 484 840 c 0
103 0 m 1
 214 700 l 1
 617 700 l 1
 607 640 l 1
 264 640 l 1
 225 389 l 1
 504 389 l 1
 494 329 l 1
 215 329 l 1
 173 60 l 1
 516 60 l 1
 506 0 l 1
 103 0 l 1
EndSplineSet
EndChar

StartChar: edotaccent
Encoding: 279 279 212
GlifName: edotaccent
Width: 554
Flags: W
HStem: -12 60<217.467 412.506> 220 60<154 500.548> 452 60<274.086 444.433> 630 80<362.33 427.67>
LayerCount: 2
Fore
SplineSet
552 220 m 5
 145 220 l 5
 143 170 156 129 184 97 c 4
 212 65 252 48 301 48 c 4
 371 48 428 68 473 107 c 5
 507 63 l 5
 449 13 377 -12 291 -12 c 4
 220 -12 165 13 127 64 c 4
 89 115 76 177 88 250 c 4
 100 323 132 385 186 436 c 4
 240 487 303 512 374 512 c 4
 444 512 494 488 526 438 c 4
 558 388 569 325 557 250 c 6
 552 220 l 5
365 452 m 4
 316 452 271 435 233 403 c 4
 195 371 168 330 154 280 c 5
 500 280 l 5
 503 331 494 372 471 404 c 4
 448 436 413 452 365 452 c 4
435 670 m 0
 433 659 428 650 419 642 c 0
 410 634 400 630 389 630 c 0
 378 630 369 634 362 642 c 0
 355 650 353 659 355 670 c 0
 357 681 362 691 371 699 c 0
 380 707 390 710 401 710 c 0
 412 710 421 707 428 699 c 0
 435 691 437 681 435 670 c 0
EndSplineSet
EndChar

StartChar: Eogonek
Encoding: 280 280 213
GlifName: E_ogonek
Width: 598
Flags: W
HStem: -212 55<387.484 467.22> 0 60<173 506> 329 60<225 494> 640 60<264 607>
VStem: 326 55<-143.577 -79.5469>
LayerCount: 2
Fore
SplineSet
498 -170 m 5
 494 -175 490 -179 485 -183 c 4
 463 -202 437 -212 410 -212 c 4
 382 -212 361 -203 344 -183 c 4
 328 -164 322 -140 326 -114 c 4
 331 -85 346 -59 374 -35 c 4
 393 -19 419 -3 449 12 c 5
 507 12 l 5
 400 -81 l 6
 390 -90 383 -100 381 -112 c 4
 379 -124 382 -135 390 -144 c 4
 398 -153 407 -157 419 -157 c 4
 431 -157 442 -153 452 -144 c 4
 454 -142 458 -140 459 -138 c 13
 498 -170 l 5
103 0 m 1
 214 700 l 1
 617 700 l 1
 607 640 l 1
 264 640 l 1
 225 389 l 1
 504 389 l 1
 494 329 l 1
 215 329 l 1
 173 60 l 1
 516 60 l 1
 506 0 l 1
 103 0 l 1
EndSplineSet
EndChar

StartChar: eogonek
Encoding: 281 281 214
GlifName: eogonek
Width: 554
Flags: W
HStem: -195 55<338.431 418.721> -12 60<217.467 364.817> 220 60<154 500.548> 452 60<274.086 444.433>
VStem: 277 56<-126.577 -60.125>
LayerCount: 2
Fore
SplineSet
552 220 m 5
 145 220 l 5
 143 170 156 129 184 97 c 4
 212 65 252 48 301 48 c 4
 371 48 428 68 473 107 c 5
 507 63 l 5
 449 13 377 -12 291 -12 c 4
 220 -12 165 13 127 64 c 4
 89 115 76 177 88 250 c 4
 100 323 132 385 186 436 c 4
 240 487 303 512 374 512 c 4
 444 512 494 488 526 438 c 4
 558 388 569 325 557 250 c 6
 552 220 l 5
365 452 m 4
 316 452 271 435 233 403 c 4
 195 371 168 330 154 280 c 5
 500 280 l 5
 503 331 494 372 471 404 c 4
 448 436 413 452 365 452 c 4
451 -153 m 1
 447 -158 442 -162 437 -166 c 0
 415 -185 389 -195 362 -195 c 0
 334 -195 313 -186 296 -166 c 0
 280 -147 273 -124 277 -98 c 0
 282 -69 298 -42 326 -18 c 0
 345 -2 371 14 401 29 c 1
 459 29 l 1
 351 -63 l 2
 341 -72 335 -83 333 -95 c 0
 331 -107 333 -118 341 -127 c 0
 349 -136 359 -140 371 -140 c 0
 383 -140 394 -136 404 -127 c 0
 406 -125 409 -123 410 -121 c 9
 451 -153 l 1
EndSplineSet
EndChar

StartChar: Ecaron
Encoding: 282 282 215
GlifName: E_caron
Width: 598
Flags: W
HStem: 0 60<173 506> 329 60<225 494> 640 60<264 607>
LayerCount: 2
Fore
SplineSet
287 870 m 5
 369 870 l 5
 435 792 l 5
 527 870 l 5
 609 870 l 5
 471 744 l 5
 385 744 l 5
 287 870 l 5
103 0 m 1
 214 700 l 1
 617 700 l 1
 607 640 l 1
 264 640 l 1
 225 389 l 1
 504 389 l 1
 494 329 l 1
 215 329 l 1
 173 60 l 1
 516 60 l 1
 506 0 l 1
 103 0 l 1
EndSplineSet
EndChar

StartChar: ecaron
Encoding: 283 283 216
GlifName: ecaron
Width: 554
Flags: W
HStem: -12 60<217.467 412.506> 220 60<154 500.548> 452 60<274.086 444.433> 680 20G<238 337.179 454.667 560>
LayerCount: 2
Fore
SplineSet
552 220 m 5
 145 220 l 5
 143 170 156 129 184 97 c 4
 212 65 252 48 301 48 c 4
 371 48 428 68 473 107 c 5
 507 63 l 5
 449 13 377 -12 291 -12 c 4
 220 -12 165 13 127 64 c 4
 89 115 76 177 88 250 c 4
 100 323 132 385 186 436 c 4
 240 487 303 512 374 512 c 4
 444 512 494 488 526 438 c 4
 558 388 569 325 557 250 c 6
 552 220 l 5
365 452 m 4
 316 452 271 435 233 403 c 4
 195 371 168 330 154 280 c 5
 500 280 l 5
 503 331 494 372 471 404 c 4
 448 436 413 452 365 452 c 4
238 700 m 1
 320 700 l 1
 387 622 l 1
 478 700 l 1
 560 700 l 1
 422 574 l 1
 336 574 l 1
 238 700 l 1
EndSplineSet
EndChar

StartChar: Gcircumflex
Encoding: 284 284 217
GlifName: G_circumflex
Width: 771
Flags: W
HStem: -12 60<291.634 510.686> 320 60<539 719> 652 60<380.268 598.471>
CounterMasks: 1 e0
LayerCount: 2
Fore
SplineSet
350 745 m 1
 490 871 l 1
 572 871 l 1
 672 745 l 1
 590 745 l 1
 524 825 l 5
 432 745 l 1
 350 745 l 1
504 712 m 0
 554 712 600 703 639 683 c 0
 678 663 711 636 736 600 c 1
 685 556 l 1
 641 620 578 652 494 652 c 0
 413 652 341 623 280 564 c 0
 219 505 181 434 168 350 c 0
 155 266 170 195 213 136 c 0
 256 77 318 48 399 48 c 0
 483 48 556 80 620 144 c 0
 669 193 702 252 719 320 c 1
 530 320 l 1
 539 380 l 1
 789 380 l 1
 784 350 l 2
 768 252 726 168 656 100 c 0
 619 65 579 38 533 18 c 0
 487 -2 439 -12 389 -12 c 0
 290 -12 215 23 163 93 c 0
 111 163 92 248 108 350 c 0
 124 452 170 537 244 607 c 0
 318 677 405 712 504 712 c 0
EndSplineSet
EndChar

StartChar: gcircumflex
Encoding: 285 285 218
GlifName: gcircumflex
Width: 595
Flags: W
HStem: -212 55<137.973 346.297> 0 61<212.993 385.442> 452 60<270.093 439.664> 480 20G<533.962 597> 680 20G<356.778 476.873>
VStem: 537 60<440 500>
LayerCount: 2
Fore
SplineSet
239 574 m 1xcc
 379 700 l 1
 461 700 l 1
 561 574 l 1
 479 574 l 1
 413 654 l 5
 321 574 l 1
 239 574 l 1xcc
359 452 m 0xec
 307 452 260 433 221 395 c 0
 182 357 158 311 149 256 c 0
 140 201 150 155 177 117 c 0
 204 79 244 61 297 61 c 0
 349 61 393 79 430 117 c 0
 467 155 490 201 499 256 c 4
 508 311 499 358 474 396 c 0
 449 434 411 452 359 452 c 0xec
368 512 m 0
 436 512 485 487 515 439 c 0
 518 433 522 427 525 421 c 1
 537 500 l 1
 597 500 l 1xdc
 525 46 l 2
 513 -29 482 -92 429 -140 c 0
 376 -188 314 -212 243 -212 c 0
 178 -212 120 -195 68 -162 c 1
 101 -114 l 1
 140 -143 191 -157 252 -157 c 0
 311 -157 358 -138 395 -98 c 0
 432 -58 456 -11 465 46 c 2
 472 91 l 1
 467 85 462 79 457 73 c 0
 411 25 355 0 287 0 c 0
 218 0 164 26 127 75 c 0
 90 124 78 184 89 256 c 0
 100 328 131 389 184 438 c 0
 237 487 299 512 368 512 c 0
EndSplineSet
EndChar

StartChar: Gbreve
Encoding: 286 286 219
GlifName: G_breve
Width: 771
Flags: W
HStem: -12 60<291.634 510.686> 320 60<539 719> 652 60<380.268 598.471> 769 60<460.793 587.427>
VStem: 385 60<849.612 900>
LayerCount: 2
Fore
SplineSet
385 900 m 1
 445 900 l 1
 442 879 446 862 461 849 c 0
 476 836 495 829 520 829 c 0
 545 829 566 836 585 849 c 0
 604 862 616 879 619 900 c 1
 679 900 l 1
 673 864 654 834 622 808 c 0
 590 782 553 769 511 769 c 0
 469 769 437 782 413 808 c 0
 389 834 379 864 385 900 c 1
504 712 m 0
 554 712 600 703 639 683 c 0
 678 663 711 636 736 600 c 1
 685 556 l 1
 641 620 578 652 494 652 c 0
 413 652 341 623 280 564 c 0
 219 505 181 434 168 350 c 0
 155 266 170 195 213 136 c 0
 256 77 318 48 399 48 c 0
 483 48 556 80 620 144 c 0
 669 193 702 252 719 320 c 1
 530 320 l 1
 539 380 l 1
 789 380 l 1
 784 350 l 2
 768 252 726 168 656 100 c 0
 619 65 579 38 533 18 c 0
 487 -2 439 -12 389 -12 c 0
 290 -12 215 23 163 93 c 0
 111 163 92 248 108 350 c 0
 124 452 170 537 244 607 c 0
 318 677 405 712 504 712 c 0
EndSplineSet
EndChar

StartChar: gbreve
Encoding: 287 287 220
GlifName: gbreve
Width: 595
Flags: W
HStem: -212 55<137.973 346.297> 0 61<212.993 385.442> 452 60<270.093 439.664> 480 20G<533.962 597> 569 60<360.875 487.378> 680 20G<281 344 516.5 578>
VStem: 284 60<649.612 700> 537 60<440 500>
LayerCount: 2
Fore
SplineSet
284 700 m 1xcf
 344 700 l 1
 341 679 346 662 361 649 c 0
 376 636 395 629 420 629 c 0
 445 629 466 636 485 649 c 0
 504 662 515 679 518 700 c 1
 578 700 l 1
 572 664 552 633 520 607 c 0
 488 581 452 569 410 569 c 0
 368 569 335 581 311 607 c 0
 287 633 278 664 284 700 c 1xcf
359 452 m 0xef
 307 452 260 433 221 395 c 0
 182 357 158 311 149 256 c 0
 140 201 150 155 177 117 c 0
 204 79 244 61 297 61 c 0
 349 61 393 79 430 117 c 0
 467 155 490 201 499 256 c 4
 508 311 499 358 474 396 c 0
 449 434 411 452 359 452 c 0xef
368 512 m 0
 436 512 485 487 515 439 c 0
 518 433 522 427 525 421 c 1
 537 500 l 1
 597 500 l 1xdf
 525 46 l 2
 513 -29 482 -92 429 -140 c 0
 376 -188 314 -212 243 -212 c 0
 178 -212 120 -195 68 -162 c 1
 101 -114 l 1
 140 -143 191 -157 252 -157 c 0
 311 -157 358 -138 395 -98 c 0
 432 -58 456 -11 465 46 c 2
 472 91 l 1
 467 85 462 79 457 73 c 0
 411 25 355 0 287 0 c 0
 218 0 164 26 127 75 c 0
 90 124 78 184 89 256 c 0
 100 328 131 389 184 438 c 0
 237 487 299 512 368 512 c 0
EndSplineSet
EndChar

StartChar: Gdotaccent
Encoding: 288 288 221
GlifName: G_dotaccent
Width: 771
Flags: W
HStem: -12 60<291.634 510.686> 320 60<539 719> 652 60<380.268 598.471> 830 80<493.662 550.577>
LayerCount: 2
Fore
SplineSet
567 870 m 4
 565 859 560 849 551 841 c 4
 542 833 531 830 520 830 c 4
 509 830 500 833 493 841 c 4
 486 849 485 859 487 870 c 4
 489 881 493 890 502 898 c 4
 511 906 522 910 533 910 c 4
 544 910 553 906 560 898 c 4
 567 890 569 881 567 870 c 4
504 712 m 0
 554 712 600 703 639 683 c 0
 678 663 711 636 736 600 c 1
 685 556 l 1
 641 620 578 652 494 652 c 0
 413 652 341 623 280 564 c 0
 219 505 181 434 168 350 c 0
 155 266 170 195 213 136 c 0
 256 77 318 48 399 48 c 0
 483 48 556 80 620 144 c 0
 669 193 702 252 719 320 c 1
 530 320 l 1
 539 380 l 1
 789 380 l 1
 784 350 l 2
 768 252 726 168 656 100 c 0
 619 65 579 38 533 18 c 0
 487 -2 439 -12 389 -12 c 0
 290 -12 215 23 163 93 c 0
 111 163 92 248 108 350 c 0
 124 452 170 537 244 607 c 0
 318 677 405 712 504 712 c 0
EndSplineSet
EndChar

StartChar: gdotaccent
Encoding: 289 289 222
GlifName: gdotaccent
Width: 595
Flags: W
HStem: -212 55<137.973 346.297> 0 61<212.993 385.442> 452 60<270.093 439.664> 480 20G<533.962 597> 630 80<383.33 448.67>
VStem: 537 60<440 500>
LayerCount: 2
Fore
SplineSet
456 670 m 4xcc
 454 659 449 650 440 642 c 4
 431 634 421 630 410 630 c 4
 399 630 390 634 383 642 c 4
 376 650 374 659 376 670 c 4
 378 681 383 691 392 699 c 4
 401 707 411 710 422 710 c 4
 433 710 442 707 449 699 c 4
 456 691 458 681 456 670 c 4xcc
359 452 m 0xec
 307 452 260 433 221 395 c 0
 182 357 158 311 149 256 c 0
 140 201 150 155 177 117 c 0
 204 79 244 61 297 61 c 0
 349 61 393 79 430 117 c 0
 467 155 490 201 499 256 c 0
 508 311 499 358 474 396 c 0
 449 434 411 452 359 452 c 0xec
368 512 m 0
 436 512 485 487 515 439 c 0
 518 433 522 427 525 421 c 1
 537 500 l 1
 597 500 l 1xdc
 525 46 l 2
 513 -29 482 -92 429 -140 c 0
 376 -188 314 -212 243 -212 c 0
 178 -212 120 -195 68 -162 c 1
 101 -114 l 1
 140 -143 191 -157 252 -157 c 0
 311 -157 358 -138 395 -98 c 0
 432 -58 456 -11 465 46 c 2
 472 91 l 1
 467 85 462 79 457 73 c 0
 411 25 355 0 287 0 c 0
 218 0 164 26 127 75 c 0
 90 124 78 184 89 256 c 0
 100 328 131 389 184 438 c 0
 237 487 299 512 368 512 c 0
EndSplineSet
EndChar

StartChar: uni0122
Encoding: 290 290 223
GlifName: uni0122
Width: 771
Flags: W
HStem: -200 21G<315 382.324> -12 60<291.634 510.686> 320 60<539 719> 652 60<380.268 598.471>
LayerCount: 2
Fore
SplineSet
315 -200 m 5
 377 -64 l 1
 448 -64 l 1
 371 -200 l 5
 315 -200 l 5
504 712 m 0
 554 712 600 703 639 683 c 0
 678 663 711 636 736 600 c 1
 685 556 l 1
 641 620 578 652 494 652 c 0
 413 652 341 623 280 564 c 0
 219 505 181 434 168 350 c 0
 155 266 170 195 213 136 c 0
 256 77 318 48 399 48 c 0
 483 48 556 80 620 144 c 0
 669 193 702 252 719 320 c 1
 530 320 l 1
 539 380 l 1
 789 380 l 1
 784 350 l 2
 768 252 726 168 656 100 c 0
 619 65 579 38 533 18 c 0
 487 -2 439 -12 389 -12 c 0
 290 -12 215 23 163 93 c 0
 111 163 92 248 108 350 c 0
 124 452 170 537 244 607 c 0
 318 677 405 712 504 712 c 0
EndSplineSet
EndChar

StartChar: uni0123
Encoding: 291 291 224
GlifName: uni0123
Width: 595
Flags: W
HStem: -212 55<137.973 346.297> 0 61<212.993 385.442> 452 60<270.093 439.664> 480 20G<533.962 597> 693 20G<418.512 488>
VStem: 537 60<440 500>
LayerCount: 2
Fore
SplineSet
359 452 m 0xec
 307 452 260 433 221 395 c 0
 182 357 158 311 149 256 c 0
 140 201 150 155 177 117 c 0
 204 79 244 61 297 61 c 0
 349 61 393 79 430 117 c 0
 467 155 490 201 499 256 c 4
 508 311 499 358 474 396 c 0
 449 434 411 452 359 452 c 0xec
368 512 m 0
 436 512 485 487 515 439 c 0
 518 433 522 427 525 421 c 1
 537 500 l 1
 597 500 l 1xdc
 525 46 l 2
 513 -29 482 -92 429 -140 c 0
 376 -188 314 -212 243 -212 c 0
 178 -212 120 -195 68 -162 c 1
 101 -114 l 1
 140 -143 191 -157 252 -157 c 0
 311 -157 358 -138 395 -98 c 0
 432 -58 456 -11 465 46 c 2
 472 91 l 1
 467 85 462 79 457 73 c 0
 411 25 355 0 287 0 c 0
 218 0 164 26 127 75 c 0
 90 124 78 184 89 256 c 0
 100 328 131 389 184 438 c 0
 237 487 299 512 368 512 c 0
488 713 m 5
 416 584 l 5
 345 584 l 5
 432 713 l 5
 488 713 l 5
EndSplineSet
EndChar

StartChar: Hcircumflex
Encoding: 292 292 225
GlifName: H_circumflex
Width: 732
Flags: W
HStem: 0 21G<103 166.142 570 633.171> 331 60<225 622> 680 20G<210.829 274 677.828 741>
VStem: 103 60<0 60> 214 60<640 700> 570 60<0 60> 681 60<640 700>
LayerCount: 2
Fore
SplineSet
324 744 m 1
 464 870 l 1
 546 870 l 1
 646 744 l 1
 564 744 l 1
 498 824 l 5
 406 744 l 1
 324 744 l 1
103 0 m 1
 214 700 l 1
 274 700 l 1
 225 391 l 1
 632 391 l 1
 681 700 l 1
 741 700 l 1
 630 0 l 1
 570 0 l 1
 622 331 l 1
 215 331 l 1
 163 0 l 1
 103 0 l 1
EndSplineSet
EndChar

StartChar: hcircumflex
Encoding: 293 293 226
GlifName: hcircumflex
Width: 559
Flags: W
HStem: 0 21G<78 141.134 437 500.134> 452 60<281.049 431.033> 680 20G<185.829 249>
VStem: 78 60<0 60> 189 60<640 700> 437 60<0 60>
LayerCount: 2
Fore
SplineSet
69 774 m 1
 209 900 l 1
 291 900 l 1
 391 774 l 1
 309 774 l 1
 242 854 l 1
 151 774 l 1
 69 774 l 1
497 0 m 1
 437 0 l 1
 479 268 l 2
 488 325 482 369 459 402 c 0
 436 435 403 452 360 452 c 0
 317 452 278 435 245 402 c 0
 212 369 189 325 180 268 c 2
 138 0 l 1
 78 0 l 1
 189 700 l 1
 249 700 l 1
 206 432 l 1
 210 437 215 442 219 446 c 0
 261 490 311 512 369 512 c 0
 429 512 474 489 507 445 c 0
 540 401 551 341 539 268 c 2
 497 0 l 1
EndSplineSet
EndChar

StartChar: Hbar
Encoding: 294 294 227
GlifName: H_bar
Width: 732
Flags: W
HStem: 0 21G<103 166.142 570 633.171> 331 60<225 622> 500 60<97 803> 680 20G<210.829 274 677.828 741>
VStem: 103 60<0 60> 214 60<640 700> 570 60<0 60> 681 60<640 700>
LayerCount: 2
Fore
SplineSet
103 0 m 1
 214 700 l 1
 274 700 l 1
 225 391 l 1
 632 391 l 1
 681 700 l 1
 741 700 l 1
 630 0 l 1
 570 0 l 1
 622 331 l 1
 215 331 l 1
 163 0 l 1
 103 0 l 1
87 500 m 1
 97 560 l 1
 813 560 l 1
 803 500 l 1
 87 500 l 1
EndSplineSet
EndChar

StartChar: hbar
Encoding: 295 295 228
GlifName: hbar
Width: 559
Flags: W
HStem: 0 21G<78 141.134 437 500.134> 452 60<281.049 431.033> 569 60<103 401> 680 20G<185.829 249>
VStem: 78 60<0 60> 189 60<640 700> 437 60<0 60>
LayerCount: 2
Fore
SplineSet
497 0 m 1
 437 0 l 1
 479 268 l 2
 488 325 482 369 459 402 c 0
 436 435 403 452 360 452 c 0
 317 452 278 435 245 402 c 0
 212 369 189 325 180 268 c 2
 138 0 l 1
 78 0 l 1
 189 700 l 1
 249 700 l 1
 206 432 l 1
 210 437 215 442 219 446 c 0
 261 490 311 512 369 512 c 0
 429 512 474 489 507 445 c 0
 540 401 551 341 539 268 c 2
 497 0 l 1
93 569 m 1
 103 629 l 1
 411 629 l 1
 401 569 l 1
 93 569 l 1
EndSplineSet
EndChar

StartChar: Itilde
Encoding: 296 296 229
GlifName: I_tilde
Width: 265
Flags: W
HStem: 0 21G<103 166.171> 680 20G<210.829 274> 742 56<287.718 355.791> 814 56<167.158 233.081>
VStem: 103 60<0 60> 214 60<640 700> 363 59<804.423 836>
LayerCount: 2
Fore
SplineSet
103 0 m 1
 214 700 l 1
 274 700 l 1
 163 0 l 1
 103 0 l 1
311 742 m 0
 282 742 259 754 243 778 c 0
 236 787 231 796 225 803 c 0
 219 810 213 814 205 814 c 0
 184 814 169 802 159 777 c 1
 100 777 l 1
 107 803 121 824 143 842 c 0
 165 860 189 870 214 870 c 0
 239 870 260 858 277 834 c 0
 284 825 290 816 296 809 c 0
 302 802 310 798 319 798 c 0
 340 798 355 811 363 836 c 1
 422 836 l 1
 414 809 400 787 379 769 c 0
 358 751 336 742 311 742 c 0
EndSplineSet
EndChar

StartChar: itilde
Encoding: 297 297 230
GlifName: itilde
Width: 225
Flags: W
HStem: 0 21G<82 145.16> 480 20G<157.84 221> 572 56<238.718 306.791> 644 56<118.158 184.081>
VStem: 82 60<0 60> 161 60<440 500> 314 59<634.423 666>
LayerCount: 2
Fore
SplineSet
82 0 m 1
 161 500 l 1
 221 500 l 1
 142 0 l 1
 82 0 l 1
262 572 m 0
 233 572 210 584 194 608 c 0
 187 617 182 626 176 633 c 0
 170 640 164 644 156 644 c 0
 135 644 120 632 110 607 c 1
 51 607 l 1
 58 633 72 654 94 672 c 0
 116 690 140 700 165 700 c 0
 190 700 211 688 228 664 c 0
 235 655 241 646 247 639 c 0
 253 632 261 628 270 628 c 0
 291 628 306 641 314 666 c 1
 373 666 l 1
 365 639 351 617 330 599 c 0
 309 581 287 572 262 572 c 0
EndSplineSet
EndChar

StartChar: Imacron
Encoding: 298 298 231
GlifName: I_macron
Width: 265
Flags: W
HStem: 0 21G<103 166.171> 680 20G<210.829 274> 750 60<111 402>
VStem: 103 60<0 60> 214 60<640 700>
LayerCount: 2
Fore
SplineSet
102 750 m 1
 111 810 l 1
 411 810 l 1
 402 750 l 1
 102 750 l 1
103 0 m 1
 214 700 l 1
 274 700 l 1
 163 0 l 1
 103 0 l 1
EndSplineSet
EndChar

StartChar: imacron
Encoding: 299 299 232
GlifName: imacron
Width: 225
Flags: W
HStem: 0 21G<82 145.16> 480 20G<157.84 221> 580 57<89 330>
VStem: 82 60<0 60> 161 60<440 500>
LayerCount: 2
Fore
SplineSet
80 580 m 1
 89 637 l 1
 339 637 l 1
 330 580 l 1
 80 580 l 1
82 0 m 1
 161 500 l 1
 221 500 l 1
 142 0 l 1
 82 0 l 1
EndSplineSet
EndChar

StartChar: Ibreve
Encoding: 300 300 233
GlifName: I_breve
Width: 265
Flags: W
HStem: 0 21G<103 166.171> 680 20G<210.829 274> 739 60<199.875 326.378>
VStem: 103 60<0 60> 123 60<819.612 870> 214 60<640 700>
LayerCount: 2
Fore
SplineSet
103 0 m 1xf4
 214 700 l 1
 274 700 l 1
 163 0 l 1
 103 0 l 1xf4
123 870 m 1xec
 183 870 l 1
 180 849 185 832 200 819 c 0
 215 806 234 799 259 799 c 0
 284 799 305 806 324 819 c 0
 343 832 354 849 357 870 c 1
 417 870 l 1
 411 834 391 803 359 777 c 0
 327 751 291 739 249 739 c 0
 207 739 174 751 150 777 c 0
 126 803 117 834 123 870 c 1xec
EndSplineSet
EndChar

StartChar: ibreve
Encoding: 301 301 234
GlifName: ibreve
Width: 225
Flags: W
HStem: 0 21G<82 145.16> 480 20G<157.84 221> 569 60<153.875 280.378> 680 20G<74 137 309.5 371>
VStem: 82 60<649.612 700> 161 60<440 500>
LayerCount: 2
Fore
SplineSet
82 0 m 1
 161 500 l 1
 221 500 l 1
 142 0 l 1
 82 0 l 1
77 700 m 1
 137 700 l 1
 134 679 139 662 154 649 c 0
 169 636 188 629 213 629 c 0
 238 629 259 636 278 649 c 0
 297 662 308 679 311 700 c 1
 371 700 l 1
 365 664 345 633 313 607 c 0
 281 581 245 569 203 569 c 0
 161 569 128 581 104 607 c 0
 80 633 71 664 77 700 c 1
EndSplineSet
EndChar

StartChar: Iogonek
Encoding: 302 302 235
GlifName: I_ogonek
Width: 265
Flags: W
HStem: -212 55<43.4305 123.721> 0 12<103.199 106> 680 20G<210.829 274>
VStem: -17 55<-143.577 -78.0938> 214 60<640 700>
LayerCount: 2
Fore
SplineSet
156 -170 m 1
 152 -175 147 -179 142 -183 c 0
 120 -202 94 -212 67 -212 c 0
 39 -212 18 -203 1 -183 c 0
 -15 -164 -21 -140 -17 -114 c 0
 -12 -85 3 -59 31 -35 c 0
 50 -19 76 -3 106 12 c 1
 164 12 l 1
 56 -81 l 2
 46 -90 40 -100 38 -112 c 0
 36 -124 38 -135 46 -144 c 0
 54 -153 64 -157 76 -157 c 0
 88 -157 99 -153 109 -144 c 0
 111 -142 114 -140 115 -138 c 9
 156 -170 l 1
103 0 m 1
 214 700 l 1
 274 700 l 1
 163 0 l 1
 103 0 l 1
EndSplineSet
EndChar

StartChar: iogonek
Encoding: 303 303 236
GlifName: iogonek
Width: 225
Flags: W
HStem: -212 55<22.4305 102.721> 0 12<82.1993 85> 480 20G<157.84 221> 630 80<187.329 252.335>
VStem: -38 55<-143.577 -78.0938> 161 60<440 500>
LayerCount: 2
Fore
SplineSet
135 -170 m 1
 131 -175 126 -179 121 -183 c 0
 99 -202 73 -212 46 -212 c 0
 18 -212 -3 -203 -20 -183 c 0
 -36 -164 -42 -140 -38 -114 c 0
 -33 -85 -18 -59 10 -35 c 0
 29 -19 55 -3 85 12 c 1
 143 12 l 1
 35 -81 l 2
 25 -90 19 -100 17 -112 c 0
 15 -124 17 -135 25 -144 c 0
 33 -153 43 -157 55 -157 c 0
 67 -157 78 -153 88 -144 c 0
 90 -142 93 -140 94 -138 c 9
 135 -170 l 1
259 670 m 0
 257 659 253 650 244 642 c 0
 235 634 224 630 213 630 c 0
 202 630 194 634 187 642 c 0
 180 650 177 659 179 670 c 0
 181 681 187 691 196 699 c 0
 205 707 214 710 225 710 c 0
 236 710 246 707 253 699 c 0
 260 691 261 681 259 670 c 0
82 0 m 1
 161 500 l 1
 221 500 l 1
 142 0 l 1
 82 0 l 1
EndSplineSet
EndChar

StartChar: Idotaccent
Encoding: 304 304 237
GlifName: I_dotaccent
Width: 265
Flags: W
HStem: 0 21G<103 166.171> 680 20G<210.829 274> 800 80<234.329 299.335>
VStem: 103 60<0 60> 214 60<640 700>
LayerCount: 2
Fore
SplineSet
306 840 m 0
 304 829 300 820 291 812 c 0
 282 804 271 800 260 800 c 0
 249 800 241 804 234 812 c 0
 227 820 224 829 226 840 c 0
 228 851 234 861 243 869 c 0
 252 877 261 880 272 880 c 0
 283 880 293 877 300 869 c 0
 307 861 308 851 306 840 c 0
103 0 m 1
 214 700 l 1
 274 700 l 1
 163 0 l 1
 103 0 l 1
EndSplineSet
EndChar

StartChar: dotlessi
Encoding: 305 305 238
GlifName: dotlessi
Width: 225
Flags: W
HStem: 0 21G<82 145.16> 480 20G<157.84 221>
VStem: 82 60<0 60> 161 60<440 500>
LayerCount: 2
Fore
SplineSet
82 0 m 1
 161 500 l 1
 221 500 l 1
 142 0 l 1
 82 0 l 1
EndSplineSet
EndChar

StartChar: IJ
Encoding: 306 306 239
GlifName: I_J_
Width: 769
Flags: W
HStem: -11 60<342.08 478.134> 0 21G<103 166.171> 680 20G<210.829 274 627.836 691>
VStem: 103 60<0 60> 214 60<640 700> 631 60<640 700>
LayerCount: 2
Fore
SplineSet
631 700 m 1xbc
 691 700 l 1
 607 169 l 2
 599 119 575 77 534 42 c 0
 493 7 448 -11 398 -11 c 0
 348 -11 309 7 280 42 c 1
 328 84 l 1
 347 61 375 49 408 49 c 0
 440 49 469 61 497 85 c 0
 525 109 542 137 547 169 c 2
 631 700 l 1xbc
103 0 m 1x7c
 214 700 l 1
 274 700 l 1
 163 0 l 1
 103 0 l 1x7c
EndSplineSet
EndChar

StartChar: ij
Encoding: 307 307 240
GlifName: ij
Width: 485
Flags: W
HStem: -215 60<148 226.157> 0 21G<82 145.16> 480 20G<157.84 221 396.844 460> 632 80<187.991 252.67 433.423 489.671>
VStem: 82 60<0 60> 161 60<440 500> 400 60<440 500>
LayerCount: 2
Fore
SplineSet
400 500 m 5
 460 500 l 5
 380 -7 l 6
 371 -64 343 -113 296 -154 c 4
 249 -195 196 -215 139 -215 c 5
 148 -155 l 5
 189 -155 225 -140 259 -111 c 4
 293 -82 314 -48 320 -7 c 6
 400 500 l 5
497 672 m 4
 495 661 490 652 481 644 c 4
 472 636 462 632 451 632 c 4
 440 632 431 636 424 644 c 4
 417 652 415 661 417 672 c 4
 419 683 424 693 433 701 c 4
 442 709 453 712 464 712 c 4
 475 712 483 709 490 701 c 4
 497 693 499 683 497 672 c 4
259 670 m 0
 257 659 253 650 244 642 c 0
 235 634 224 630 213 630 c 0
 202 630 194 634 187 642 c 0
 180 650 177 659 179 670 c 0
 181 681 187 691 196 699 c 0
 205 707 214 710 225 710 c 0
 236 710 246 707 253 699 c 0
 260 691 261 681 259 670 c 0
82 0 m 1
 161 500 l 1
 221 500 l 1
 142 0 l 1
 82 0 l 1
EndSplineSet
EndChar

StartChar: Jcircumflex
Encoding: 308 308 241
GlifName: J_circumflex
Width: 408
Flags: W
HStem: -11 60<78.0803 214.134> 680 20G<363.836 427>
VStem: 367 60<640 700>
LayerCount: 2
Fore
SplineSet
239 744 m 1
 379 870 l 1
 461 870 l 1
 561 744 l 1
 479 744 l 1
 413 824 l 1
 321 744 l 1
 239 744 l 1
367 700 m 1
 427 700 l 1
 343 169 l 2
 335 119 311 77 270 42 c 0
 229 7 184 -11 134 -11 c 0
 84 -11 45 7 16 42 c 1
 64 84 l 1
 83 61 111 49 144 49 c 0
 176 49 205 61 233 85 c 0
 261 109 278 137 283 169 c 2
 367 700 l 1
EndSplineSet
EndChar

StartChar: jcircumflex
Encoding: 309 309 242
GlifName: jcircumflex
Width: 243
Flags: W
HStem: -215 60<-72 8.59965> 480 20G<176.844 240> 680 20G<169.778 289.873>
VStem: 180 60<440 500>
LayerCount: 2
Fore
SplineSet
52 574 m 1
 192 700 l 1
 274 700 l 1
 374 574 l 1
 292 574 l 1
 226 654 l 1
 134 574 l 1
 52 574 l 1
180 500 m 1
 240 500 l 1
 160 -7 l 2
 151 -64 123 -113 76 -154 c 0
 29 -195 -24 -215 -81 -215 c 1
 -72 -155 l 1
 -31 -155 6 -140 40 -111 c 0
 74 -82 94 -48 100 -7 c 2
 180 500 l 1
EndSplineSet
EndChar

StartChar: uni0136
Encoding: 310 310 243
GlifName: uni0136
Width: 593
Flags: W
HStem: -200 21G<194 261.324> 0 21G<103 166.173 494.726 586> 680 20G<210.829 274 582.419 687>
VStem: 103 60<0 60> 214 60<640 700>
LayerCount: 2
Fore
SplineSet
194 -200 m 5
 256 -64 l 1
 327 -64 l 1
 250 -200 l 5
 194 -200 l 5
103 0 m 1
 214 700 l 1
 274 700 l 1
 220 359 l 1
 605 700 l 1
 687 700 l 1
 331 383 l 1
 586 0 l 1
 508 0 l 1
 283 339 l 1
 206 271 l 1
 163 0 l 1
 103 0 l 1
EndSplineSet
EndChar

StartChar: uni0137
Encoding: 311 311 244
GlifName: uni0137
Width: 470
Flags: W
HStem: -200 21G<139 206.324> 0 21G<78 141.2 384.575 468> 480 20G<424.573 529> 680 20G<185.829 249>
VStem: 78 60<0 60> 189 60<640 700>
LayerCount: 2
Fore
SplineSet
139 -200 m 5
 201 -64 l 1
 272 -64 l 1
 195 -200 l 5
 139 -200 l 5
78 0 m 1
 189 700 l 1
 249 700 l 1
 179 261 l 1
 447 500 l 1
 529 500 l 1
 309 303 l 1
 468 0 l 1
 395 0 l 1
 260 259 l 1
 166 175 l 1
 138 0 l 1
 78 0 l 1
EndSplineSet
EndChar

StartChar: Lacute
Encoding: 313 313 245
GlifName: L_acute
Width: 518
Flags: W
HStem: 0 60<173 506> 680 20G<210.829 274>
VStem: 214 60<640 700>
LayerCount: 2
Fore
SplineSet
215 744 m 1
 344 870 l 1
 433 870 l 1
 291 744 l 1
 215 744 l 1
103 0 m 1
 214 700 l 1
 274 700 l 1
 173 60 l 1
 516 60 l 1
 506 0 l 1
 103 0 l 1
EndSplineSet
EndChar

StartChar: lacute
Encoding: 314 314 246
GlifName: lacute
Width: 215
Flags: W
HStem: 0 21G<78 141.171> 680 20G<185.829 249>
VStem: 78 60<0 60> 189 60<640 700>
LayerCount: 2
Fore
SplineSet
188 744 m 1
 317 870 l 1
 406 870 l 1
 264 744 l 1
 188 744 l 1
189 700 m 1
 249 700 l 1
 138 0 l 1
 78 0 l 1
 189 700 l 1
EndSplineSet
EndChar

StartChar: uni013B
Encoding: 315 315 247
GlifName: uni013B_
Width: 518
Flags: W
HStem: -200 21G<184 251.324> 0 60<173 506> 680 20G<210.829 274>
VStem: 214 60<640 700>
LayerCount: 2
Fore
SplineSet
184 -200 m 5
 246 -64 l 1
 317 -64 l 1
 240 -200 l 5
 184 -200 l 5
103 0 m 1
 214 700 l 1
 274 700 l 1
 173 60 l 1
 516 60 l 1
 506 0 l 1
 103 0 l 1
EndSplineSet
EndChar

StartChar: uni013C
Encoding: 316 316 248
GlifName: uni013C_
Width: 215
Flags: W
HStem: -200 21G<7 74.0294> 0 21G<78 141.171> 680 20G<187.771 249>
VStem: 78 60<0 60> 191 58<642 700>
LayerCount: 2
Fore
SplineSet
7 -200 m 1
 67 -64 l 1
 138 -64 l 1
 63 -200 l 1
 7 -200 l 1
191 700 m 5
 249 700 l 1
 138 0 l 1
 78 0 l 1
 191 700 l 5
EndSplineSet
EndChar

StartChar: Lcaron
Encoding: 317 317 249
GlifName: L_caron
Width: 518
Flags: W
HStem: 0 60<173 506> 680 20G<210.829 274>
VStem: 214 60<640 700>
LayerCount: 2
Fore
SplineSet
323 586 m 1
 403 758 l 5
 474 758 l 5
 379 586 l 1
 323 586 l 1
103 0 m 1
 214 700 l 1
 274 700 l 1
 173 60 l 1
 516 60 l 1
 506 0 l 1
 103 0 l 1
EndSplineSet
EndChar

StartChar: lcaron
Encoding: 318 318 250
GlifName: lcaron
Width: 215
Flags: W
HStem: 0 21G<78 141.171> 679 20G<185.829 249 307.581 388>
VStem: 78 60<0 60> 189 60<640 700>
LayerCount: 2
Fore
SplineSet
236 527 m 1
 317 699 l 1
 388 699 l 1
 292 527 l 1
 236 527 l 1
189 700 m 1
 249 700 l 1
 138 0 l 1
 78 0 l 1
 189 700 l 1
EndSplineSet
EndChar

StartChar: Ldot
Encoding: 319 319 251
GlifName: L_dot
Width: 518
Flags: W
HStem: 0 60<173 506> 330 80<377.662 442.671> 680 20G<210.829 274>
VStem: 214 60<640 700>
LayerCount: 2
Fore
SplineSet
103 0 m 1
 214 700 l 1
 274 700 l 1
 173 60 l 1
 516 60 l 1
 506 0 l 1
 103 0 l 1
451 370 m 0
 449 359 443 349 434 341 c 0
 425 333 415 330 404 330 c 0
 393 330 384 333 377 341 c 0
 370 349 369 359 371 370 c 0
 373 381 377 390 386 398 c 0
 395 406 406 410 417 410 c 0
 428 410 436 406 443 398 c 0
 450 390 453 381 451 370 c 0
EndSplineSet
EndChar

StartChar: ldot
Encoding: 320 320 252
GlifName: ldot
Width: 291
Flags: W
HStem: 0 21G<78 141.171> 330 80<237.662 302.671> 680 20G<185.829 249>
VStem: 78 60<0 60> 189 60<640 700>
LayerCount: 2
Fore
SplineSet
189 700 m 1
 249 700 l 1
 138 0 l 1
 78 0 l 1
 189 700 l 1
311 370 m 0
 309 359 303 349 294 341 c 0
 285 333 275 330 264 330 c 0
 253 330 244 333 237 341 c 0
 230 349 229 359 231 370 c 0
 233 381 237 390 246 398 c 0
 255 406 266 410 277 410 c 0
 288 410 296 406 303 398 c 0
 310 390 313 381 311 370 c 0
EndSplineSet
EndChar

StartChar: Lslash
Encoding: 321 321 253
GlifName: L_slash
Width: 518
Flags: W
HStem: 0 60<173 506> 680 20G<210.829 274>
VStem: 214 60<640 700>
LayerCount: 2
Fore
SplineSet
103 0 m 1
 214 700 l 1
 274 700 l 1
 173 60 l 1
 516 60 l 1
 506 0 l 1
 103 0 l 1
49 265 m 1
 59 331 l 1
 357 455 l 1
 347 389 l 1
 49 265 l 1
EndSplineSet
EndChar

StartChar: lslash
Encoding: 322 322 254
GlifName: lslash
Width: 285
Flags: W
HStem: 0 21G<112 175.171> 680 20G<219.829 283>
VStem: 112 60<0 60> 223 60<640 700>
LayerCount: 2
Fore
SplineSet
66 272 m 1
 77 339 l 1
 335 454 l 1
 324 388 l 1
 66 272 l 1
112 0 m 1
 223 700 l 1
 283 700 l 1
 172 0 l 1
 112 0 l 1
EndSplineSet
EndChar

StartChar: Nacute
Encoding: 323 323 255
GlifName: N_acute
Width: 739
Flags: W
HStem: 0 21G<103 166.165 566.226 640.171> 680 20G<210.829 284.774 684.835 748>
VStem: 103 60<0 60> 688 60<640 700>
LayerCount: 2
Fore
SplineSet
449 744 m 1
 578 870 l 1
 667 870 l 1
 525 744 l 1
 449 744 l 1
214 700 m 1
 274 700 l 1
 594 106 l 1
 688 700 l 1
 748 700 l 1
 637 0 l 1
 577 0 l 1
 257 594 l 1
 163 0 l 1
 103 0 l 1
 214 700 l 1
EndSplineSet
EndChar

StartChar: nacute
Encoding: 324 324 256
GlifName: nacute
Width: 559
Flags: W
HStem: 0 21G<78 141.134 437 500.134> 452 60<281.049 431.033> 480 20G<153.84 217> 680 20G<432.524 542>
VStem: 78 60<0 60> 157 60<440 500> 437 60<0 60>
LayerCount: 2
Fore
SplineSet
324 574 m 1x9e
 453 700 l 1
 542 700 l 1
 400 574 l 1
 324 574 l 1x9e
497 0 m 1
 437 0 l 1
 479 268 l 2
 488 325 482 369 459 402 c 0
 436 435 403 452 360 452 c 0xde
 317 452 278 435 245 402 c 0
 212 369 189 325 180 268 c 2
 138 0 l 5
 78 0 l 5
 157 500 l 1
 217 500 l 1xbe
 206 432 l 1
 210 437 215 442 219 446 c 0
 261 490 311 512 369 512 c 0xde
 429 512 474 489 507 445 c 0
 540 401 551 341 539 268 c 2
 497 0 l 1
EndSplineSet
EndChar

StartChar: uni0145
Encoding: 325 325 257
GlifName: uni0145
Width: 739
Flags: W
HStem: -200 21G<286 353.324> 0 21G<103 166.165 566.226 640.171> 680 20G<210.829 284.774 684.835 748>
VStem: 103 60<0 60> 688 60<640 700>
LayerCount: 2
Fore
SplineSet
286 -200 m 5
 348 -64 l 1
 419 -64 l 1
 342 -200 l 5
 286 -200 l 5
214 700 m 1
 274 700 l 1
 594 106 l 1
 688 700 l 1
 748 700 l 1
 637 0 l 1
 577 0 l 1
 257 594 l 1
 163 0 l 1
 103 0 l 1
 214 700 l 1
EndSplineSet
EndChar

StartChar: uni0146
Encoding: 326 326 258
GlifName: uni0146
Width: 559
Flags: W
HStem: -200 21G<177 244.324> 0 21G<78 141.134 437 500.134> 452 60<281.049 431.033> 480 20G<153.84 217>
VStem: 78 60<0 60> 157 60<440 500> 437 60<0 60>
LayerCount: 2
Fore
SplineSet
177 -200 m 5xce
 239 -64 l 1
 310 -64 l 1
 233 -200 l 5
 177 -200 l 5xce
497 0 m 1
 437 0 l 1
 479 268 l 2
 488 325 482 369 459 402 c 0
 436 435 403 452 360 452 c 0xee
 317 452 278 435 245 402 c 0
 212 369 189 325 180 268 c 2
 138 0 l 5
 78 0 l 5
 157 500 l 1
 217 500 l 1xde
 206 432 l 1
 210 437 215 442 219 446 c 0
 261 490 311 512 369 512 c 0xee
 429 512 474 489 507 445 c 0
 540 401 551 341 539 268 c 2
 497 0 l 1
EndSplineSet
EndChar

StartChar: Ncaron
Encoding: 327 327 259
GlifName: N_caron
Width: 739
Flags: W
HStem: 0 21G<103 166.165 566.226 640.171> 680 20G<210.829 284.774 684.835 748>
VStem: 103 60<0 60> 688 60<640 700>
LayerCount: 2
Fore
SplineSet
359 870 m 5
 441 870 l 5
 507 792 l 5
 599 870 l 5
 681 870 l 5
 543 744 l 5
 457 744 l 5
 359 870 l 5
214 700 m 1
 274 700 l 1
 594 106 l 1
 688 700 l 1
 748 700 l 1
 637 0 l 1
 577 0 l 1
 257 594 l 1
 163 0 l 1
 103 0 l 1
 214 700 l 1
EndSplineSet
EndChar

StartChar: ncaron
Encoding: 328 328 260
GlifName: ncaron
Width: 559
Flags: W
HStem: 0 21G<78 141.134 437 500.134> 452 60<281.049 431.033> 480 20G<153.84 217> 680 20G<229 328.179 445.667 551>
VStem: 78 60<0 60> 157 60<440 500> 437 60<0 60>
LayerCount: 2
Fore
SplineSet
229 700 m 5x9e
 311 700 l 5
 378 622 l 5
 469 700 l 5
 551 700 l 5
 413 574 l 5
 327 574 l 5
 229 700 l 5x9e
497 0 m 1
 437 0 l 1
 479 268 l 2
 488 325 482 369 459 402 c 0
 436 435 403 452 360 452 c 0xde
 317 452 278 435 245 402 c 0
 212 369 189 325 180 268 c 2
 138 0 l 5
 78 0 l 5
 157 500 l 1
 217 500 l 1xbe
 206 432 l 1
 210 437 215 442 219 446 c 0
 261 490 311 512 369 512 c 0xde
 429 512 474 489 507 445 c 0
 540 401 551 341 539 268 c 2
 497 0 l 1
EndSplineSet
EndChar

StartChar: Eng
Encoding: 330 330 261
GlifName: E_ng
Width: 739
Flags: W
HStem: -212 60<401 500.442> -20 20G<573.8 637> 0 21G<103 166.165 566.226 640.171> 680 20G<210.829 284.774 684.835 748>
VStem: 103 60<0 60> 688 60<640 700>
LayerCount: 2
Fore
SplineSet
214 700 m 1xbc
 274 700 l 1
 594 106 l 1
 688 700 l 1
 748 700 l 1
 637 0 l 1
 577 0 l 1xdc
 257 594 l 1
 163 0 l 1
 103 0 l 1
 214 700 l 1xbc
577 0 m 5
 637 0 l 5
 633 -25 l 6
 625 -76 600 -120 557 -157 c 4
 514 -194 467 -212 416 -212 c 6
 391 -212 l 5
 401 -152 l 5
 426 -152 l 6
 461 -152 493 -140 522 -115 c 4
 551 -90 567 -60 573 -25 c 6
 577 0 l 5
EndSplineSet
EndChar

StartChar: eng
Encoding: 331 331 262
GlifName: eng
Width: 559
Flags: W
HStem: -212 60<261 360.442> -20 20G<433.8 497> 0 21G<78 141.134 437 500.134> 452 60<281.049 431.033> 480 20G<153.84 217>
VStem: 78 60<0 60> 157 60<440 500> 437 60<0 60>
LayerCount: 2
Fore
SplineSet
497 0 m 1xd7
 437 0 l 1
 479 268 l 2
 488 325 482 369 459 402 c 0
 436 435 403 452 360 452 c 0xd7
 317 452 278 435 245 402 c 0
 212 369 189 325 180 268 c 2
 138 0 l 5
 78 0 l 5
 157 500 l 1
 217 500 l 1xaf
 206 432 l 1
 210 437 215 442 219 446 c 0
 261 490 311 512 369 512 c 0
 429 512 474 489 507 445 c 0
 540 401 551 341 539 268 c 2
 497 0 l 1xd7
437 0 m 5
 497 0 l 5
 493 -25 l 6
 485 -76 460 -120 417 -157 c 4
 374 -194 327 -212 276 -212 c 6
 251 -212 l 5
 261 -152 l 5
 286 -152 l 6
 321 -152 353 -140 382 -115 c 4
 411 -90 427 -60 433 -25 c 6
 437 0 l 5
EndSplineSet
EndChar

StartChar: Omacron
Encoding: 332 332 263
GlifName: O_macron
Width: 781
Flags: W
HStem: -12 60<291.634 512.482> 652 60<380.268 599.188> 750 60<369 660>
LayerCount: 2
Fore
SplineSet
494 652 m 0
 413 652 341 623 280 564 c 0
 219 505 181 434 168 350 c 0
 155 266 170 195 213 136 c 0
 256 77 318 48 399 48 c 0
 480 48 551 77 612 136 c 0
 673 195 711 266 724 350 c 0
 737 434 722 505 679 564 c 0
 636 623 575 652 494 652 c 0
504 712 m 0
 603 712 678 677 730 607 c 0
 782 537 800 452 784 350 c 0
 768 248 723 163 649 93 c 0
 575 23 488 -12 389 -12 c 0
 290 -12 215 23 163 93 c 0
 111 163 92 248 108 350 c 0
 124 452 170 537 244 607 c 0
 318 677 405 712 504 712 c 0
360 750 m 1
 369 810 l 1
 669 810 l 1
 660 750 l 1
 360 750 l 1
EndSplineSet
EndChar

StartChar: omacron
Encoding: 333 333 264
GlifName: omacron
Width: 584
Flags: W
HStem: -12 60<215.171 393.324> 452 60<271.253 449.498> 580 60<249 540>
LayerCount: 2
Fore
SplineSet
240 580 m 1
 249 640 l 1
 549 640 l 1
 540 580 l 1
 240 580 l 1
365 452 m 0
 310 452 261 433 221 394 c 0
 181 355 157 307 148 250 c 0
 139 193 148 145 176 106 c 0
 204 67 246 48 301 48 c 0
 356 48 403 67 443 106 c 0
 483 145 508 193 517 250 c 0
 526 307 516 355 488 394 c 0
 460 433 420 452 365 452 c 0
374 512 m 0
 445 512 499 487 537 436 c 0
 575 385 589 323 577 250 c 0
 565 177 532 115 478 64 c 0
 424 13 362 -12 291 -12 c 0
 220 -12 165 13 127 64 c 0
 89 115 76 177 88 250 c 0
 100 323 132 385 186 436 c 0
 240 487 303 512 374 512 c 0
EndSplineSet
EndChar

StartChar: Obreve
Encoding: 334 334 265
GlifName: O_breve
Width: 781
Flags: W
HStem: -12 60<291.634 512.482> 652 60<380.268 599.188> 739 60<461.293 587.923>
VStem: 385 60<819.612 870>
LayerCount: 2
Fore
SplineSet
494 652 m 0
 413 652 341 623 280 564 c 0
 219 505 181 434 168 350 c 0
 155 266 170 195 213 136 c 0
 256 77 318 48 399 48 c 0
 480 48 551 77 612 136 c 0
 673 195 711 266 724 350 c 0
 737 434 722 505 679 564 c 0
 636 623 575 652 494 652 c 0
504 712 m 0
 603 712 678 677 730 607 c 0
 782 537 800 452 784 350 c 0
 768 248 723 163 649 93 c 0
 575 23 488 -12 389 -12 c 0
 290 -12 215 23 163 93 c 0
 111 163 92 248 108 350 c 0
 124 452 170 537 244 607 c 0
 318 677 405 712 504 712 c 0
385 870 m 1
 445 870 l 1
 442 849 447 832 462 819 c 0
 477 806 496 799 521 799 c 0
 546 799 567 806 586 819 c 0
 605 832 616 849 619 870 c 1
 679 870 l 1
 673 834 654 803 622 777 c 0
 590 751 553 739 511 739 c 0
 469 739 437 751 413 777 c 0
 389 803 379 834 385 870 c 1
EndSplineSet
EndChar

StartChar: obreve
Encoding: 335 335 266
GlifName: obreve
Width: 584
Flags: W
HStem: -12 60<215.171 393.324> 452 60<271.253 449.498> 569 60<336.875 463.378> 680 20G<257 320 492.5 554>
VStem: 260 60<649.612 700>
LayerCount: 2
Fore
SplineSet
365 452 m 0
 310 452 261 433 221 394 c 0
 181 355 157 307 148 250 c 0
 139 193 148 145 176 106 c 0
 204 67 246 48 301 48 c 0
 356 48 403 67 443 106 c 0
 483 145 508 193 517 250 c 0
 526 307 516 355 488 394 c 0
 460 433 420 452 365 452 c 0
374 512 m 0
 445 512 499 487 537 436 c 0
 575 385 589 323 577 250 c 0
 565 177 532 115 478 64 c 0
 424 13 362 -12 291 -12 c 0
 220 -12 165 13 127 64 c 0
 89 115 76 177 88 250 c 0
 100 323 132 385 186 436 c 0
 240 487 303 512 374 512 c 0
260 700 m 1
 320 700 l 1
 317 679 322 662 337 649 c 0
 352 636 371 629 396 629 c 0
 421 629 442 636 461 649 c 0
 480 662 491 679 494 700 c 1
 554 700 l 1
 548 664 528 633 496 607 c 0
 464 581 428 569 386 569 c 0
 344 569 311 581 287 607 c 0
 263 633 254 664 260 700 c 1
EndSplineSet
EndChar

StartChar: Ohungarumlaut
Encoding: 336 336 267
GlifName: O_hungarumlaut
Width: 781
Flags: W
HStem: -12 60<291.634 512.482> 652 60<380.268 599.188>
LayerCount: 2
Fore
SplineSet
549 744 m 1
 662 870 l 1
 751 870 l 1
 629 744 l 1
 549 744 l 1
385 744 m 1
 498 870 l 1
 587 870 l 1
 465 744 l 1
 385 744 l 1
494 652 m 0
 413 652 341 623 280 564 c 0
 219 505 181 434 168 350 c 0
 155 266 170 195 213 136 c 0
 256 77 318 48 399 48 c 0
 480 48 551 77 612 136 c 0
 673 195 711 266 724 350 c 0
 737 434 722 505 679 564 c 0
 636 623 575 652 494 652 c 0
504 712 m 0
 603 712 678 677 730 607 c 0
 782 537 800 452 784 350 c 0
 768 248 723 163 649 93 c 0
 575 23 488 -12 389 -12 c 0
 290 -12 215 23 163 93 c 0
 111 163 92 248 108 350 c 0
 124 452 170 537 244 607 c 0
 318 677 405 712 504 712 c 0
EndSplineSet
EndChar

StartChar: ohungarumlaut
Encoding: 337 337 268
GlifName: ohungarumlaut
Width: 584
Flags: W
HStem: -12 60<215.171 393.324> 452 60<271.253 449.498> 680 20G<358.063 465 522.063 629>
LayerCount: 2
Fore
SplineSet
427 574 m 1
 540 700 l 1
 629 700 l 1
 507 574 l 1
 427 574 l 1
263 574 m 1
 376 700 l 1
 465 700 l 1
 343 574 l 1
 263 574 l 1
365 452 m 0
 310 452 261 433 221 394 c 0
 181 355 157 307 148 250 c 0
 139 193 148 145 176 106 c 0
 204 67 246 48 301 48 c 0
 356 48 403 67 443 106 c 0
 483 145 508 193 517 250 c 0
 526 307 516 355 488 394 c 0
 460 433 420 452 365 452 c 0
374 512 m 0
 445 512 499 487 537 436 c 0
 575 385 589 323 577 250 c 0
 565 177 532 115 478 64 c 0
 424 13 362 -12 291 -12 c 0
 220 -12 165 13 127 64 c 0
 89 115 76 177 88 250 c 0
 100 323 132 385 186 436 c 0
 240 487 303 512 374 512 c 0
EndSplineSet
EndChar

StartChar: OE
Encoding: 338 338 269
GlifName: O_E_
Width: 1164
Flags: W
HStem: -12 60<291.634 512.482> 0 60<739 1072> 329 60<791 1060> 640 60<830 1173> 652 60<380.268 599.188>
LayerCount: 2
Fore
SplineSet
494 652 m 0xa8
 413 652 341 623 280 564 c 0
 219 505 181 434 168 350 c 0
 155 266 170 195 213 136 c 0
 256 77 318 48 399 48 c 0
 480 48 551 77 612 136 c 0
 673 195 711 266 724 350 c 0
 737 434 722 505 679 564 c 0
 636 623 575 652 494 652 c 0xa8
504 712 m 0
 603 712 678 677 730 607 c 0
 782 537 800 452 784 350 c 0
 768 248 723 163 649 93 c 0
 575 23 488 -12 389 -12 c 0
 290 -12 215 23 163 93 c 0
 111 163 92 248 108 350 c 0
 124 452 170 537 244 607 c 0
 318 677 405 712 504 712 c 0
669 0 m 1x70
 780 700 l 1
 1183 700 l 1
 1173 640 l 1
 830 640 l 1
 791 389 l 1
 1070 389 l 1
 1060 329 l 1
 781 329 l 1
 739 60 l 1
 1082 60 l 1
 1072 0 l 1
 669 0 l 1x70
EndSplineSet
EndChar

StartChar: oe
Encoding: 339 339 270
GlifName: oe
Width: 983
Flags: W
HStem: -12 60<215.171 393.324 646.467 841.506> 220 60<583 929.548> 452 60<271.253 449.498 703.086 873.433>
CounterMasks: 1 e0
LayerCount: 2
Fore
SplineSet
981 220 m 5
 574 220 l 5
 572 170 585 129 613 97 c 4
 641 65 681 48 730 48 c 4
 800 48 857 68 902 107 c 5
 936 63 l 5
 878 13 806 -12 720 -12 c 4
 649 -12 594 13 556 64 c 4
 518 115 505 177 517 250 c 4
 529 323 561 385 615 436 c 4
 669 487 732 512 803 512 c 4
 873 512 923 488 955 438 c 4
 987 388 998 325 986 250 c 6
 981 220 l 5
794 452 m 4
 745 452 700 435 662 403 c 4
 624 371 597 330 583 280 c 5
 929 280 l 5
 932 331 923 372 900 404 c 4
 877 436 842 452 794 452 c 4
365 452 m 0
 310 452 261 433 221 394 c 0
 181 355 157 307 148 250 c 0
 139 193 148 145 176 106 c 0
 204 67 246 48 301 48 c 0
 356 48 403 67 443 106 c 0
 483 145 508 193 517 250 c 0
 526 307 516 355 488 394 c 0
 460 433 420 452 365 452 c 0
374 512 m 0
 445 512 499 487 537 436 c 0
 575 385 589 323 577 250 c 0
 565 177 532 115 478 64 c 0
 424 13 362 -12 291 -12 c 0
 220 -12 165 13 127 64 c 0
 89 115 76 177 88 250 c 0
 100 323 132 385 186 436 c 0
 240 487 303 512 374 512 c 0
EndSplineSet
EndChar

StartChar: Racute
Encoding: 340 340 271
GlifName: R_acute
Width: 593
Flags: W
HStem: 0 21G<103 166.2 468.867 541> 300 60<220 383> 640 60<264 513.585>
VStem: 103 60<0 60> 475 66<0 66>
LayerCount: 2
Fore
SplineSet
365 744 m 1
 494 870 l 1
 583 870 l 1
 441 744 l 1
 365 744 l 1
264 640 m 1
 220 360 l 1
 398 360 l 2
 436 360 472 373 504 401 c 0
 536 429 554 462 560 500 c 0
 566 538 559 571 535 599 c 0
 511 627 480 640 442 640 c 2
 264 640 l 1
214 700 m 1
 452 700 l 2
 507 700 551 681 584 642 c 0
 617 603 629 555 620 500 c 0
 613 456 594 415 561 380 c 0
 528 345 490 321 446 309 c 1
 541 0 l 1
 475 0 l 1
 383 300 l 1
 211 300 l 1
 163 0 l 1
 103 0 l 1
 214 700 l 1
EndSplineSet
EndChar

StartChar: racute
Encoding: 341 341 272
GlifName: racute
Width: 327
Flags: W
HStem: 0 21G<78 141.2> 452 60<298.458 387> 480 20G<153.84 217> 680 20G<315.524 425>
VStem: 78 60<0 60> 157 60<440 500>
LayerCount: 2
Fore
SplineSet
207 574 m 1x9c
 336 700 l 1
 425 700 l 1
 283 574 l 1
 207 574 l 1x9c
157 500 m 1xbc
 217 500 l 1xbc
 205 424 l 1
 211 430 217 437 224 443 c 0
 245 462 267 477 290 488 c 0
 323 504 358 512 396 512 c 1
 387 452 l 1xdc
 338 452 294 435 253 400 c 0
 212 365 190 324 182 275 c 2
 138 0 l 1
 78 0 l 1
 157 500 l 1xbc
EndSplineSet
EndChar

StartChar: uni0156
Encoding: 342 342 273
GlifName: uni0156
Width: 593
Flags: W
HStem: -200 21G<207 274.324> 0 21G<103 166.2 468.867 541> 300 60<220 383> 640 60<264 513.585>
VStem: 103 60<0 60> 475 66<0 66>
LayerCount: 2
Fore
SplineSet
207 -200 m 5
 269 -64 l 1
 340 -64 l 1
 263 -200 l 5
 207 -200 l 5
264 640 m 1
 220 360 l 1
 398 360 l 2
 436 360 472 373 504 401 c 0
 536 429 554 462 560 500 c 0
 566 538 559 571 535 599 c 0
 511 627 480 640 442 640 c 2
 264 640 l 1
214 700 m 1
 452 700 l 2
 507 700 551 681 584 642 c 0
 617 603 629 555 620 500 c 0
 613 456 594 415 561 380 c 0
 528 345 490 321 446 309 c 1
 541 0 l 1
 475 0 l 1
 383 300 l 1
 211 300 l 1
 163 0 l 1
 103 0 l 1
 214 700 l 1
EndSplineSet
EndChar

StartChar: uni0157
Encoding: 343 343 274
GlifName: uni0157
Width: 327
Flags: W
HStem: -200 21G<5 72.3235> 0 21G<78 141.2> 452 60<298.458 387> 480 20G<153.84 217>
VStem: 78 60<0 60> 157 60<440 500>
LayerCount: 2
Fore
SplineSet
5 -200 m 5xcc
 67 -64 l 1
 138 -64 l 1
 61 -200 l 5
 5 -200 l 5xcc
157 500 m 1xdc
 217 500 l 1xdc
 205 424 l 1
 211 430 217 437 224 443 c 0
 245 462 267 477 290 488 c 0
 323 504 358 512 396 512 c 1
 387 452 l 1xec
 338 452 294 435 253 400 c 0
 212 365 190 324 182 275 c 2
 138 0 l 1
 78 0 l 1
 157 500 l 1xdc
EndSplineSet
EndChar

StartChar: Rcaron
Encoding: 344 344 275
GlifName: R_caron
Width: 593
Flags: W
HStem: 0 21G<103 166.2 468.867 541> 300 60<220 383> 640 60<264 513.585>
VStem: 103 60<0 60> 475 66<0 66>
LayerCount: 2
Fore
SplineSet
265 870 m 5
 347 870 l 5
 413 792 l 5
 505 870 l 5
 587 870 l 5
 449 744 l 5
 363 744 l 5
 265 870 l 5
264 640 m 1
 220 360 l 1
 398 360 l 2
 436 360 472 373 504 401 c 0
 536 429 554 462 560 500 c 0
 566 538 559 571 535 599 c 0
 511 627 480 640 442 640 c 2
 264 640 l 1
214 700 m 1
 452 700 l 2
 507 700 551 681 584 642 c 0
 617 603 629 555 620 500 c 0
 613 456 594 415 561 380 c 0
 528 345 490 321 446 309 c 1
 541 0 l 1
 475 0 l 1
 383 300 l 1
 211 300 l 1
 163 0 l 1
 103 0 l 1
 214 700 l 1
EndSplineSet
EndChar

StartChar: rcaron
Encoding: 345 345 276
GlifName: rcaron
Width: 327
Flags: W
HStem: 0 21G<78 141.2> 452 60<298.458 387> 480 20G<153.84 217> 680 20G<137 235.436 354.41 459>
VStem: 78 60<0 60> 157 60<440 500>
LayerCount: 2
Fore
SplineSet
137 700 m 5x9c
 218 700 l 5
 286 622 l 5
 378 700 l 5
 459 700 l 5
 321 574 l 5
 235 574 l 5
 137 700 l 5x9c
157 500 m 1xbc
 217 500 l 1xbc
 205 424 l 1
 211 430 217 437 224 443 c 0
 245 462 267 477 290 488 c 0
 323 504 358 512 396 512 c 1
 387 452 l 1xdc
 338 452 294 435 253 400 c 0
 212 365 190 324 182 275 c 2
 138 0 l 1
 78 0 l 1
 157 500 l 1xbc
EndSplineSet
EndChar

StartChar: Sacute
Encoding: 346 346 277
GlifName: S_acute
Width: 544
Flags: W
HStem: -12 60<190.955 361.703> 652 60<281.033 452.21>
VStem: 78 60<98.8 129.333> 490 60<590.55 616.133>
LayerCount: 2
Fore
SplineSet
344 744 m 1
 473 870 l 1
 562 870 l 1
 420 744 l 1
 344 744 l 1
379 712 m 0
 426 712 464 701 494 680 c 0
 524 659 543 630 550 593 c 1
 490 572 l 1
 485 597 473 617 452 631 c 0
 431 645 404 652 369 652 c 0
 327 652 292 641 262 618 c 0
 232 595 215 566 209 531 c 0
 205 503 210 478 226 459 c 0
 245 435 280 419 331 410 c 0
 393 399 443 375 479 338 c 0
 515 301 528 255 519 199 c 0
 510 140 479 90 431 49 c 0
 383 8 326 -12 264 -12 c 0
 215 -12 174 1 141 26 c 0
 108 51 86 85 78 127 c 1
 138 147 l 1
 144 117 159 93 183 75 c 0
 207 57 238 48 274 48 c 0
 320 48 360 63 396 92 c 0
 432 121 452 157 459 199 c 0
 465 239 454 272 428 298 c 0
 402 324 367 342 321 350 c 0
 263 361 218 381 186 410 c 0
 154 439 141 480 149 531 c 0
 157 582 183 625 227 660 c 0
 271 695 320 712 379 712 c 0
EndSplineSet
EndChar

StartChar: sacute
Encoding: 347 347 278
GlifName: sacute
Width: 435
Flags: W
HStem: -12 60<148.661 297.851> 452 60<220.488 354.493> 680 20G<366.524 476>
LayerCount: 2
Fore
SplineSet
258 574 m 1
 387 700 l 1
 476 700 l 1
 334 574 l 1
 258 574 l 1
431 422 m 1
 371 402 l 1
 368 417 359 429 344 438 c 0
 329 447 312 452 290 452 c 0
 263 452 238 445 220 430 c 0
 202 415 191 397 188 376 c 0
 184 352 197 332 226 316 c 0
 240 309 257 303 277 297 c 0
 329 282 365 262 387 236 c 0
 408 211 417 180 411 144 c 0
 404 101 381 64 342 34 c 0
 303 4 260 -12 210 -12 c 0
 171 -12 140 -3 115 16 c 0
 90 35 72 60 62 91 c 1
 122 111 l 1
 135 69 167 48 220 48 c 0
 253 48 282 57 307 76 c 0
 332 95 347 117 351 144 c 0
 355 172 343 195 313 214 c 0
 298 224 277 232 252 239 c 0
 212 250 180 268 155 290 c 0
 130 312 122 341 128 376 c 0
 134 414 153 447 185 473 c 0
 217 499 255 512 299 512 c 0
 334 512 364 504 387 488 c 0
 410 472 425 449 431 422 c 1
EndSplineSet
EndChar

StartChar: Scircumflex
Encoding: 348 348 279
GlifName: S_circumflex
Width: 544
Flags: W
HStem: -12 60<190.955 361.703> 652 60<281.033 452.21>
VStem: 78 60<98.8 129.333> 490 60<590.55 616.133>
LayerCount: 2
Fore
SplineSet
222 744 m 1
 362 870 l 1
 444 870 l 1
 544 744 l 1
 462 744 l 1
 396 824 l 5
 304 744 l 1
 222 744 l 1
379 712 m 0
 426 712 464 701 494 680 c 0
 524 659 543 630 550 593 c 1
 490 572 l 1
 485 597 473 617 452 631 c 0
 431 645 404 652 369 652 c 0
 327 652 292 641 262 618 c 0
 232 595 215 566 209 531 c 0
 205 503 210 478 226 459 c 0
 245 435 280 419 331 410 c 0
 393 399 443 375 479 338 c 0
 515 301 528 255 519 199 c 0
 510 140 479 90 431 49 c 0
 383 8 326 -12 264 -12 c 0
 215 -12 174 1 141 26 c 0
 108 51 86 85 78 127 c 1
 138 147 l 1
 144 117 159 93 183 75 c 0
 207 57 238 48 274 48 c 0
 320 48 360 63 396 92 c 0
 432 121 452 157 459 199 c 0
 465 239 454 272 428 298 c 0
 402 324 367 342 321 350 c 0
 263 361 218 381 186 410 c 0
 154 439 141 480 149 531 c 0
 157 582 183 625 227 660 c 0
 271 695 320 712 379 712 c 0
EndSplineSet
EndChar

StartChar: scircumflex
Encoding: 349 349 280
GlifName: scircumflex
Width: 435
Flags: W
HStem: -12 60<148.661 297.851> 452 60<220.488 354.493> 680 20G<265.778 385.873>
LayerCount: 2
Fore
SplineSet
148 574 m 1
 288 700 l 1
 370 700 l 1
 470 574 l 1
 388 574 l 1
 322 654 l 5
 230 574 l 1
 148 574 l 1
431 422 m 1
 371 402 l 1
 368 417 359 429 344 438 c 0
 329 447 312 452 290 452 c 0
 263 452 238 445 220 430 c 0
 202 415 191 397 188 376 c 0
 184 352 197 332 226 316 c 0
 240 309 257 303 277 297 c 0
 329 282 365 262 387 236 c 0
 408 211 417 180 411 144 c 0
 404 101 381 64 342 34 c 0
 303 4 260 -12 210 -12 c 0
 171 -12 140 -3 115 16 c 0
 90 35 72 60 62 91 c 1
 122 111 l 1
 135 69 167 48 220 48 c 0
 253 48 282 57 307 76 c 0
 332 95 347 117 351 144 c 0
 355 172 343 195 313 214 c 0
 298 224 277 232 252 239 c 0
 212 250 180 268 155 290 c 0
 130 312 122 341 128 376 c 0
 134 414 153 447 185 473 c 0
 217 499 255 512 299 512 c 0
 334 512 364 504 387 488 c 0
 410 472 425 449 431 422 c 1
EndSplineSet
EndChar

StartChar: Scedilla
Encoding: 350 350 281
GlifName: S_cedilla
Width: 544
Flags: W
HStem: -210 57<165.072 286.167> -12 60<190.955 302.238> 652 60<281.033 452.21>
VStem: 78 60<98.8 129.333> 490 60<590.55 616.133>
LayerCount: 2
Fore
SplineSet
352 33 m 1
 378 5 387 -29 381 -70 c 0
 375 -109 355 -142 324 -169 c 0
 293 -196 258 -210 219 -210 c 0
 187 -210 160 -201 138 -181 c 1
 167 -152 182 -137 182 -137 c 5
 194 -147 210 -153 228 -153 c 0
 250 -153 272 -144 291 -128 c 0
 310 -112 321 -92 324 -70 c 0
 327 -54 324 -39 318 -26 c 0
 312 -13 304 -3 291 4 c 1
 352 33 l 1
379 712 m 0
 426 712 464 701 494 680 c 0
 524 659 543 630 550 593 c 1
 490 572 l 1
 485 597 473 617 452 631 c 0
 431 645 404 652 369 652 c 0
 327 652 292 641 262 618 c 0
 232 595 215 566 209 531 c 0
 205 503 210 478 226 459 c 0
 245 435 280 419 331 410 c 0
 393 399 443 375 479 338 c 0
 515 301 528 255 519 199 c 0
 510 140 479 90 431 49 c 0
 383 8 326 -12 264 -12 c 0
 215 -12 174 1 141 26 c 0
 108 51 86 85 78 127 c 1
 138 147 l 1
 144 117 159 93 183 75 c 0
 207 57 238 48 274 48 c 0
 320 48 360 63 396 92 c 0
 432 121 452 157 459 199 c 0
 465 239 454 272 428 298 c 0
 402 324 367 342 321 350 c 0
 263 361 218 381 186 410 c 0
 154 439 141 480 149 531 c 0
 157 582 183 625 227 660 c 0
 271 695 320 712 379 712 c 0
EndSplineSet
EndChar

StartChar: scedilla
Encoding: 351 351 282
GlifName: scedilla
Width: 435
Flags: W
HStem: -210 57<106.072 227.167> -12 60<148.661 244.021> 452 60<220.488 354.493>
LayerCount: 2
Fore
SplineSet
293 33 m 1
 319 5 328 -29 322 -70 c 0
 316 -109 296 -142 265 -169 c 0
 234 -196 199 -210 160 -210 c 0
 128 -210 101 -201 79 -181 c 1
 108 -152 123 -137 123 -137 c 5
 135 -147 151 -153 169 -153 c 0
 191 -153 213 -144 232 -128 c 0
 251 -112 262 -92 265 -70 c 0
 268 -54 266 -39 260 -26 c 0
 254 -13 245 -3 232 4 c 1
 293 33 l 1
431 422 m 1
 371 402 l 1
 368 417 359 429 344 438 c 0
 329 447 312 452 290 452 c 0
 263 452 238 445 220 430 c 0
 202 415 191 397 188 376 c 0
 184 352 197 332 226 316 c 0
 240 309 257 303 277 297 c 0
 329 282 365 262 387 236 c 0
 408 211 417 180 411 144 c 0
 404 101 381 64 342 34 c 0
 303 4 260 -12 210 -12 c 0
 171 -12 140 -3 115 16 c 0
 90 35 72 60 62 91 c 1
 122 111 l 1
 135 69 167 48 220 48 c 0
 253 48 282 57 307 76 c 0
 332 95 347 117 351 144 c 0
 355 172 343 195 313 214 c 0
 298 224 277 232 252 239 c 0
 212 250 180 268 155 290 c 0
 130 312 122 341 128 376 c 0
 134 414 153 447 185 473 c 0
 217 499 255 512 299 512 c 0
 334 512 364 504 387 488 c 0
 410 472 425 449 431 422 c 1
EndSplineSet
EndChar

StartChar: Scaron
Encoding: 352 352 283
GlifName: S_caron
Width: 544
Flags: W
HStem: -12 60<190.955 361.703> 652 60<281.033 452.21>
VStem: 78 60<98.8 129.333> 490 60<590.55 616.133>
LayerCount: 2
Fore
SplineSet
248 870 m 5
 329 870 l 5
 396 792 l 5
 488 870 l 5
 570 870 l 5
 432 744 l 5
 346 744 l 5
 248 870 l 5
379 712 m 0
 426 712 464 701 494 680 c 0
 524 659 543 630 550 593 c 1
 490 572 l 1
 485 597 473 617 452 631 c 0
 431 645 404 652 369 652 c 0
 327 652 292 641 262 618 c 0
 232 595 215 566 209 531 c 0
 205 503 210 478 226 459 c 0
 245 435 280 419 331 410 c 0
 393 399 443 375 479 338 c 0
 515 301 528 255 519 199 c 0
 510 140 479 90 431 49 c 0
 383 8 326 -12 264 -12 c 0
 215 -12 174 1 141 26 c 0
 108 51 86 85 78 127 c 1
 138 147 l 1
 144 117 159 93 183 75 c 0
 207 57 238 48 274 48 c 0
 320 48 360 63 396 92 c 0
 432 121 452 157 459 199 c 0
 465 239 454 272 428 298 c 0
 402 324 367 342 321 350 c 0
 263 361 218 381 186 410 c 0
 154 439 141 480 149 531 c 0
 157 582 183 625 227 660 c 0
 271 695 320 712 379 712 c 0
EndSplineSet
EndChar

StartChar: scaron
Encoding: 353 353 284
GlifName: scaron
Width: 435
Flags: W
HStem: -12 60<148.661 297.851> 452 60<220.488 354.493> 680 20G<168 267.179 384.667 490>
LayerCount: 2
Fore
SplineSet
168 700 m 5
 250 700 l 5
 317 622 l 5
 408 700 l 5
 490 700 l 5
 352 574 l 5
 266 574 l 5
 168 700 l 5
431 422 m 1
 371 402 l 1
 368 417 359 429 344 438 c 0
 329 447 312 452 290 452 c 0
 263 452 238 445 220 430 c 0
 202 415 191 397 188 376 c 0
 184 352 197 332 226 316 c 0
 240 309 257 303 277 297 c 0
 329 282 365 262 387 236 c 0
 408 211 417 180 411 144 c 0
 404 101 381 64 342 34 c 0
 303 4 260 -12 210 -12 c 0
 171 -12 140 -3 115 16 c 0
 90 35 72 60 62 91 c 1
 122 111 l 1
 135 69 167 48 220 48 c 0
 253 48 282 57 307 76 c 0
 332 95 347 117 351 144 c 0
 355 172 343 195 313 214 c 0
 298 224 277 232 252 239 c 0
 212 250 180 268 155 290 c 0
 130 312 122 341 128 376 c 0
 134 414 153 447 185 473 c 0
 217 499 255 512 299 512 c 0
 334 512 364 504 387 488 c 0
 410 472 425 449 431 422 c 1
EndSplineSet
EndChar

StartChar: uni0162
Encoding: 354 354 285
GlifName: uni0162
Width: 545
Flags: W
HStem: -202 57<123.044 245.215> 0 21G<243 306.156> 640 60<124 344 404 634>
VStem: 344 60<595.644 640>
LayerCount: 2
Fore
SplineSet
124 700 m 1
 644 700 l 1
 634 640 l 1
 404 640 l 1
 303 0 l 1
 243 0 l 1
 344 640 l 1
 114 640 l 1
 124 700 l 1
309 41 m 1
 335 13 344 -21 338 -62 c 0
 332 -101 313 -134 282 -161 c 0
 251 -188 215 -202 176 -202 c 0
 144 -202 118 -193 96 -173 c 1
 125 -144 140 -129 140 -129 c 5
 152 -139 167 -145 185 -145 c 0
 207 -145 229 -137 248 -121 c 0
 267 -105 278 -84 281 -62 c 0
 284 -46 281 -32 275 -19 c 0
 269 -6 261 5 248 12 c 1
 309 41 l 1
EndSplineSet
EndChar

StartChar: uni0163
Encoding: 355 355 286
GlifName: uni0163
Width: 364
Flags: W
HStem: -200 57<151.044 273.215> 0 21G<283.5 334.333> 441 59<102 182 251 402>
VStem: 216 60<596 656>
LayerCount: 2
Fore
SplineSet
216 656 m 1
 276 656 l 1
 251 500 l 1
 411 500 l 1
 402 441 l 1
 242 441 l 1
 204 199 l 2
 198 160 205 128 228 101 c 0
 251 74 282 60 321 60 c 2
 341 60 l 1
 331 0 l 1
 311 0 l 2
 256 0 212 20 179 59 c 0
 146 98 135 144 144 199 c 2
 182 441 l 1
 93 441 l 1
 102 500 l 1
 191 500 l 1
 216 656 l 1
338 43 m 1
 364 15 372 -19 366 -60 c 0
 360 -99 341 -132 310 -159 c 0
 279 -186 243 -200 204 -200 c 0
 172 -200 146 -191 124 -171 c 1
 153 -142 168 -127 168 -127 c 1
 180 -137 195 -143 213 -143 c 0
 235 -143 257 -135 276 -119 c 0
 295 -103 306 -82 309 -60 c 0
 312 -44 310 -30 304 -17 c 0
 298 -4 289 7 276 14 c 1
 338 43 l 1
EndSplineSet
EndChar

StartChar: Tcaron
Encoding: 356 356 287
GlifName: T_caron
Width: 545
Flags: W
HStem: 0 21G<243 306.156> 640 60<124 344 404 634>
VStem: 243 60<0 60>
LayerCount: 2
Fore
SplineSet
249 870 m 5
 330 870 l 5
 397 792 l 5
 490 870 l 5
 571 870 l 5
 433 744 l 5
 347 744 l 5
 249 870 l 5
124 700 m 1
 644 700 l 1
 634 640 l 1
 404 640 l 1
 303 0 l 1
 243 0 l 1
 344 640 l 1
 114 640 l 1
 124 700 l 1
EndSplineSet
EndChar

StartChar: tcaron
Encoding: 357 357 288
GlifName: tcaron
Width: 382
Flags: W
HStem: 0 60<249.415 331> 441 59<102 182 251 402>
VStem: 216 60<596 656>
LayerCount: 2
Fore
SplineSet
216 656 m 1
 276 656 l 1
 251 500 l 1
 411 500 l 1
 402 441 l 1
 242 441 l 1
 204 199 l 2
 198 160 205 128 228 101 c 0
 251 74 282 60 321 60 c 2
 341 60 l 1
 331 0 l 1
 311 0 l 2
 256 0 212 20 179 59 c 0
 146 98 135 144 144 199 c 2
 182 441 l 1
 93 441 l 1
 102 500 l 1
 191 500 l 1
 216 656 l 1
313 553 m 1
 393 725 l 5
 464 725 l 5
 369 553 l 1
 313 553 l 1
EndSplineSet
EndChar

StartChar: Tbar
Encoding: 358 358 289
GlifName: T_bar
Width: 545
Flags: W
HStem: 0 21G<243 306.156> 309 60<179 478> 640 60<124 344 404 634>
VStem: 243 60<0 60>
LayerCount: 2
Fore
SplineSet
124 700 m 1
 644 700 l 1
 634 640 l 1
 404 640 l 1
 303 0 l 1
 243 0 l 1
 344 640 l 1
 114 640 l 1
 124 700 l 1
170 309 m 5
 179 369 l 5
 487 369 l 5
 478 309 l 5
 170 309 l 5
EndSplineSet
EndChar

StartChar: tbar
Encoding: 359 359 290
GlifName: tbar
Width: 364
Flags: W
HStem: 0 60<249.415 331> 271 59<79 370> 441 59<102 182 251 402>
VStem: 216 60<596 656>
LayerCount: 2
Fore
SplineSet
216 656 m 1
 276 656 l 1
 251 500 l 1
 411 500 l 1
 402 441 l 1
 242 441 l 1
 204 199 l 2
 198 160 205 128 228 101 c 0
 251 74 282 60 321 60 c 2
 341 60 l 1
 331 0 l 1
 311 0 l 2
 256 0 212 20 179 59 c 0
 146 98 135 144 144 199 c 2
 182 441 l 1
 93 441 l 1
 102 500 l 1
 191 500 l 1
 216 656 l 1
70 271 m 5
 79 330 l 5
 379 330 l 5
 370 271 l 5
 70 271 l 5
EndSplineSet
EndChar

StartChar: Utilde
Encoding: 360 360 291
GlifName: U_tilde
Width: 714
Flags: W
HStem: -12 60<278.927 459.186> 680 20G<200.835 264 669.835 733> 742 56<505.622 573.617> 814 56<385.158 450.317>
VStem: 204 60<640 700> 581 59<804.423 836> 673 60<640 700>
LayerCount: 2
Fore
SplineSet
204 700 m 1
 264 700 l 1
 198 283 l 2
 187 213 197 156 230 113 c 0
 263 70 307 48 365 48 c 0
 423 48 474 70 521 113 c 0
 568 156 596 213 607 283 c 2
 673 700 l 1
 733 700 l 1
 667 283 l 2
 653 195 616 123 557 69 c 0
 498 15 431 -12 355 -12 c 0
 279 -12 221 15 180 69 c 0
 139 123 124 195 138 283 c 2
 204 700 l 1
529 742 m 0
 500 742 476 754 460 778 c 0
 453 787 449 796 443 803 c 0
 437 810 431 814 423 814 c 0
 402 814 387 802 377 777 c 1
 318 777 l 1
 325 803 339 824 361 842 c 0
 383 860 407 870 432 870 c 0
 457 870 478 858 495 834 c 0
 502 825 508 816 514 809 c 0
 520 802 528 798 537 798 c 0
 558 798 573 811 581 836 c 1
 640 836 l 1
 632 809 619 787 598 769 c 0
 577 751 554 742 529 742 c 0
EndSplineSet
EndChar

StartChar: utilde
Encoding: 361 361 292
GlifName: utilde
Width: 544
Flags: W
HStem: -12 60<209.309 358.781> 480 20G<138.866 202 497.866 561> 572 56<398.622 466.617> 644 56<278.158 343.317>
VStem: 142 60<440 500> 474 59<634.423 666> 501 60<440 500>
LayerCount: 2
Fore
SplineSet
142 500 m 1xfa
 202 500 l 1
 160 232 l 2
 151 175 159 131 182 98 c 0
 205 65 238 48 281 48 c 0
 324 48 362 65 395 98 c 0
 428 131 450 175 459 232 c 2
 501 500 l 1
 561 500 l 1
 519 232 l 2
 507 159 478 99 431 55 c 0
 384 11 331 -12 271 -12 c 0
 211 -12 165 11 132 55 c 0
 99 99 88 159 100 232 c 2
 142 500 l 1xfa
422 572 m 0
 393 572 369 584 353 608 c 0
 346 617 342 626 336 633 c 0
 330 640 324 644 316 644 c 0
 295 644 280 632 270 607 c 1
 211 607 l 1
 218 633 232 654 254 672 c 0
 276 690 300 700 325 700 c 0
 350 700 371 688 388 664 c 0
 395 655 401 646 407 639 c 0
 413 632 421 628 430 628 c 0
 451 628 466 641 474 666 c 1
 533 666 l 1xfc
 525 639 512 617 491 599 c 0
 470 581 447 572 422 572 c 0
EndSplineSet
EndChar

StartChar: Umacron
Encoding: 362 362 293
GlifName: U_macron
Width: 714
Flags: W
HStem: -12 60<278.927 459.186> 680 20G<200.835 264 669.835 733> 750 60<337 628>
VStem: 204 60<640 700> 673 60<640 700>
LayerCount: 2
Fore
SplineSet
328 750 m 1
 337 810 l 1
 637 810 l 1
 628 750 l 1
 328 750 l 1
204 700 m 1
 264 700 l 1
 198 283 l 2
 187 213 197 156 230 113 c 0
 263 70 307 48 365 48 c 0
 423 48 474 70 521 113 c 0
 568 156 596 213 607 283 c 2
 673 700 l 1
 733 700 l 1
 667 283 l 2
 653 195 616 123 557 69 c 0
 498 15 431 -12 355 -12 c 0
 279 -12 221 15 180 69 c 0
 139 123 124 195 138 283 c 2
 204 700 l 1
EndSplineSet
EndChar

StartChar: umacron
Encoding: 363 363 294
GlifName: umacron
Width: 544
Flags: W
HStem: -12 60<209.309 358.781> 480 20G<138.866 202 497.866 561> 580 60<224 515>
VStem: 142 60<440 500> 501 60<440 500>
LayerCount: 2
Fore
SplineSet
215 580 m 1
 224 640 l 1
 524 640 l 1
 515 580 l 1
 215 580 l 1
142 500 m 1
 202 500 l 1
 160 232 l 2
 151 175 159 131 182 98 c 0
 205 65 238 48 281 48 c 0
 324 48 362 65 395 98 c 0
 428 131 450 175 459 232 c 2
 501 500 l 1
 561 500 l 1
 519 232 l 2
 507 159 478 99 431 55 c 0
 384 11 331 -12 271 -12 c 0
 211 -12 165 11 132 55 c 0
 99 99 88 159 100 232 c 2
 142 500 l 1
EndSplineSet
EndChar

